# File generated by ImageToStl.com - Free Image and 3D model conversion tools

o obj1
v -0.00452012 0.0475 0.0372266
v 0.0332046 0.0475 0.0174271
v 0.0308619 0.0475 0.0213024
v -0.0372266 0.075 -0.00452013
v -0.0375 0.0475 -0
v -0.0375 0.075 0
v -0.0364103 0.0475 -0.00897434
v -0.0364103 0.075 -0.00897434
v -0.0372266 0.0475 0.00452012
v -0.0372266 0.0475 -0.00452013
v -0.0350631 0.075 -0.0132977
v -0.0332046 0.0475 -0.0174271
v -0.0350631 0.0475 -0.0132977
v -0 0.082 -0.0315
v -0.00452013 0.075 -0.0372266
v -0.00411158 0.082 -0.0312305
v 0.0291022 0.082 -0.0120545
v 0.0350631 0.075 -0.0132977
v 0.0332046 0.075 -0.0174271
v 0.0315 0.082 1E-08
v 0.0375 0.075 1E-08
v 0.0372266 0.075 -0.00452012
v 0.0308619 0.075 0.0213024
v -0.0372266 0.075 0.00452013
v -0.0332046 0.0475 0.0174271
v -0.0332046 0.075 0.0174271
v -0.0350631 0.0475 0.0132977
v -0.0350631 0.075 0.0132977
v -0.00198822 0.0653804 0.043
v -0.0132977 0.075 0.0350631
v -0.00261978 0.0648209 0.043
v -0.00897433 0.075 0.0364103
v -0.00124111 0.0657726 0.043
v -0.00452012 0.075 0.0372266
v -0.0332046 0.075 -0.0174271
v -0.0308619 0.075 -0.0213024
v -0.0308619 0.0475 -0.0213024
v -0.0213024 0.0475 -0.0308619
v -0.0248671 0.0475 -0.0280692
v -0.0213024 0.075 -0.0308619
v -0.0304267 0.082 -0.0081528
v 0.0213024 0.075 -0.0308619
v 0.019176 0.082 -0.0249906
v 0.0248671 0.075 -0.0280692
v -0 0.075 -0.0375
v 0.00452012 0.075 -0.0372266
v -0 0.0475 -0.0375
v 0.00411157 0.082 -0.0312305
v 0.0081528 0.082 -0.0304267
v 0.00897434 0.075 -0.0364103
v -0.00452013 0.0475 -0.0372266
v 0.0272798 0.082 -0.01575
v 0.0308619 0.075 -0.0213024
v 0.0249906 0.082 -0.019176
v 0.0222739 0.082 -0.0222739
v 0.0308619 0.0475 -0.0213024
v -0.00042187 0.0659745 0.043
v 1E-08 0.075 0.0375
v 1E-08 0.082 0.0315
v 0.00042188 0.0659745 0.043
v 0.0304267 0.082 -0.0081528
v 0.0364103 0.075 -0.00897433
v 0.0350631 0.075 0.0132977
v 0.0350631 0.0475 0.0132977
v -0.0364103 0.075 0.00897434
v -0.0304267 0.082 0.0081528
v -0.0364103 0.0475 0.00897434
v -0.0272798 0.082 0.01575
v -0.0308619 0.075 0.0213024
v -0.0308619 0.0475 0.0213024
v -0.0280692 0.075 0.0248671
v -0.0248671 0.075 0.0280692
v -0.0222739 0.082 0.0222739
v -0.0280692 0.0475 0.0248671
v -0.0248671 0.0475 0.0280692
v -0.0213024 0.0475 0.0308619
v 0 0.0475 0.0375
v 0.00452013 0.0475 0.0372266
v 0.00042188 0.0590255 0.043
v 0.0280692 0.0475 0.0248671
v -0.0248671 0.075 -0.0280692
v -0.0280692 0.075 -0.0248671
v -0.0222739 0.082 -0.0222739
v -0.0291022 0.082 -0.0120545
v -0.0312305 0.082 -0.00411157
v 0.0120545 0.082 -0.0291022
v 0.01575 0.082 -0.0272798
v 0.0174271 0.075 -0.0332046
v 0.0132977 0.075 -0.0350631
v 0.0132977 0.0475 -0.0350631
v -0.00897434 0.075 -0.0364103
v -0.0174271 0.0475 -0.0332046
v -0.0132977 0.075 -0.0350631
v -0.0132977 0.0475 -0.0350631
v 0.0280692 0.075 -0.0248671
v 0.0174271 0.0475 -0.0332046
v 0.0213024 0.0475 -0.0308619
v 0.00897433 0.0475 -0.0364103
v 0.0248671 0.0475 -0.0280692
v 0.0350631 0.0475 -0.0132977
v 0.0312305 0.082 -0.00411157
v 0.0364103 0.075 0.00897434
v 0.0312305 0.082 0.00411158
v 0.0304267 0.082 0.00815281
v 0.0291022 0.082 0.0120545
v 0.0332046 0.075 0.0174271
v 0.0272798 0.082 0.01575
v -0.0291022 0.082 0.0120545
v -0.0249906 0.082 0.019176
v -0.0081528 0.082 0.0304267
v -0.0120545 0.082 0.0291022
v -0.00309909 0.0641265 0.043
v -0.00339829 0.0616624 0.043
v -0.00309909 0.0608735 0.043
v -0.00339829 0.0633376 0.043
v 0.0030991 0.0641265 0.043
v 0.0132977 0.075 0.0350631
v 0.00261979 0.0648209 0.043
v 0.00198823 0.0653804 0.043
v 0.00452013 0.075 0.0372266
v 0.00124112 0.0657726 0.043
v -0.00897433 0.0475 0.0364103
v -0.0132977 0.0475 0.0350631
v -0.00198822 0.0596196 0.043
v 0.0132977 0.0475 0.0350631
v 0.0174271 0.0475 0.0332046
v 0.0213024 0.0475 0.0308619
v 0.0033983 0.0616624 0.043
v -0.0249906 0.082 -0.019176
v -0.0315 0.082 0
v -0.0081528 0.082 -0.0304267
v -0.00897434 0.0475 -0.0364103
v -0.019176 0.082 -0.0249906
v -0.01575 0.082 -0.0272798
v -0.0174271 0.075 -0.0332046
v 0.00452012 0.0475 -0.0372266
v 0.0280692 0.0475 -0.0248671
v 0.0332046 0.0475 -0.0174271
v 0.0364103 0.0475 -0.00897434
v 0.0372266 0.075 0.00452013
v -0.00411157 0.082 0.0312305
v -0.0174271 0.075 0.0332046
v -0.0213024 0.075 0.0308619
v -0.019176 0.082 0.0249906
v -0.00349999 0.0625 0.043
v -0.00261978 0.0601791 0.043
v -0.00042187 0.0590255 0.043
v -0.0174271 0.0475 0.0332046
v 0.00897434 0.075 0.0364103
v 0.00897434 0.0475 0.0364103
v 0.0033983 0.0633376 0.043
v 0.00350001 0.0625 0.043
v 0.0248671 0.0475 0.0280692
v -0.0272798 0.082 -0.01575
v -0.0312305 0.082 0.00411158
v -0.0120545 0.082 -0.0291022
v 0.0372266 0.0475 -0.00452012
v -0.01575 0.082 0.0272798
v -0.00124111 0.0592274 0.043
v 0.00411158 0.082 0.0312305
v 0.0249906 0.082 0.019176
v 0.0248671 0.075 0.0280692
v 0.00124112 0.0592274 0.043
v 0.0375 0.0475 0
v 0.00815281 0.082 0.0304267
v 0.0222739 0.082 0.0222739
v 0.0280692 0.075 0.0248671
v 0.019176 0.082 0.0249906
v 0.0174271 0.075 0.0332046
v 0.0372266 0.0475 0.00452013
v 0.0120545 0.082 0.0291022
v 0.01575 0.082 0.0272798
v 0.0213024 0.075 0.0308619
v 0.00198823 0.0596196 0.043
v 0.00261979 0.0601791 0.043
v 0.0030991 0.0608735 0.043
v 0.0364103 0.0475 0.00897434
v -0.0280692 0.0475 -0.0248671
vn 0 -1 0
vn -0.99818 0 -0.06038
vn -0.98362 0 -0.18026
vn -0.99818 -0 0.06038
vn -0.98362 0 -0.18026
vn -0.9119 0 -0.41041
vn -0.04962 0.65141 -0.7571
vn 0.69501 0.64739 -0.3128
vn 0.75846 0.65011 -0.04588
vn 0.85578 -0 0.51734
vn -0.99818 0 0.06038
vn -0.9119 -0 0.41041
vn -0.9119 0 0.41041
vn -0.31505 0.35562 0.87993
vn -0.15785 0.48284 0.86136
vn -0.22711 0.43272 0.87245
vn -0.27251 0.40117 0.87453
vn -0.85578 0 -0.51734
vn -0.9119 0 -0.41041
vn -0.85578 0 -0.51734
vn -0.61672 0 -0.78718
vn -0.72707 0.6481 -0.22656
vn 0.47046 0.64658 -0.6005
vn -0.04588 0.65011 -0.75846
vn 0.04588 0.65011 -0.75846
vn 0.06038 0 -0.99818
vn 0.04962 0.65141 -0.7571
vn 0.14782 0.6526 -0.74315
vn 0.13714 0.649 -0.74832
vn -0.06038 0 -0.99818
vn -0.06038 0 -0.99818
vn 0.67829 0.65424 -0.3345
vn 0.65261 0.64689 -0.39451
vn 0.62849 0.65472 -0.41994
vn 0.49825 0.65495 -0.56814
vn 0.85578 0 -0.51734
vn -0.12199 0.49494 0.86032
vn -0.04588 0.65011 0.75846
vn 0 0.52038 0.85394
vn -0.05152 0.52144 0.85173
vn 0.71672 0.65354 -0.2433
vn 0.72707 0.6481 -0.22656
vn 0.9119 -0 0.41041
vn -0.72707 0.6481 0.22656
vn -0.98362 0 0.18026
vn -0.98362 0 0.18026
vn -0.65261 0.64689 0.39451
vn -0.85578 -0 0.51734
vn -0.85578 -0 0.51734
vn -0.53947 0.64648 0.53947
vn -0.78718 -0 0.61672
vn -0.78718 -0 0.61672
vn -0 -1 1E-05
vn -0.70711 -0 0.70711
vn -0.70711 -0 0.70711
vn 0 -1 1E-05
vn 0.05446 -0.43166 0.90039
vn 0.78718 -0 0.61672
vn 0 -1 0
vn -0.53947 0.64648 -0.53947
vn -0.69501 0.64739 -0.3128
vn -0.71672 0.65354 -0.2433
vn -0.74832 0.649 -0.13714
vn -0.74315 0.6526 -0.14782
vn 0.3345 0.65424 -0.67829
vn 0.41994 0.65472 -0.62849
vn 0.39451 0.64689 -0.65261
vn 0.2433 0.65354 -0.71672
vn 0.22656 0.6481 -0.72707
vn 0.3128 0.64739 -0.69501
vn 0.2975 0 -0.95472
vn 0.41041 0 -0.9119
vn -0.13714 0.649 -0.74832
vn -0.41041 0 -0.9119
vn 0.53947 0.64648 -0.53947
vn 0.56814 0.65495 -0.49825
vn 0.6005 0.64658 -0.47046
vn 0.41041 0 -0.9119
vn 0 -1 -0
vn 0 -1 -0
vn 0.2975 0 -0.95472
vn 0 -1 -0
vn 0 -1 -0
vn 0.9119 0 -0.41041
vn 0.74832 0.649 -0.13714
vn 0.74315 0.6526 -0.14782
vn 0.7571 0.65141 -0.04962
vn 0.74315 0.6526 0.14782
vn 0.72707 0.6481 0.22656
vn 0.71672 0.65354 0.2433
vn 0.65261 0.64689 0.39451
vn 0.85578 -0 0.51734
vn 0.9119 -0 0.41041
vn 0.67829 0.65425 0.3345
vn 0.69501 0.64739 0.3128
vn -0.71672 0.65354 0.2433
vn -0.69501 0.64739 0.3128
vn -0.67829 0.65424 0.3345
vn -0.62849 0.65472 0.41994
vn -0.6005 0.64658 0.47046
vn -0.56814 0.65495 0.49825
vn -0.22656 0.6481 0.72707
vn -0.2433 0.65354 0.71672
vn -0.39369 0.27174 0.87816
vn -1E-05 -0 1
vn 0.39369 0.27174 0.87816
vn 0.31505 0.35562 0.87993
vn 0.12199 0.49494 0.86032
vn 0.05152 0.52144 0.85173
vn 0.04588 0.65011 0.75846
vn -0 -1 0
vn -0 -1 0
vn -0.28101 -0.32834 0.90179
vn 0 -1 0
vn 0.51571 -0.07919 0.85309
vn 0 -1 0
vn -0.6005 0.64658 -0.47046
vn -0.56814 0.65495 -0.49825
vn -0.75846 0.65011 -0.04588
vn -0.7571 0.65141 -0.04962
vn -0.75846 0.65011 0.04588
vn -0.14782 0.6526 -0.74315
vn -0.22656 0.6481 -0.72707
vn -0.2975 0 -0.95472
vn -0.2975 0 -0.95472
vn -0.41994 0.65472 -0.62849
vn -0.47046 0.64658 -0.6005
vn -0.49825 0.65495 -0.56814
vn -0.39451 0.64689 -0.65261
vn -0.41041 0 -0.9119
vn 0.06038 0 -0.99818
vn 0 -1 -1E-05
vn 1E-05 -1 -0
vn 0.85578 -0 -0.51734
vn 0.9119 -0 -0.41041
vn 0 -1 -0
vn 0 -1 -0
vn 0.98362 0 -0.18026
vn 0 -1 -0
vn 0.74832 0.649 0.13714
vn 0.7571 0.65141 0.04962
vn 0.75846 0.65011 0.04588
vn -0.04962 0.65141 0.7571
vn -0.13714 0.649 0.74832
vn -0.14782 0.6526 0.74315
vn -0.3128 0.64739 0.69501
vn -0.39514 0.27024 0.87797
vn -0.46165 0.17508 0.86961
vn -0.51495 0.09602 0.85183
vn -0.47046 0.64658 0.6005
vn -0.49825 0.65495 0.56814
vn -0.56334 -0 0.82623
vn -0.53088 0.06446 0.84499
vn -0.52497 -0.06374 0.84873
vn -2E-05 -0 1
vn -0 -0 1
vn -0 -0 1
vn -0.3659 -0.25256 0.89573
vn -0.28645 -0.32333 0.90189
vn -0.05446 -0.43166 0.90039
vn 0 -0.43068 0.90251
vn -0.40013 -0.22249 0.88904
vn -0.44428 -0.16849 0.8799
vn -0.51571 -0.07919 0.85309
vn -0 -1 0
vn -0 -1 0
vn 0.15785 0.48284 0.86136
vn 0.22711 0.43272 0.87245
vn 0.27251 0.40117 0.87453
vn 0 -1 0
vn 0 -1 0
vn 2E-05 -0 1
vn 0.52497 -0.06374 0.84873
vn 0 -1 0
vn 0 -1 0
vn -0.65261 0.64689 -0.39451
vn -0.62849 0.65471 -0.41994
vn -0.67829 0.65424 -0.3345
vn -0.7571 0.65141 0.04962
vn -0.74315 0.6526 0.14782
vn -0.74832 0.649 0.13714
vn -0.2433 0.65354 -0.71672
vn -0.3128 0.64739 -0.69501
vn -0.3345 0.65424 -0.67829
vn 0.98362 0 -0.18026
vn 0 -1 -0
vn -0.3345 0.65424 0.67829
vn -0.39451 0.64689 0.65261
vn -0.41994 0.65472 0.62849
vn -0.10256 -0.41612 0.90351
vn -0.16536 -0.398 0.90236
vn -0.19817 -0.37758 0.90452
vn -0 -0 1
vn -0 -0 1
vn 0.04962 0.65141 0.7571
vn 0.13714 0.649 0.74832
vn 0.62849 0.65472 0.41994
vn 0.70711 -0 0.70711
vn 0.10256 -0.41612 0.90351
vn 0.16536 -0.398 0.90236
vn 0 -0 1
vn 0.99818 -0 0.06038
vn 0.99818 0 -0.06038
vn 0.99818 0 -0.06038
vn 0 -1 -0
vn 0.22656 0.6481 0.72707
vn 0.14782 0.6526 0.74315
vn 0.53947 0.64648 0.53947
vn 0.56814 0.65495 0.49825
vn 0.6005 0.64658 0.47046
vn 0.78718 -0 0.61672
vn 0.70711 -0 0.70711
vn 0.49825 0.65495 0.56814
vn 0.46165 0.17508 0.86961
vn 0.39514 0.27024 0.87797
vn 0 -1 0
vn 0.99818 -0 0.06038
vn 0.98362 -0 0.18026
vn 0.2433 0.65354 0.71672
vn 0.3128 0.64739 0.69501
vn 0.3345 0.65424 0.67829
vn 0.41994 0.65472 0.62849
vn 0.39451 0.64689 0.65261
vn 0.47046 0.64658 0.6005
vn 0.56334 -0 0.82623
vn 0.53088 0.06446 0.84499
vn 0.51495 0.09603 0.85183
vn 0.61672 -0 0.78718
vn 0 -0 1
vn 0 -0 1
vn 0.19817 -0.37758 0.90452
vn 0.28101 -0.32834 0.90179
vn 0.28645 -0.32333 0.90189
vn 0.44428 -0.16849 0.8799
vn 0.40013 -0.22249 0.88904
vn 0.3659 -0.25256 0.89573
vn 1E-05 -0 1
vn 0 -0 1
vn 0 -1 0
vn 0 -1 0
vn 0.98362 -0 0.18026
vn -0.95472 0 -0.2975
vn -0.95472 0 -0.2975
vn -0.78718 0 -0.61672
vn -0.78718 0 -0.61672
vn -0.95472 0 0.2975
vn -0.95472 0 0.2975
vn -0.70711 0 -0.70711
vn 0.51734 0 -0.85578
vn 0.51734 0 -0.85578
vn 0.61672 0 -0.78718
vn 0.61672 0 -0.78718
vn 0 -1 0
vn 0 -1 0
vn -0.61672 -0 0.78718
vn -0.61672 -0 0.78718
vn 0 0 1
vn 0 -1 0
vn -0.18026 0 -0.98362
vn -0.51734 0 -0.85578
vn -0.51734 0 -0.85578
vn 0.18026 0 -0.98362
vn 0.78718 0 -0.61672
vn 0.70711 0 -0.70711
vn 0.95472 0 -0.2975
vn 0 -0 1
vn 0 1 0
vn 0.95472 -0 0.2975
vn 0.95472 -0 0.2975
f 1//1 2//1 3//1
f 4//2 5//2 6//2
f 7//3 4//3 8//3
f 5//4 9//4 6//4
f 5//2 4//2 10//2
f 7//5 10//5 4//5
f 11//6 12//6 13//6
f 14//7 15//7 16//7
f 17//8 18//8 19//8
f 20//9 21//9 22//9
f 23//10 3//10 2//10
f 6//11 9//11 24//11
f 25//12 26//12 27//12
f 27//13 26//13 28//13
f 29//14 30//14 31//14
f 32//15 33//15 34//15
f 32//16 29//16 33//16
f 32//17 30//17 29//17
f 35//18 36//18 12//18
f 12//19 11//19 35//19
f 12//20 36//20 37//20
f 38//21 39//21 40//21
f 41//22 11//22 8//22
f 42//23 43//23 44//23
f 45//24 15//24 14//24
f 46//25 45//25 14//25
f 45//26 46//26 47//26
f 48//27 46//27 14//27
f 48//28 49//28 50//28
f 48//29 50//29 46//29
f 51//30 45//30 47//30
f 15//31 45//31 51//31
f 17//32 19//32 52//32
f 52//33 19//33 53//33
f 54//34 52//34 53//34
f 43//35 55//35 44//35
f 53//36 19//36 56//36
f 33//37 57//37 34//37
f 58//38 59//38 34//38
f 58//39 57//39 60//39
f 58//40 34//40 57//40
f 61//41 18//41 17//41
f 61//42 62//42 18//42
f 63//43 2//43 64//43
f 65//44 28//44 66//44
f 65//45 9//45 67//45
f 65//46 24//46 9//46
f 68//47 26//47 69//47
f 70//48 26//48 25//48
f 26//49 70//49 69//49
f 71//50 72//50 73//50
f 71//51 70//51 74//51
f 70//52 71//52 69//52
f 75//53 74//53 76//53
f 75//54 71//54 74//54
f 71//55 75//55 72//55
f 77//56 1//56 78//56
f 77//57 78//57 79//57
f 3//58 23//58 80//58
f 80//59 1//59 3//59
f 81//21 40//21 39//21
f 81//60 82//60 83//60
f 84//61 35//61 11//61
f 41//62 84//62 11//62
f 85//63 8//63 4//63
f 85//64 41//64 8//64
f 86//65 87//65 88//65
f 43//66 42//66 87//66
f 87//67 42//67 88//67
f 89//68 49//68 86//68
f 50//69 49//69 89//69
f 89//70 86//70 88//70
f 89//71 90//71 50//71
f 89//72 88//72 90//72
f 91//73 16//73 15//73
f 92//74 93//74 94//74
f 44//75 55//75 95//75
f 95//76 55//76 54//76
f 95//77 54//77 53//77
f 96//78 90//78 88//78
f 96//79 97//79 47//79
f 96//80 47//80 90//80
f 50//81 90//81 98//81
f 98//82 90//82 47//82
f 47//83 97//83 99//83
f 100//84 19//84 18//84
f 101//85 22//85 62//85
f 61//86 101//86 62//86
f 101//87 20//87 22//87
f 102//88 103//88 104//88
f 63//89 102//89 104//89
f 105//90 63//90 104//90
f 106//91 107//91 23//91
f 106//92 23//92 2//92
f 106//93 2//93 63//93
f 106//94 105//94 107//94
f 63//95 105//95 106//95
f 66//96 28//96 108//96
f 108//97 28//97 26//97
f 68//98 108//98 26//98
f 109//99 68//99 69//99
f 109//100 69//100 71//100
f 109//101 71//101 73//101
f 110//102 30//102 32//102
f 110//103 111//103 30//103
f 31//104 30//104 112//104
f 113//105 114//105 115//105
f 116//106 117//106 118//106
f 119//107 118//107 117//107
f 120//108 60//108 121//108
f 120//109 58//109 60//109
f 120//110 59//110 58//110
f 122//111 74//111 1//111
f 122//112 123//112 74//112
f 122//113 124//113 123//113
f 125//114 1//114 126//114
f 127//115 128//115 126//115
f 127//116 126//116 1//116
f 129//117 82//117 36//117
f 83//118 82//118 129//118
f 130//119 4//119 6//119
f 130//120 85//120 4//120
f 6//121 24//121 130//121
f 16//122 91//122 131//122
f 131//123 91//123 93//123
f 94//124 93//124 132//124
f 93//125 91//125 132//125
f 133//126 134//126 40//126
f 133//127 40//127 81//127
f 133//128 81//128 83//128
f 40//129 134//129 135//129
f 135//130 93//130 92//130
f 136//131 47//131 46//131
f 136//132 98//132 47//132
f 99//133 137//133 56//133
f 138//134 56//134 19//134
f 19//135 100//135 138//135
f 138//136 99//136 56//136
f 138//137 100//137 99//137
f 139//138 62//138 22//138
f 139//139 99//139 100//139
f 102//140 140//140 103//140
f 140//141 20//141 103//141
f 21//142 20//142 140//142
f 59//143 141//143 34//143
f 141//144 32//144 34//144
f 141//145 110//145 32//145
f 30//146 111//146 142//146
f 142//147 112//147 30//147
f 142//148 115//148 112//148
f 142//149 143//149 115//149
f 144//150 72//150 143//150
f 73//151 72//151 144//151
f 145//152 143//152 76//152
f 145//153 115//153 143//153
f 76//154 113//154 145//154
f 145//155 113//155 115//155
f 146//156 115//156 114//156
f 146//157 124//157 115//157
f 146//158 114//158 123//158
f 123//159 124//159 146//159
f 147//160 1//160 77//160
f 147//161 77//161 79//161
f 148//162 123//162 114//162
f 113//163 148//163 114//163
f 148//164 113//164 76//164
f 76//165 74//165 148//165
f 74//166 123//166 148//166
f 149//167 120//167 121//167
f 119//168 149//168 121//168
f 149//169 119//169 117//169
f 150//170 78//170 1//170
f 150//171 1//171 125//171
f 151//172 128//172 152//172
f 127//173 152//173 128//173
f 153//174 1//174 80//174
f 153//175 127//175 1//175
f 154//176 36//176 35//176
f 154//177 129//177 36//177
f 84//178 154//178 35//178
f 155//179 130//179 24//179
f 155//180 65//180 66//180
f 155//181 24//181 65//181
f 156//182 131//182 93//182
f 156//183 93//183 135//183
f 156//184 135//184 134//184
f 157//185 139//185 22//185
f 157//186 99//186 139//186
f 158//187 142//187 111//187
f 158//188 143//188 142//188
f 158//189 144//189 143//189
f 147//190 159//190 1//190
f 159//191 122//191 1//191
f 124//192 122//192 159//192
f 159//193 147//193 115//193
f 115//194 124//194 159//194
f 59//195 120//195 160//195
f 160//196 120//196 149//196
f 23//197 107//197 161//197
f 162//198 153//198 80//198
f 78//199 163//199 79//199
f 150//200 163//200 78//200
f 163//201 151//201 79//201
f 21//202 140//202 164//202
f 164//203 22//203 21//203
f 164//204 157//204 22//204
f 157//205 164//205 99//205
f 165//206 149//206 117//206
f 165//207 160//207 149//207
f 166//208 162//208 167//208
f 167//209 161//209 166//209
f 23//210 161//210 167//210
f 167//211 80//211 23//211
f 167//212 162//212 80//212
f 168//213 162//213 166//213
f 169//214 116//214 151//214
f 117//215 116//215 169//215
f 164//216 170//216 99//216
f 170//217 164//217 140//217
f 170//218 140//218 102//218
f 171//219 165//219 117//219
f 117//220 169//220 171//220
f 171//221 169//221 172//221
f 173//222 168//222 172//222
f 172//223 169//223 173//223
f 173//224 162//224 168//224
f 173//225 152//225 127//225
f 151//226 152//226 173//226
f 173//227 169//227 151//227
f 127//228 153//228 173//228
f 153//228 162//228 173//228
f 151//229 163//229 174//229
f 174//230 175//230 151//230
f 174//231 163//231 150//231
f 174//232 150//232 125//232
f 175//233 174//233 125//233
f 126//234 128//234 176//234
f 176//235 125//235 126//235
f 176//236 175//236 125//236
f 176//237 128//237 151//237
f 151//238 175//238 176//238
f 64//239 99//239 177//239
f 170//240 177//240 99//240
f 177//241 170//241 102//241
f 11//242 13//242 7//242
f 11//243 7//243 8//243
f 82//244 178//244 37//244
f 82//245 37//245 36//245
f 65//246 67//246 27//246
f 65//247 27//247 28//247
f 81//248 39//248 178//248
f 178//248 82//248 81//248
f 96//249 42//249 97//249
f 88//250 42//250 96//250
f 97//251 42//251 99//251
f 99//252 42//252 44//252
f 99//253 74//253 47//253
f 99//253 1//253 74//253
f 99//254 2//254 1//254
f 64//254 2//254 99//254
f 143//255 72//255 75//255
f 143//256 75//256 76//256
f 33//257 29//257 119//257
f 116//257 119//257 151//257
f 119//257 112//257 115//257
f 121//257 60//257 119//257
f 119//257 29//257 31//257
f 60//257 57//257 119//257
f 119//257 57//257 33//257
f 119//257 115//257 151//257
f 31//257 112//257 119//257
f 119//257 116//257 118//257
f 7//258 13//258 132//258
f 132//258 27//258 67//258
f 132//258 10//258 7//258
f 132//258 74//258 70//258
f 67//258 9//258 132//258
f 132//258 37//258 178//258
f 132//258 9//258 5//258
f 132//258 13//258 12//258
f 5//258 10//258 132//258
f 132//258 92//258 94//258
f 178//258 39//258 132//258
f 25//258 27//258 132//258
f 132//258 47//258 74//258
f 12//258 37//258 132//258
f 132//258 39//258 38//258
f 132//258 51//258 47//258
f 132//258 70//258 25//258
f 38//258 92//258 132//258
f 15//259 51//259 132//259
f 132//259 91//259 15//259
f 135//260 92//260 38//260
f 135//261 38//261 40//261
f 50//262 98//262 136//262
f 136//262 46//262 50//262
f 137//263 95//263 53//263
f 53//263 56//263 137//263
f 137//264 99//264 44//264
f 44//264 95//264 137//264
f 139//265 100//265 18//265
f 18//265 62//265 139//265
f 151//266 115//266 147//266
f 79//266 151//266 147//266
f 171//267 87//267 86//267
f 85//267 130//267 171//267
f 171//267 108//267 68//267
f 171//267 52//267 54//267
f 110//267 141//267 171//267
f 171//267 86//267 49//267
f 14//267 16//267 171//267
f 49//267 48//267 171//267
f 54//267 55//267 171//267
f 171//267 103//267 20//267
f 111//267 110//267 171//267
f 171//267 84//267 41//267
f 41//267 85//267 171//267
f 171//267 48//267 14//267
f 17//267 52//267 171//267
f 171//267 55//267 43//267
f 104//267 103//267 171//267
f 171//267 61//267 17//267
f 171//267 101//267 61//267
f 171//267 107//267 105//267
f 68//267 109//267 171//267
f 131//267 156//267 171//267
f 160//267 165//267 171//267
f 43//267 87//267 171//267
f 130//267 155//267 171//267
f 20//267 101//267 171//267
f 171//267 105//267 104//267
f 66//267 108//267 171//267
f 171//267 109//267 73//267
f 134//267 133//267 171//267
f 144//267 158//267 171//267
f 83//267 129//267 171//267
f 129//267 154//267 171//267
f 16//267 131//267 171//267
f 171//267 133//267 83//267
f 171//267 141//267 59//267
f 73//267 144//267 171//267
f 171//267 166//267 161//267
f 171//267 154//267 84//267
f 171//267 155//267 66//267
f 171//267 156//267 134//267
f 171//267 158//267 111//267
f 59//267 160//267 171//267
f 171//267 161//267 107//267
f 171//267 168//267 166//267
f 168//267 171//267 172//267
f 177//268 102//268 63//268
f 177//269 63//269 64//269
# Vertices: 178, normals: 269, texture coordinates: 0, faces: 352

