# File generated by ImageToStl.com - Free Image and 3D model conversion tools

o obj1
v 0.04124987 -0.02825682 0.072
v 0.03535534 -0.03535534 0.072
v 0.03535534 -0.03535534 0
v 0.02825682 -0.04124987 0
v 0.02825682 -0.04124987 0.072
v 0.01144753 -0.0486719 0.072
v 0.01144753 -0.0486719 0
v -0.00690782 -0.04952052 0.072
v -0.00690782 -0.04952052 0
v -0.02433022 -0.04368112 0.072
v -0.02433022 -0.04368112 0
v -0.0384667 -0.03194234 0.072
v -0.0384667 -0.03194234 0
v -0.04740803 -0.01588957 0.072
v -0.04740803 -0.01588957 0
v -0.04994665 0.00230917 0.072
v -0.04994665 0.00230917 0
v -0.04573969 0.02019605 0.072
v -0.04573969 0.02019605 0
v -0.03535534 0.03535534 0.072
v -0.03535534 0.03535534 0
v -0.02019605 0.04573969 0.072
v -0.02019605 0.04573969 0
v -0.00230917 0.04994665 0.072
v -0.00230917 0.04994665 0
v 0.01588957 0.04740803 0.072
v 0.01588957 0.04740803 0
v 0.03194234 0.0384667 0.072
v 0.03194234 0.0384667 0
v 0.04368112 0.02433022 0.072
v 0.04368112 0.02433022 0
v 0.04952052 0.00690782 0.072
v 0.04952052 0.00690782 0
v 0.0486719 -0.01144753 0.072
v 0.0486719 -0.01144753 0
v 0.04124987 -0.02825682 0
v 0 0 0.072
v -0.12374368 0.12374368 -0.31999999
v -0.12374368 0.12374368 0
v -0.09722479 0.14550719 0
v -0.09722479 0.14550719 -0.31999999
v -0.0669696 0.16167893 0
v -0.0669696 0.16167893 -0.31999999
v -0.03414081 0.17163743 0
v -0.03414081 0.17163743 -0.31999999
v 0 0.175 0
v 0 0.175 -0.31999999
v 0.03414081 0.17163743 0
v 0.03414081 0.17163743 -0.31999999
v 0.0669696 0.16167893 0
v 0.0669696 0.16167893 -0.31999999
v 0.09722479 0.14550719 0
v 0.09722479 0.14550719 -0.31999999
v 0.12374368 0.12374368 0
v 0.12374368 0.12374368 -0.31999999
v 0.14550719 0.09722479 0
v 0.14550719 0.09722479 -0.31999999
v 0.16167893 0.0669696 0
v 0.16167893 0.0669696 -0.31999999
v 0.17163743 0.03414081 0
v 0.17163743 0.03414081 -0.31999999
v 0.175 -0 0
v 0.175 -0 -0.31999999
v 0.17163743 -0.03414081 0
v 0.17163743 -0.03414081 -0.31999999
v 0.16167893 -0.0669696 0
v 0.16167893 -0.0669696 -0.31999999
v 0.14550719 -0.09722479 0
v 0.14550719 -0.09722479 -0.31999999
v 0.12374368 -0.12374368 0
v 0.12374368 -0.12374368 -0.31999999
v -0.00707107 -0.25455844 -0.31999999
v -0.00707107 -0.25455844 0
v 0.12374368 -0.12374368 0
v -0.25455844 -0.00707107 -0.31999999
v -0.25455844 -0.00707107 0
v -0.00707107 -0.25455844 0
v -0.12374368 0.12374368 0
v -0.25455844 -0.00707107 0
v 0 0.175 -0.31999999
v 0.175 -0 -0.31999999
v 0.175 -0 0
v 0 0.175 0
v 0.03899712 -0.00890084 0.152
v 0.0399218 -0.0025 0.152
v -0.0399218 -0.0025 0.152
v -0.03899712 -0.00890084 0.152
v -0.03678111 -0.015721 0.152
v -0.03338293 -0.02203588 0.152
v -0.0289118 -0.02764251 0.152
v -0.02351141 -0.03236068 0.152
v 0.03678111 -0.015721 0.152
v 0.03338293 -0.02203588 0.152
v -0.01735535 -0.03603876 0.152
v -0.01064147 -0.03855851 0.152
v -0.00358557 -0.03983897 0.152
v 0.00358557 -0.03983897 0.152
v 0.01064147 -0.03855851 0.152
v 0.01735535 -0.03603876 0.152
v 0.02351141 -0.03236068 0.152
v 0.0289118 -0.02764251 0.152
v -0.0399218 -0.0025 0.072
v 0.0399218 -0.0025 0.072
v 0.03899712 -0.00890084 0.072
v 0.03678111 -0.015721 0.072
v -0.02351141 -0.03236068 0.072
v -0.0289118 -0.02764251 0.072
v -0.03338293 -0.02203588 0.072
v -0.03678111 -0.015721 0.072
v -0.03899712 -0.00890084 0.072
v 0.03338293 -0.02203588 0.072
v 0.0289118 -0.02764251 0.072
v 0.02351141 -0.03236068 0.072
v 0.01735535 -0.03603876 0.072
v 0.01064147 -0.03855851 0.072
v 0.00358557 -0.03983897 0.072
v -0.00358557 -0.03983897 0.072
v -0.01064147 -0.03855851 0.072
v -0.01735535 -0.03603876 0.072
v -0.03993653 0.00225242 0.15091529
v -0.0399218 0.0025 0.152
v -0.03963799 0.00536933 0.152
v -0.03992706 -0.00241456 0.07264801
v 0.03993653 -0.00225242 0.15091529
v 0.03992706 0.00241456 0.07264801
v 0.0399218 0.0025 0.072
v 0.03963799 0.00536933 0.072
v 0.03963799 0.00536933 0.152
v 0.0399218 0.0025 0.152
v 0.03993653 0.00225242 0.15091529
v 0.03996962 0.00155872 0.15004542
v 0.03999613 0.0005563 0.14956269
v 0.03999476 0.00064726 0.07441476
v 0.04 0 0.0745
v 0.03999613 -0.0005563 0.14956269
v 0.03999475 -0.00064775 0.07441463
v 0.03998046 0.00125 0.07416506
v 0.03996092 0.00176772 0.07376781
v 0.03994136 0.00216506 0.07325
v 0.03996962 -0.00155872 0.15004542
v 0.03995972 -0.00179459 0.07374053
v 0.03998046 -0.00125 0.07416506
v 0.03995772 -0.00183856 0.15030597
v 0.03992703 -0.00241497 0.07264647
v 0.03994137 -0.00216503 0.07325006
v -0.03994136 -0.00216506 0.07325
v -0.03993653 -0.00225242 0.15091529
v -0.03995772 -0.00183856 0.15030597
v -0.03995972 -0.00179459 0.07374053
v -0.03996962 0.00155872 0.15004542
v -0.03996962 -0.00155872 0.15004542
v -0.03999613 -0.0005563 0.14956269
v -0.03998046 -0.00125 0.07416506
v -0.0399218 0.0025 0.072
v -0.03992703 0.00241497 0.07264647
v -0.03963799 0.00536933 0.072
v -0.03994136 0.00216506 0.07325
v -0.03999613 0.0005563 0.14956269
v -0.03996093 0.00176748 0.07376806
v -0.03998046 0.00125 0.07416506
v -0.03999475 0.00064775 0.07441463
v -0.04 -0 0.0745
v -0.03999476 -0.00064726 0.07441476
v -0.03804226 0.01236068 0.152
v -0.03804226 0.01236068 0.072
v -0.03522382 0.01895475 0.152
v -0.03522382 0.01895475 0.072
v -0.03127326 0.02493959 0.152
v -0.03127326 0.02493959 0.072
v -0.02631755 0.03012286 0.152
v -0.02631755 0.03012286 0.072
v -0.02051597 0.03433795 0.152
v -0.02051597 0.03433795 0.072
v -0.01405499 0.03744939 0.152
v -0.01405499 0.03744939 0.072
v -0.00714228 0.03935719 0.152
v -0.00714228 0.03935719 0.072
v -0 0.04 0.152
v -0 0.04 0.072
v 0.00714228 0.03935719 0.152
v 0.00714228 0.03935719 0.072
v 0.01405499 0.03744939 0.152
v 0.01405499 0.03744939 0.072
v 0.02051597 0.03433795 0.152
v 0.02051597 0.03433795 0.072
v 0.02631755 0.03012286 0.152
v 0.02631755 0.03012286 0.072
v 0.03127326 0.02493959 0.152
v 0.03127326 0.02493959 0.072
v 0.03522382 0.01895475 0.152
v 0.03522382 0.01895475 0.072
v 0.03804226 0.01236068 0.152
v 0.03804226 0.01236068 0.072
v -0.04 0 0.0745
v 0.04 0 0.0745
vn 0.76933 -0.63885 0
vn 0.63885 -0.76933 0
vn 0.40392 -0.91479 0
vn 0.04618 -0.99893 0
vn -0.31779 -0.94816 0
vn -0.63885 -0.76933 0
vn -0.87362 -0.4866 0
vn -0.99041 -0.13816 0
vn -0.97344 0.22895 0
vn -0.825 0.56514 0
vn -0.56514 0.825 0
vn -0.22895 0.97344 0
vn 0.13816 0.99041 -0
vn 0.4866 0.87362 -0
vn 0.76933 0.63885 -0
vn 0.94816 0.31779 -0
vn 0.99893 -0.04618 0
vn 0.91479 -0.40392 0
vn 0 -0 1
vn -0.63439 0.77301 0
vn -0.4714 0.88192 0
vn -0.29028 0.95694 0
vn -0.09802 0.99518 0
vn 0.09802 0.99518 -0
vn 0.29028 0.95694 -0
vn 0.4714 0.88192 -0
vn 0.63439 0.77301 -0
vn 0.77301 0.63439 -0
vn 0.88192 0.4714 -0
vn 0.95694 0.29028 -0
vn 0.99518 0.09802 -0
vn 0.99518 -0.09802 0
vn 0.95694 -0.29028 0
vn 0.88192 -0.4714 0
vn 0.77301 -0.63439 0
vn 0.70711 -0.70711 0
vn -0.70711 -0.70711 0
vn -0.70711 0.70711 0
vn -0 0 -1
vn -0.9951 0.09843 -0.00895
vn -0.98967 -0.14297 0.01082
vn 0.98954 -0.14295 -0.01919
vn 0.99513 0.09843 0.0049
vn 0.9951 0.09843 -0.00895
vn 0.99961 0.02783 -0.00289
vn 0.99997 0.00809 -1E-05
vn 1 0 5E-05
vn 0.99997 -0.0081 -1E-05
vn 0.99972 0.02372 1E-05
vn 0.99928 0.03783 0.00014
vn 0.99596 0.08978 0.00097
vn 0.99234 0.11322 0.0494
vn 0.99468 0.10134 0.01836
vn 0.99965 -0.02646 -5E-05
vn 0.99927 -0.03817 0.00014
vn 0.99972 -0.02373 1E-05
vn 0.98629 -0.15044 -0.06788
vn 0.98967 -0.14297 0.01079
vn 0.98869 -0.14542 0.03673
vn 0.98516 -0.15266 0.07843
vn -0.98869 -0.14542 0.03678
vn -0.98954 -0.14295 -0.01919
vn -0.98629 -0.15044 -0.06788
vn -0.99087 -0.13479 -5E-05
vn -0.99216 0.11336 -0.05266
vn -0.9991 -0.04247 0
vn -0.99965 -0.02646 -5E-05
vn -0.99927 -0.03817 0.00014
vn -0.99513 0.09843 0.00489
vn -0.99468 0.10133 0.01834
vn -0.99928 0.03782 0.00014
vn -0.99972 0.02373 1E-05
vn -0.99997 0.0081 -1E-05
vn -1 -0 5E-05
vn -0.99997 -0.00809 -1E-05
vn -0.99972 -0.02372 1E-05
vn -0.99961 0.02783 -0.00289
vn -0.9955 0.09475 0.00128
vn -0.99877 0.04959 0.00033
vn 0.9991 -0.04247 0
vn 0.99087 -0.13479 -5E-05
vn 0.99095 -0.13423 0
vn 0.95106 -0.30902 0
vn 0.8806 -0.47387 0
vn 0.78183 -0.62349 0
vn 0.65794 -0.75307 0
vn 0.5129 -0.85845 0
vn 0.35137 -0.93624 0
vn 0.17856 -0.98393 0
vn 0 -1 0
vn -0.17856 -0.98393 0
vn -0.35137 -0.93624 0
vn -0.5129 -0.85845 0
vn -0.65794 -0.75307 0
vn -0.78183 -0.62349 0
vn -0.8806 -0.47387 0
vn -0.95106 -0.30902 0
vn -0.99095 -0.13423 0
vn -0.98516 -0.15266 0.07842
vn -0.99623 0.0867 0
vn -0.97493 0.22252 0
vn -0.91953 0.39303 0
vn -0.83457 0.5509 0
vn -0.72279 0.69106 0
vn -0.58779 0.80902 0
vn -0.43388 0.90097 0
vn -0.26604 0.96396 0
vn -0.08964 0.99597 0
vn 0.08964 0.99597 0
vn 0.26604 0.96396 0
vn 0.43388 0.90097 0
vn 0.58779 0.80902 0
vn 0.72279 0.69106 0
vn 0.83457 0.5509 0
vn 0.91953 0.39303 0
vn 0.97493 0.22252 0
vn 0.99544 0.09534 0
vn 0.99875 0.0499 -0.00181
vn -0 0.92392 -0.38258
vn -0 0.99146 -0.13041
vn 0 0.99142 -0.13072
vn -0 0.9238 -0.38287
vn 0 0.79798 -0.60269
vn -0 0.79798 -0.60268
vn -0 0.61481 -0.78868
vn -0 0.38272 -0.92386
vn 0 0.38282 -0.92382
vn -0 0.13057 -0.99144
vn -0 0.13067 -0.99143
vn 0 -0.13067 -0.99143
vn 0 -0.13057 -0.99144
vn -0 -0.38282 -0.92382
vn 0 -0.38272 -0.92386
vn 0 -0.60875 -0.79336
vn -0 -0.6087 -0.7934
vn 0 -0.79335 -0.60877
vn 0 -0.99146 -0.13041
vn 0 -0.7933 -0.60883
vn 0 -0.92393 -0.38257
vn 0 -0.9238 -0.38287
vn -0 -0.99142 -0.13072
vn -0 0.97493 0.22252
vn 0.00106 0.8272 0.5619
vn -0.00205 0.6814 0.73191
vn -0 0.82722 0.56188
vn -0 0.43388 0.90097
vn -0 0.68145 0.73187
vn 0 -0.43388 0.90097
vn 0 -0.78183 0.62349
vn 0 -0.97493 0.22252
f 1//1 2//1 3//1
f 3//2 2//2 4//2
f 2//2 5//2 4//2
f 4//3 5//3 6//3
f 4//3 6//3 7//3
f 7//4 6//4 8//4
f 7//4 8//4 9//4
f 9//5 8//5 10//5
f 9//5 10//5 11//5
f 11//6 10//6 12//6
f 11//6 12//6 13//6
f 13//7 12//7 14//7
f 13//7 14//7 15//7
f 15//8 14//8 16//8
f 15//8 16//8 17//8
f 17//9 16//9 18//9
f 17//9 18//9 19//9
f 19//10 18//10 20//10
f 19//10 20//10 21//10
f 21//11 20//11 22//11
f 21//11 22//11 23//11
f 23//12 22//12 24//12
f 23//12 24//12 25//12
f 25//13 24//13 26//13
f 25//13 26//13 27//13
f 27//14 26//14 28//14
f 27//14 28//14 29//14
f 29//15 28//15 30//15
f 29//15 30//15 31//15
f 31//16 30//16 32//16
f 31//16 32//16 33//16
f 33//17 32//17 34//17
f 33//17 34//17 35//17
f 35//18 34//18 1//18
f 35//18 1//18 36//18
f 36//1 1//1 3//1
f 6//19 5//19 37//19
f 37//19 5//19 2//19
f 37//19 2//19 1//19
f 12//19 10//19 37//19
f 37//19 10//19 8//19
f 37//19 8//19 6//19
f 18//19 16//19 37//19
f 37//19 16//19 14//19
f 37//19 14//19 12//19
f 24//19 22//19 37//19
f 37//19 22//19 20//19
f 37//19 20//19 18//19
f 30//19 28//19 37//19
f 37//19 28//19 26//19
f 37//19 26//19 24//19
f 1//19 34//19 37//19
f 37//19 34//19 32//19
f 37//19 32//19 30//19
f 38//20 39//20 40//20
f 38//20 40//20 41//20
f 41//21 40//21 42//21
f 41//21 42//21 43//21
f 43//22 42//22 44//22
f 43//22 44//22 45//22
f 45//23 44//23 46//23
f 45//23 46//23 47//23
f 47//24 46//24 48//24
f 47//24 48//24 49//24
f 49//25 48//25 50//25
f 49//25 50//25 51//25
f 51//26 50//26 52//26
f 51//26 52//26 53//26
f 53//27 52//27 54//27
f 53//27 54//27 55//27
f 55//28 54//28 56//28
f 55//28 56//28 57//28
f 57//29 56//29 58//29
f 57//29 58//29 59//29
f 59//30 58//30 60//30
f 59//30 60//30 61//30
f 61//31 60//31 62//31
f 61//31 62//31 63//31
f 63//32 62//32 64//32
f 63//32 64//32 65//32
f 65//33 64//33 66//33
f 65//33 66//33 67//33
f 67//34 66//34 68//34
f 67//34 68//34 69//34
f 69//35 68//35 70//35
f 69//35 70//35 71//35
f 72//36 71//36 73//36
f 73//36 71//36 74//36
f 75//37 72//37 76//37
f 76//37 72//37 77//37
f 38//38 75//38 78//38
f 78//38 75//38 79//38
f 65//39 67//39 38//39
f 72//39 75//39 71//39
f 71//39 75//39 38//39
f 71//39 38//39 69//39
f 69//39 38//39 67//39
f 41//39 55//39 38//39
f 38//39 55//39 57//39
f 38//39 57//39 59//39
f 41//39 43//39 55//39
f 55//39 43//39 45//39
f 55//39 45//39 80//39
f 59//39 61//39 38//39
f 38//39 61//39 81//39
f 38//39 81//39 65//39
f 80//39 49//39 55//39
f 55//39 49//39 51//39
f 55//39 51//39 53//39
f 33//19 58//19 31//19
f 31//19 58//19 56//19
f 31//19 56//19 29//19
f 35//19 82//19 33//19
f 33//19 82//19 60//19
f 33//19 60//19 58//19
f 13//19 76//19 11//19
f 11//19 76//19 77//19
f 11//19 77//19 9//19
f 13//19 15//19 76//19
f 76//19 15//19 17//19
f 76//19 17//19 39//19
f 17//19 19//19 39//19
f 39//19 19//19 21//19
f 39//19 21//19 40//19
f 40//19 21//19 23//19
f 25//19 44//19 23//19
f 23//19 44//19 42//19
f 23//19 42//19 40//19
f 27//19 48//19 25//19
f 25//19 48//19 83//19
f 25//19 83//19 44//19
f 56//19 54//19 29//19
f 29//19 54//19 52//19
f 29//19 52//19 27//19
f 27//19 52//19 50//19
f 27//19 50//19 48//19
f 70//19 68//19 36//19
f 36//19 68//19 66//19
f 36//19 66//19 35//19
f 35//19 66//19 64//19
f 35//19 64//19 82//19
f 36//19 3//19 70//19
f 70//19 3//19 4//19
f 70//19 4//19 77//19
f 77//19 4//19 7//19
f 77//19 7//19 9//19
f 84//19 85//19 86//19
f 86//19 87//19 84//19
f 84//19 87//19 88//19
f 84//19 88//19 89//19
f 89//19 90//19 84//19
f 84//19 90//19 91//19
f 84//19 91//19 92//19
f 92//19 91//19 93//19
f 93//19 91//19 94//19
f 93//19 94//19 95//19
f 95//19 96//19 93//19
f 93//19 96//19 97//19
f 93//19 97//19 98//19
f 98//19 99//19 93//19
f 93//19 99//19 100//19
f 93//19 100//19 101//19
f 102//39 103//39 104//39
f 105//39 106//39 104//39
f 104//39 106//39 107//39
f 104//39 107//39 108//39
f 108//39 109//39 104//39
f 104//39 109//39 110//39
f 104//39 110//39 102//39
f 105//39 111//39 106//39
f 106//39 111//39 112//39
f 106//39 112//39 113//39
f 113//39 114//39 106//39
f 106//39 114//39 115//39
f 106//39 115//39 116//39
f 116//39 117//39 106//39
f 106//39 117//39 118//39
f 106//39 118//39 119//39
f 120//40 121//40 122//40
f 123//41 102//41 110//41
f 124//42 85//42 84//42
f 125//43 126//43 127//43
f 128//44 129//44 130//44
f 131//45 132//45 127//45
f 133//46 132//46 134//46
f 134//47 132//47 135//47
f 134//48 135//48 136//48
f 133//49 137//49 132//49
f 132//50 137//50 138//50
f 132//51 138//51 127//51
f 127//52 138//52 139//52
f 127//53 139//53 125//53
f 140//54 141//54 135//54
f 135//55 141//55 142//55
f 135//56 142//56 136//56
f 124//57 84//57 143//57
f 103//58 144//58 104//58
f 104//59 144//59 145//59
f 104//60 145//60 141//60
f 123//61 110//61 146//61
f 86//62 147//62 87//62
f 87//63 147//63 148//63
f 87//64 148//64 149//64
f 120//65 122//65 150//65
f 148//66 151//66 149//66
f 149//67 151//67 152//67
f 149//68 152//68 153//68
f 154//69 155//69 156//69
f 156//70 155//70 157//70
f 158//71 159//71 160//71
f 160//72 161//72 158//72
f 158//73 161//73 162//73
f 158//74 162//74 152//74
f 152//75 162//75 163//75
f 152//76 163//76 153//76
f 150//77 156//77 158//77
f 158//78 156//78 157//78
f 158//79 157//79 159//79
f 140//80 143//80 141//80
f 141//81 143//81 84//81
f 141//82 84//82 104//82
f 104//83 84//83 92//83
f 104//83 92//83 105//83
f 105//84 92//84 93//84
f 105//84 93//84 111//84
f 111//85 93//85 101//85
f 111//85 101//85 112//85
f 112//86 101//86 100//86
f 112//86 100//86 113//86
f 113//87 100//87 99//87
f 113//87 99//87 114//87
f 114//88 99//88 98//88
f 114//88 98//88 115//88
f 115//89 98//89 97//89
f 115//89 97//89 116//89
f 116//90 97//90 96//90
f 116//90 96//90 117//90
f 117//91 96//91 95//91
f 117//91 95//91 118//91
f 118//92 95//92 94//92
f 118//92 94//92 119//92
f 119//93 94//93 91//93
f 119//93 91//93 106//93
f 106//94 91//94 90//94
f 106//94 90//94 107//94
f 107//95 90//95 89//95
f 107//95 89//95 108//95
f 108//96 89//96 88//96
f 108//96 88//96 109//96
f 109//97 88//97 87//97
f 109//97 87//97 110//97
f 110//98 87//98 149//98
f 110//99 149//99 146//99
f 150//100 122//100 156//100
f 156//101 122//101 164//101
f 156//101 164//101 165//101
f 165//102 164//102 166//102
f 165//102 166//102 167//102
f 167//103 166//103 168//103
f 167//103 168//103 169//103
f 169//104 168//104 170//104
f 169//104 170//104 171//104
f 171//105 170//105 172//105
f 171//105 172//105 173//105
f 173//106 172//106 174//106
f 173//106 174//106 175//106
f 175//107 174//107 176//107
f 175//107 176//107 177//107
f 177//108 176//108 178//108
f 177//108 178//108 179//108
f 179//109 178//109 180//109
f 179//109 180//109 181//109
f 181//110 180//110 182//110
f 181//110 182//110 183//110
f 183//111 182//111 184//111
f 183//111 184//111 185//111
f 185//112 184//112 186//112
f 185//112 186//112 187//112
f 187//113 186//113 188//113
f 187//113 188//113 189//113
f 189//114 188//114 190//114
f 189//114 190//114 191//114
f 191//115 190//115 192//115
f 191//115 192//115 193//115
f 193//116 192//116 128//116
f 193//116 128//116 127//116
f 127//117 128//117 130//117
f 127//118 130//118 131//118
f 192//19 122//19 128//19
f 128//19 122//19 121//19
f 128//19 121//19 129//19
f 192//19 190//19 122//19
f 122//19 190//19 188//19
f 122//19 188//19 186//19
f 122//19 180//19 178//19
f 186//19 184//19 122//19
f 122//19 184//19 182//19
f 122//19 182//19 180//19
f 178//19 176//19 122//19
f 122//19 176//19 174//19
f 122//19 174//19 164//19
f 164//19 174//19 172//19
f 172//19 170//19 164//19
f 164//19 170//19 168//19
f 164//19 168//19 166//19
f 127//39 126//39 154//39
f 154//39 156//39 127//39
f 127//39 156//39 165//39
f 127//39 165//39 167//39
f 173//39 175//39 127//39
f 127//39 175//39 177//39
f 167//39 169//39 127//39
f 127//39 169//39 171//39
f 127//39 171//39 173//39
f 191//39 193//39 181//39
f 181//39 193//39 127//39
f 181//39 127//39 179//39
f 179//39 127//39 177//39
f 183//39 185//39 187//39
f 183//39 187//39 181//39
f 181//39 187//39 189//39
f 181//39 189//39 191//39
f 146//119 145//119 144//119
f 103//120 102//120 144//120
f 144//121 102//121 123//121
f 144//122 123//122 146//122
f 145//123 146//123 141//123
f 141//124 146//124 149//124
f 141//125 149//125 142//125
f 149//125 153//125 142//125
f 142//126 153//126 163//126
f 142//127 163//127 136//127
f 136//128 163//128 194//128
f 136//129 194//129 195//129
f 195//130 194//130 161//130
f 195//131 161//131 133//131
f 133//132 161//132 160//132
f 133//133 160//133 137//133
f 137//134 160//134 138//134
f 138//135 160//135 159//135
f 138//136 159//136 139//136
f 155//137 154//137 126//137
f 159//138 157//138 139//138
f 139//139 157//139 155//139
f 139//140 155//140 125//140
f 125//141 155//141 126//141
f 85//142 124//142 86//142
f 86//142 124//142 147//142
f 143//143 151//143 124//143
f 124//144 151//144 148//144
f 124//145 148//145 147//145
f 158//19 152//19 135//19
f 135//146 152//146 151//146
f 135//146 151//146 140//146
f 140//147 151//147 143//147
f 135//19 132//19 158//19
f 158//148 132//148 131//148
f 158//148 131//148 150//148
f 150//149 131//149 130//149
f 150//149 130//149 120//149
f 120//150 130//150 129//150
f 120//150 129//150 121//150
# Vertices: 195, normals: 150, texture coordinates: 0, faces: 362

