# File generated by ImageToStl.com - Free Image and 3D model conversion tools

o obj1
v 0.08 0.03899712 -0.00890084
v 0.08 0.0399218 -0.0025
v 0.08 -0.0399218 -0.0025
v 0.08 -0.03899712 -0.00890084
v 0.08 -0.03678111 -0.015721
v 0.08 -0.03338293 -0.02203588
v 0.08 -0.0289118 -0.02764251
v 0.08 -0.02351141 -0.03236068
v 0.08 0.03678111 -0.015721
v 0.08 0.03338293 -0.02203588
v 0.08 -0.01735535 -0.03603876
v 0.08 -0.01064147 -0.03855851
v 0.08 -0.00358557 -0.03983897
v 0.08 0.00358557 -0.03983897
v 0.08 0.01064147 -0.03855851
v 0.08 0.01735535 -0.03603876
v 0.08 0.02351141 -0.03236068
v 0.08 0.0289118 -0.02764251
v -0 -0.0399218 -0.0025
v -0 0.0399218 -0.0025
v -0 0.03899712 -0.00890084
v -0 0.03678111 -0.015721
v -0 -0.02351141 -0.03236068
v -0 -0.0289118 -0.02764251
v -0 -0.03338293 -0.02203588
v -0 -0.03678111 -0.015721
v -0 -0.03899712 -0.00890084
v -0 0.03338293 -0.02203588
v -0 0.0289118 -0.02764251
v -0 0.02351141 -0.03236068
v -0 0.01735535 -0.03603876
v -0 0.01064147 -0.03855851
v -0 0.00358557 -0.03983897
v -0 -0.00358557 -0.03983897
v -0 -0.01064147 -0.03855851
v -0 -0.01735535 -0.03603876
v 0.07891529 -0.03993653 0.00225242
v 0.08 -0.0399218 0.0025
v 0.08 -0.03963799 0.00536933
v 0.00064801 -0.03992706 -0.00241456
v 0.07891529 0.03993653 -0.00225242
v 0.00064801 0.03992706 0.00241456
v -0 0.0399218 0.0025
v -0 0.03963799 0.00536933
v 0.08 0.03963799 0.00536933
v 0.08 0.0399218 0.0025
v 0.07891529 0.03993653 0.00225242
v 0.07804542 0.03996962 0.00155872
v 0.07756268 0.03999613 0.0005563
v 0.00241476 0.03999476 0.00064726
v 0.0025 0.04 0
v 0.07756268 0.03999613 -0.0005563
v 0.00241463 0.03999475 -0.00064775
v 0.00216506 0.03998046 0.00125
v 0.00176781 0.03996092 0.00176772
v 0.00125 0.03994136 0.00216506
v 0.07804542 0.03996962 -0.00155872
v 0.00174053 0.03995972 -0.00179459
v 0.00216506 0.03998046 -0.00125
v 0.07830597 0.03995772 -0.00183856
v 0.00064647 0.03992703 -0.00241497
v 0.00125006 0.03994137 -0.00216503
v 0.00125 -0.03994136 -0.00216506
v 0.07891529 -0.03993653 -0.00225242
v 0.07830597 -0.03995772 -0.00183856
v 0.00174053 -0.03995972 -0.00179459
v 0.07804542 -0.03996962 0.00155872
v 0.07804542 -0.03996962 -0.00155872
v 0.07756268 -0.03999613 -0.0005563
v 0.00216506 -0.03998046 -0.00125
v -0 -0.0399218 0.0025
v 0.00064647 -0.03992703 0.00241497
v -0 -0.03963799 0.00536933
v 0.00125 -0.03994136 0.00216506
v 0.07756268 -0.03999613 0.0005563
v 0.00176805 -0.03996093 0.00176748
v 0.00216506 -0.03998046 0.00125
v 0.00241463 -0.03999475 0.00064775
v 0.0025 -0.04 0
v 0.00241476 -0.03999476 -0.00064726
v 0.08 -0.03804226 0.01236068
v -0 -0.03804226 0.01236068
v 0.08 -0.03522382 0.01895475
v -0 -0.03522382 0.01895475
v 0.08 -0.03127326 0.02493959
v -0 -0.03127326 0.02493959
v 0.08 -0.02631755 0.03012286
v -0 -0.02631755 0.03012286
v 0.08 -0.02051597 0.03433795
v -0 -0.02051597 0.03433795
v 0.08 -0.01405499 0.03744939
v -0 -0.01405499 0.03744939
v 0.08 -0.00714228 0.03935719
v -0 -0.00714228 0.03935719
v 0.08 0 0.04
v -0 0 0.04
v 0.08 0.00714228 0.03935719
v -0 0.00714228 0.03935719
v 0.08 0.01405499 0.03744939
v -0 0.01405499 0.03744939
v 0.08 0.02051597 0.03433795
v -0 0.02051597 0.03433795
v 0.08 0.02631755 0.03012286
v -0 0.02631755 0.03012286
v 0.08 0.03127326 0.02493959
v -0 0.03127326 0.02493959
v 0.08 0.03522382 0.01895475
v -0 0.03522382 0.01895475
v 0.08 0.03804226 0.01236068
v -0 0.03804226 0.01236068
v 0.0025 -0.04 0
v 0.0025 0.04 0
vn 1 0 0
vn -1 -0 -0
vn -0.00895 -0.9951 0.09843
vn 0.01082 -0.98967 -0.14297
vn -0.01919 0.98954 -0.14295
vn 0.0049 0.99513 0.09843
vn -0.00895 0.9951 0.09843
vn -0.00289 0.99961 0.02783
vn -1E-05 0.99997 0.00809
vn 5E-05 1 -0
vn -1E-05 0.99997 -0.0081
vn 1E-05 0.99972 0.02372
vn 0.00014 0.99928 0.03783
vn 0.00097 0.99596 0.08978
vn 0.0494 0.99234 0.11322
vn 0.01836 0.99468 0.10134
vn -5E-05 0.99965 -0.02646
vn 0.00014 0.99927 -0.03817
vn 1E-05 0.99972 -0.02373
vn -0.06788 0.98629 -0.15044
vn 0.01079 0.98967 -0.14297
vn 0.03673 0.98869 -0.14542
vn 0.07843 0.98516 -0.15266
vn 0.03678 -0.98869 -0.14542
vn -0.01919 -0.98954 -0.14295
vn -0.06788 -0.98629 -0.15044
vn -5E-05 -0.99087 -0.13479
vn -0.05266 -0.99216 0.11336
vn 0 -0.9991 -0.04247
vn -5E-05 -0.99965 -0.02646
vn 0.00014 -0.99927 -0.03817
vn 0.00489 -0.99513 0.09843
vn 0.01834 -0.99468 0.10133
vn 0.00014 -0.99928 0.03782
vn 1E-05 -0.99972 0.02373
vn -1E-05 -0.99997 0.0081
vn 5E-05 -1 0
vn -1E-05 -0.99997 -0.00809
vn 1E-05 -0.99972 -0.02372
vn -0.00289 -0.99961 0.02783
vn 0.00128 -0.9955 0.09475
vn 0.00033 -0.99877 0.04959
vn 0 0.9991 -0.04247
vn -5E-05 0.99087 -0.13479
vn -0 0.99095 -0.13423
vn -0 0.95106 -0.30902
vn -0 0.8806 -0.47387
vn -0 0.78183 -0.62349
vn -0 0.65794 -0.75307
vn -0 0.5129 -0.85845
vn -0 0.35137 -0.93624
vn -0 0.17856 -0.98393
vn 0 -0 -1
vn 0 -0.17856 -0.98393
vn 0 -0.35137 -0.93624
vn 0 -0.5129 -0.85845
vn 0 -0.65794 -0.75307
vn 0 -0.78183 -0.62349
vn 0 -0.8806 -0.47387
vn 0 -0.95106 -0.30902
vn 0 -0.99095 -0.13423
vn 0.07842 -0.98516 -0.15266
vn 0 -0.99623 0.0867
vn 0 -0.97493 0.22252
vn 0 -0.91953 0.39303
vn 0 -0.83457 0.5509
vn 0 -0.72279 0.69106
vn 0 -0.58779 0.80902
vn 0 -0.43388 0.90097
vn 0 -0.26604 0.96396
vn 0 -0.08964 0.99597
vn -0 0.08964 0.99597
vn -0 0.26604 0.96396
vn -0 0.43388 0.90097
vn -0 0.58779 0.80902
vn -0 0.72279 0.69106
vn -0 0.83457 0.5509
vn -0 0.91953 0.39303
vn -0 0.97493 0.22252
vn -0 0.99544 0.09534
vn -0.00181 0.99875 0.0499
vn -0.38258 -0 0.92392
vn -0.13041 0 0.99146
vn -0.13072 0 0.99142
vn -0.38287 -0 0.9238
vn -0.60269 0 0.79798
vn -0.60268 0 0.79798
vn -0.78868 0 0.61481
vn -0.92386 0 0.38272
vn -0.92382 0 0.38282
vn -0.99144 -0 0.13057
vn -0.99143 0 0.13067
vn -0.99143 -0 -0.13067
vn -0.99144 0 -0.13057
vn -0.92382 -0 -0.38282
vn -0.92386 -0 -0.38272
vn -0.79336 -0 -0.60875
vn -0.7934 -0 -0.6087
vn -0.60877 0 -0.79335
vn -0.13041 -0 -0.99146
vn -0.60883 -0 -0.7933
vn -0.38257 -0 -0.92393
vn -0.38287 0 -0.9238
vn -0.13072 -0 -0.99142
vn 0.22252 0 0.97493
vn 0.5619 0.00106 0.8272
vn 0.73191 -0.00205 0.6814
vn 0.56188 0 0.82722
vn 0.90097 0 0.43388
vn 0.73187 0 0.68145
vn 0.90097 -0 -0.43388
vn 0.62349 -0 -0.78183
vn 0.22252 -0 -0.97493
f 1//1 2//1 3//1
f 3//1 4//1 1//1
f 1//1 4//1 5//1
f 1//1 5//1 6//1
f 6//1 7//1 1//1
f 1//1 7//1 8//1
f 1//1 8//1 9//1
f 9//1 8//1 10//1
f 10//1 8//1 11//1
f 10//1 11//1 12//1
f 12//1 13//1 10//1
f 10//1 13//1 14//1
f 10//1 14//1 15//1
f 15//1 16//1 10//1
f 10//1 16//1 17//1
f 10//1 17//1 18//1
f 19//2 20//2 21//2
f 22//2 23//2 21//2
f 21//2 23//2 24//2
f 21//2 24//2 25//2
f 25//2 26//2 21//2
f 21//2 26//2 27//2
f 21//2 27//2 19//2
f 22//2 28//2 23//2
f 23//2 28//2 29//2
f 23//2 29//2 30//2
f 30//2 31//2 23//2
f 23//2 31//2 32//2
f 23//2 32//2 33//2
f 33//2 34//2 23//2
f 23//2 34//2 35//2
f 23//2 35//2 36//2
f 37//3 38//3 39//3
f 40//4 19//4 27//4
f 41//5 2//5 1//5
f 42//6 43//6 44//6
f 45//7 46//7 47//7
f 48//8 49//8 44//8
f 50//9 49//9 51//9
f 51//10 49//10 52//10
f 51//11 52//11 53//11
f 50//12 54//12 49//12
f 49//13 54//13 55//13
f 49//14 55//14 44//14
f 44//15 55//15 56//15
f 44//16 56//16 42//16
f 57//17 58//17 52//17
f 52//18 58//18 59//18
f 52//19 59//19 53//19
f 41//20 1//20 60//20
f 20//21 61//21 21//21
f 21//22 61//22 62//22
f 21//23 62//23 58//23
f 40//24 27//24 63//24
f 3//25 64//25 4//25
f 4//26 64//26 65//26
f 4//27 65//27 66//27
f 37//28 39//28 67//28
f 65//29 68//29 66//29
f 66//30 68//30 69//30
f 66//31 69//31 70//31
f 71//32 72//32 73//32
f 73//33 72//33 74//33
f 75//34 76//34 77//34
f 77//35 78//35 75//35
f 75//36 78//36 79//36
f 75//37 79//37 69//37
f 69//38 79//38 80//38
f 69//39 80//39 70//39
f 67//40 73//40 75//40
f 75//41 73//41 74//41
f 75//42 74//42 76//42
f 57//43 60//43 58//43
f 58//44 60//44 1//44
f 58//45 1//45 21//45
f 21//46 1//46 9//46
f 21//46 9//46 22//46
f 22//47 9//47 10//47
f 22//47 10//47 28//47
f 28//48 10//48 18//48
f 28//48 18//48 29//48
f 29//49 18//49 17//49
f 29//49 17//49 30//49
f 30//50 17//50 16//50
f 30//50 16//50 31//50
f 31//51 16//51 15//51
f 31//51 15//51 32//51
f 32//52 15//52 14//52
f 32//52 14//52 33//52
f 33//53 14//53 13//53
f 33//53 13//53 34//53
f 34//54 13//54 12//54
f 34//54 12//54 35//54
f 35//55 12//55 11//55
f 35//55 11//55 36//55
f 36//56 11//56 8//56
f 36//56 8//56 23//56
f 23//57 8//57 7//57
f 23//57 7//57 24//57
f 24//58 7//58 6//58
f 24//58 6//58 25//58
f 25//59 6//59 5//59
f 25//59 5//59 26//59
f 26//60 5//60 4//60
f 26//60 4//60 27//60
f 27//61 4//61 66//61
f 27//62 66//62 63//62
f 67//63 39//63 73//63
f 73//64 39//64 81//64
f 73//64 81//64 82//64
f 82//65 81//65 83//65
f 82//65 83//65 84//65
f 84//66 83//66 85//66
f 84//66 85//66 86//66
f 86//67 85//67 87//67
f 86//67 87//67 88//67
f 88//68 87//68 89//68
f 88//68 89//68 90//68
f 90//69 89//69 91//69
f 90//69 91//69 92//69
f 92//70 91//70 93//70
f 92//70 93//70 94//70
f 94//71 93//71 95//71
f 94//71 95//71 96//71
f 96//72 95//72 97//72
f 96//72 97//72 98//72
f 98//73 97//73 99//73
f 98//73 99//73 100//73
f 100//74 99//74 101//74
f 100//74 101//74 102//74
f 102//75 101//75 103//75
f 102//75 103//75 104//75
f 104//76 103//76 105//76
f 104//76 105//76 106//76
f 106//77 105//77 107//77
f 106//77 107//77 108//77
f 108//78 107//78 109//78
f 108//78 109//78 110//78
f 110//79 109//79 45//79
f 110//79 45//79 44//79
f 44//80 45//80 47//80
f 44//81 47//81 48//81
f 109//1 39//1 45//1
f 45//1 39//1 38//1
f 45//1 38//1 46//1
f 109//1 107//1 39//1
f 39//1 107//1 105//1
f 39//1 105//1 103//1
f 39//1 97//1 95//1
f 103//1 101//1 39//1
f 39//1 101//1 99//1
f 39//1 99//1 97//1
f 95//1 93//1 39//1
f 39//1 93//1 91//1
f 39//1 91//1 81//1
f 81//1 91//1 89//1
f 89//1 87//1 81//1
f 81//1 87//1 85//1
f 81//1 85//1 83//1
f 44//2 43//2 71//2
f 71//2 73//2 44//2
f 44//2 73//2 82//2
f 44//2 82//2 84//2
f 90//2 92//2 44//2
f 44//2 92//2 94//2
f 84//2 86//2 44//2
f 44//2 86//2 88//2
f 44//2 88//2 90//2
f 108//2 110//2 98//2
f 98//2 110//2 44//2
f 98//2 44//2 96//2
f 96//2 44//2 94//2
f 100//2 102//2 104//2
f 100//2 104//2 98//2
f 98//2 104//2 106//2
f 98//2 106//2 108//2
f 63//82 62//82 61//82
f 20//83 19//83 61//83
f 61//84 19//84 40//84
f 61//85 40//85 63//85
f 62//86 63//86 58//86
f 58//87 63//87 66//87
f 58//88 66//88 59//88
f 66//88 70//88 59//88
f 59//89 70//89 80//89
f 59//90 80//90 53//90
f 53//91 80//91 111//91
f 53//92 111//92 112//92
f 112//93 111//93 78//93
f 112//94 78//94 50//94
f 50//95 78//95 77//95
f 50//96 77//96 54//96
f 54//97 77//97 55//97
f 55//98 77//98 76//98
f 55//99 76//99 56//99
f 72//100 71//100 43//100
f 76//101 74//101 56//101
f 56//102 74//102 72//102
f 56//103 72//103 42//103
f 42//104 72//104 43//104
f 2//105 41//105 3//105
f 3//105 41//105 64//105
f 60//106 68//106 41//106
f 41//107 68//107 65//107
f 41//108 65//108 64//108
f 75//1 69//1 52//1
f 52//109 69//109 68//109
f 52//109 68//109 57//109
f 57//110 68//110 60//110
f 52//1 49//1 75//1
f 75//111 49//111 48//111
f 75//111 48//111 67//111
f 67//112 48//112 47//112
f 67//112 47//112 37//112
f 37//113 47//113 46//113
f 37//113 46//113 38//113
# Vertices: 112, normals: 113, texture coordinates: 0, faces: 216

