# File generated by ImageToStl.com - Free Image and 3D model conversion tools

o obj1
v -0 -0.002 0.00458258
v -0 -0.002 -0.00458258
v -0 -0.00216942 0.00450484
v -0 -0.0025645 -0.00429224
v -0 -0.00293893 0.00404509
v -0 -0.00361397 0.00345531
v -0 -0.00390916 -0.00311745
v -0 -0.00440298 -0.00236934
v -0 -0.00475528 -0.00154508
v -0 -0.00495475 -0.00067117
v -0 -0.00499497 0.00022432
v -0 -0.00487464 0.0011126
v -0 -0.00328969 -0.00376536
v -0 -0.00459764 0.00196513
v -0 -0.00417287 0.00275449
v 0.07 -0.002 -0.00458258
v 0.07 -0.002 0.00458258
v 0.07 -0.00216942 0.00450484
v 0.07 -0.00361397 0.00345531
v 0.07 -0.00417287 0.00275449
v 0.07 -0.0025645 -0.00429224
v 0.07 -0.00293893 0.00404509
v 0.07 -0.00459764 0.00196513
v 0.07 -0.00487464 0.0011126
v 0.07 -0.00499497 0.00022432
v 0.07 -0.00495475 -0.00067117
v 0.07 -0.00475528 -0.00154508
v 0.07 -0.00328969 -0.00376536
v 0.07 -0.00440298 -0.00236934
v 0.07 -0.00390916 -0.00311745
v 0.06971446 -0.00197951 -0.00459146
v 0.00028554 -0.00197951 0.00459146
v 0.00197964 -0.00028463 0.00499189
v 0.00194913 -0.0004482 0.00497987
v 0.06805132 -0.00045014 0.0049797
v 0.06971446 0.00197951 0.00459146
v 0.07 0.002 0.00458258
v 0.07 0.00216942 0.00450484
v 0.06916954 0.00181944 0.00465721
v 0.06943654 0.00191899 0.00461709
v -0 0.00216942 0.00450484
v -0 0.002 0.00458258
v 0.00028555 0.00197951 0.00459146
v 0.00056346 0.00191899 0.00461709
v 0.00083239 0.00181855 0.00465756
v 0.06891872 0.00168251 0.00470841
v 0.00108128 0.00168251 0.00470841
v 0.06850648 0.00133018 0.00481981
v 0.06870062 0.0015204 0.00476323
v 0.06805087 0.0004482 0.00497987
v 0.06810598 0.00064241 0.00495856
v 0.00149239 0.00133145 0.00481946
v 0.06818073 0.00083083 0.00493049
v 0.06831762 0.00108149 0.00488164
v 0.0015115 0.00130972 0.00482542
v 0.00168261 0.00108113 0.00488172
v 0.00181927 0.00083083 0.00493049
v 0.0013003 0.00151961 0.00476348
v 0.06848853 0.00130975 0.00482541
v 0.00189345 0.00064409 0.00495834
v 0.00194868 0.00045014 0.0049797
v 0.06802036 0.00028463 0.00499189
v 0.068 -1.32E-06 0.005
v 0.00197964 0.00028463 0.00499189
v 0.002 1.32E-06 0.005
v 0.06802036 -0.00028463 0.00499189
v 0.00181927 -0.00083083 0.00493049
v 0.00168238 -0.00108149 0.00488164
v 0.06850761 -0.00133145 0.00481946
v 0.00189402 -0.00064241 0.00495856
v 0.0684885 -0.00130972 0.00482542
v 0.06831739 -0.00108113 0.00488172
v 0.06818073 -0.00083083 0.00493049
v 0.06810655 -0.00064409 0.00495834
v 0.00056346 -0.00191899 0.00461709
v 0.00083046 -0.00181944 0.00465721
v 0.06971445 -0.00197951 0.00459146
v 0.06943654 -0.00191899 0.00461709
v 0.06916761 -0.00181855 0.00465756
v 0.00108128 -0.00168251 0.00470841
v 0.06891872 -0.00168251 0.00470841
v 0.00149352 -0.00133018 0.00481981
v 0.00129938 -0.0015204 0.00476323
v 0.00151147 -0.00130975 0.00482541
v 0.0686997 -0.00151961 0.00476348
v 0.06943654 -0.00191899 -0.00461709
v 0.0684885 -0.00130972 -0.00482542
v 0.06869042 -0.00151162 -0.00476603
v 0.00094353 -0.00176345 -0.0046787
v 0.06833624 -0.00110991 -0.00487525
v 0.06821033 -0.00089278 -0.00491965
v 0.00108128 -0.00168251 -0.00470841
v 0.00131064 -0.0015107 -0.00476632
v 0.0015115 -0.00130972 -0.00482542
v 0.00166368 -0.00111004 -0.00487523
v 0.00178866 -0.00089481 -0.00491928
v 0.00028555 -0.00197951 -0.00459146
v 0.00056346 -0.00191899 -0.00461709
v 0.06923606 -0.00184835 -0.00464582
v 0.00076511 -0.00184787 -0.00464601
v 0.06904428 -0.00175687 -0.00468117
v 0.06891872 -0.00168251 -0.00470841
v 0.00181927 -0.00083083 -0.00493049
v 0.00191855 -0.00056494 -0.00496798
v 0.00197964 -0.00028463 -0.00499189
v 0.06802036 -0.00028463 -0.00499189
v 0.06808097 -0.0005633 -0.00496817
v 0.06818081 -0.00083101 -0.00493046
v 0.00178967 0.00089278 -0.00491965
v 0.06821134 0.00089481 -0.00491928
v 0.06818073 0.00083083 -0.00493049
v 0.06808145 0.00056494 -0.00496798
v 0.06802036 0.00028463 -0.00499189
v 0.00181919 0.00083101 -0.00493046
v 0.00191903 0.0005633 -0.00496817
v 0.068 -0 -0.005
v 0.002 -0 -0.005
v 0.00197964 0.00028463 -0.00499189
v 0.0015115 0.00130972 -0.00482542
v 0.00130958 0.00151162 -0.00476603
v 0.06905647 0.00176345 -0.0046787
v 0.00166376 0.00110991 -0.00487525
v 0.06891872 0.00168251 -0.00470841
v 0.06868936 0.0015107 -0.00476632
v 0.0684885 0.00130972 -0.00482542
v 0.06833632 0.00111004 -0.00487523
v 0.00076394 0.00184835 -0.00464582
v 0.00056346 0.00191899 -0.00461709
v -0 0.0025645 -0.00429224
v 0.00028554 0.00197951 -0.00459146
v -0 0.002 -0.00458258
v 0.00108128 0.00168251 -0.00470841
v 0.00095572 0.00175687 -0.00468117
v 0.06923489 0.00184787 -0.00464601
v 0.06943654 0.00191899 -0.00461709
v 0.07 0.0025645 -0.00429224
v 0.06971445 0.00197951 -0.00459146
v 0.07 0.002 -0.00458258
v -0 0.00328969 -0.00376536
v 0.07 0.00328969 -0.00376536
v -0 0.00390916 -0.00311745
v 0.07 0.00390916 -0.00311745
v -0 0.00440298 -0.00236934
v 0.07 0.00440298 -0.00236934
v -0 0.00475528 -0.00154508
v 0.07 0.00475528 -0.00154508
v -0 0.00495475 -0.00067117
v 0.07 0.00495475 -0.00067117
v -0 0.00499497 0.00022432
v 0.07 0.00499497 0.00022432
v -0 0.00487464 0.0011126
v 0.07 0.00487464 0.0011126
v -0 0.00459764 0.00196513
v 0.07 0.00459764 0.00196513
v -0 0.00417287 0.00275449
v 0.07 0.00417287 0.00275449
v -0 0.00361397 0.00345531
v 0.07 0.00361397 0.00345531
v -0 0.00293893 0.00404509
v 0.07 0.00293893 0.00404509
v 0.068 -0 -0.005
v 0.002 -0 -0.005
vn -1 -0 -0
vn 1 0 0
vn -0.00514 -0.45737 -0.88926
vn 0.00163 -0.41701 0.9089
vn 0 -0.07329 0.99731
vn -0.00163 0.41701 0.9089
vn -0.00015 0.37421 0.92735
vn 0.00163 0.41701 0.9089
vn 0.00959 0.42687 0.90426
vn 6E-05 0.40911 0.91249
vn -0 0.37377 0.92752
vn 0 0.35023 0.93666
vn 0.00028 0.3506 0.93652
vn -0.00024 0.28534 0.95843
vn -7E-05 0.32042 0.94728
vn -0.00094 0.10935 0.994
vn -0.00054 0.14756 0.98905
vn -0.0002 0.1914 0.98151
vn 0.00119 0.26511 0.96422
vn 0.00085 0.23975 0.97083
vn 0.00037 0.19145 0.9815
vn 0.00011 0.32039 0.94729
vn 0 0.28516 0.95848
vn -0 0.26401 0.96452
vn -1E-05 0.23919 0.97097
vn 0.00012 0.14756 0.98905
vn 0 0.10944 0.99399
vn -0 0.07329 0.99731
vn -0.00011 0.02835 0.9996
vn 0.0002 0.07352 0.99729
vn 0 0.02861 0.99959
vn 0.00011 -0.02835 0.9996
vn -0.0002 -0.07352 0.99729
vn -0 -0.02861 0.99959
vn 0.0002 -0.1914 0.98151
vn 0.00054 -0.14756 0.98905
vn 0.00094 -0.10935 0.994
vn -0.00119 -0.26511 0.96422
vn -0.00085 -0.23975 0.97083
vn -0.00037 -0.19145 0.9815
vn -0.00012 -0.14756 0.98905
vn -0 -0.10944 0.99399
vn 0.00959 -0.42686 0.90427
vn 0.00015 -0.37421 0.92735
vn -0.00163 -0.41701 0.9089
vn -0.00959 -0.42687 0.90426
vn -6E-05 -0.40911 0.91249
vn 0 -0.37377 0.92752
vn -0 -0.35023 0.93666
vn -0.00028 -0.3506 0.93652
vn 0.00024 -0.28534 0.95843
vn 7E-05 -0.32042 0.94728
vn 1E-05 -0.23919 0.97097
vn 0 -0.26401 0.96452
vn -0 -0.28516 0.95848
vn -0.00011 -0.32039 0.94729
vn -0.01904 -0.46265 -0.88634
vn -0.00019 -0.28237 -0.95931
vn -0.00048 -0.24236 -0.97019
vn -0.00091 -0.20083 -0.97963
vn 0.00112 -0.34629 -0.93813
vn 0.00079 -0.32032 -0.94731
vn 0.00041 -0.28248 -0.95927
vn 0.00014 -0.24213 -0.97024
vn 0 -0.20053 -0.97969
vn 0.00514 -0.45737 -0.88926
vn 0.01904 -0.46265 -0.88634
vn 9E-05 -0.44959 -0.89324
vn -0 -0.3767 -0.92634
vn 0 -0.36054 -0.93274
vn 0 -0.36115 -0.93251
vn -0 -0.34395 -0.93899
vn -3E-05 -0.3195 -0.94758
vn -0 -0.17257 -0.985
vn 3E-05 -0.13964 -0.9902
vn 0.00031 -0.08506 -0.99638
vn 0 -0.08483 -0.9964
vn -0.00023 -0.13957 -0.99021
vn -0.00051 -0.17262 -0.98499
vn 0 0.17257 -0.985
vn -3E-05 0.13964 -0.9902
vn -0.00031 0.08506 -0.99638
vn 0.00051 0.17262 -0.98499
vn 0.00023 0.13957 -0.99021
vn 0 -0.02847 -0.99959
vn 0 -0.02847 -0.99959
vn -0 0.02847 -0.99959
vn -0 0.02847 -0.99959
vn -0 0.08483 -0.9964
vn 0.00019 0.28237 -0.95931
vn 0.00048 0.24236 -0.97019
vn 0.00091 0.20083 -0.97963
vn -0.00112 0.34629 -0.93813
vn -0.00079 0.32032 -0.94731
vn -0.00041 0.28248 -0.95927
vn -0.00014 0.24213 -0.97024
vn -0 0.20053 -0.97969
vn 0.04307 0.47885 -0.87684
vn 0.01904 0.46265 -0.88634
vn 0.00514 0.45737 -0.88926
vn 3E-05 0.3195 -0.94758
vn 0 0.34395 -0.93899
vn -0 0.36115 -0.93251
vn -0 0.36054 -0.93274
vn 0 0.3767 -0.92634
vn -9E-05 0.44959 -0.89324
vn -0.01904 0.46265 -0.88634
vn -0.00514 0.45737 -0.88926
vn 0 -0.40899 0.91254
vn 0 -0.5129 0.85845
vn 0 -0.65794 0.75307
vn 0 -0.78183 0.62349
vn 0 -0.8806 0.47387
vn 0 -0.95106 0.30902
vn 0 -0.99095 0.13423
vn 0 -0.99899 -0.04486
vn 0 -0.97493 -0.22252
vn 0 -0.91953 -0.39303
vn 0 -0.83457 -0.5509
vn 0 -0.72279 -0.69106
vn 0 -0.58779 -0.80902
vn 0 -0.4427 -0.89667
vn -0.04307 -0.47885 -0.87684
vn -0 0.4427 -0.89667
vn -0 0.58779 -0.80902
vn -0 0.72279 -0.69106
vn -0 0.83457 -0.5509
vn -0 0.91953 -0.39303
vn -0 0.97493 -0.22252
vn -0 0.99899 -0.04486
vn -0 0.99095 0.13423
vn -0 0.95106 0.30902
vn -0 0.8806 0.47387
vn -0 0.78183 0.62349
vn -0 0.65794 0.75307
vn -0 0.5129 0.85845
vn -0 0.40899 0.91254
vn -0.00959 0.42686 0.90427
vn 0.47916 -0.87773 0
vn 0.50976 0.86032 -0.00105
vn 0.47962 0.87747 -0
vn 0.07157 0.99744 -0
vn 0.07157 0.99744 -0
vn 0.21279 0.9771 0
vn 0.21279 0.9771 -0
vn 0.34987 0.9368 -0
vn 0.33239 0.94314 -0.00058
vn 0.43048 0.9026 0.00028
vn 0.69979 0.71435 0.00022
vn 0.59679 0.8024 -0
vn 0.59923 0.80058 9E-05
vn 0.70709 0.70713 -0.0001
vn 0.86511 0.50158 -0.00056
vn 0.87772 0.47917 0.00028
vn 0.79541 0.60607 -0.00025
vn 0.80057 0.59924 -0
vn 0.75099 0.66031 -0
vn 0.90235 0.43101 -0
vn 0.93695 0.34947 0
vn 0.92938 0.36912 0.00061
vn 0.97717 0.21246 -0.00079
vn 0.9618 0.27375 0.00156
vn 0.99745 -0.07134 0
vn 0.99748 -0.07101 -1E-05
vn 0.99745 0.07134 1E-05
vn 0.99743 0.07167 -0
vn 0.98295 0.18386 -0
vn 0.93682 -0.34982 0
vn 0.92955 -0.36871 0.00058
vn 0.97708 -0.21288 -0.00075
vn 0.96206 -0.27284 0.00153
vn 0.98304 -0.18336 0
vn 0.90212 -0.43148 0
vn 0.86481 -0.5021 -0.00057
vn 0.87767 -0.47926 0.00028
vn 0.79539 -0.6061 -0.00025
vn 0.8005 -0.59933 -0
vn 0.59952 -0.80036 0
vn 0.59656 -0.80257 0.00011
vn 0.70734 -0.70687 -0.00012
vn 0.69987 -0.71427 0.00021
vn 0.75127 -0.66 0
vn 0.07157 -0.99744 0
vn 0.07157 -0.99744 0
vn 0.21279 -0.9771 -0
vn 0.21279 -0.9771 0
vn 0.33262 -0.94306 0
vn 0.34931 -0.93701 -0.00041
vn 0.42765 -0.90395 0.00024
vn 0.50676 -0.86208 -0.00097
vn -0.50976 -0.86032 -0.00105
vn -0.70709 -0.70713 -0.0001
vn -0.07157 0.99744 -0
vn -0.07157 0.99744 0
vn -0.21279 0.9771 -0
vn -0.21279 0.9771 -0
vn -0.33262 0.94306 -0
vn -0.34931 0.93701 -0.00041
vn -0.69988 0.71426 0.00021
vn -0.70733 0.70688 -0.00012
vn -0.59655 0.80257 0.00011
vn -0.59952 0.80036 -0
vn -0.47916 0.87773 -0
vn -0.50676 0.86208 -0.00097
vn -0.42764 0.90395 0.00024
vn -0.9021 0.43152 -0
vn -0.86481 0.50209 -0.00057
vn -0.87767 0.47926 0.00028
vn -0.79539 0.6061 -0.00025
vn -0.80049 0.59935 -0
vn -0.75129 0.65997 -0
vn -0.93682 0.34982 -0
vn -0.92955 0.36869 0.00058
vn -0.97708 0.21287 -0.00075
vn -0.99743 -0.07166 0
vn -0.99745 -0.07133 1E-05
vn -0.99748 0.071 -1E-05
vn -0.99745 0.07133 -0
vn -0.98304 0.18337 -0
vn -0.96206 0.27284 0.00153
vn -0.98295 -0.18385 0
vn -0.9618 -0.27376 0.00156
vn -0.97717 -0.21246 -0.00079
vn -0.92939 -0.36909 0.00061
vn -0.93695 -0.34945 0
vn -0.90233 -0.43105 -0
vn -0.69979 -0.71435 0.00022
vn -0.86512 -0.50157 -0.00056
vn -0.87772 -0.47917 0.00028
vn -0.79541 -0.60607 -0.00025
vn -0.80056 -0.59925 0
vn -0.75095 -0.66036 0
vn -0.59922 -0.80058 9E-05
vn -0.59678 -0.8024 0
vn -0.47963 -0.87747 0
vn -0.07157 -0.99744 0
vn -0.07157 -0.99744 -0
vn -0.21279 -0.9771 0
vn -0.21279 -0.9771 0
vn -0.34987 -0.9368 0
vn -0.33239 -0.94314 -0.00058
vn -0.43049 -0.9026 0.00028
f 1//1 2//1 3//1
f 3//1 2//1 4//1
f 3//1 4//1 5//1
f 5//1 4//1 6//1
f 7//1 8//1 9//1
f 10//1 11//1 4//1
f 4//1 11//1 12//1
f 10//1 4//1 9//1
f 9//1 4//1 13//1
f 9//1 13//1 7//1
f 12//1 14//1 4//1
f 4//1 14//1 15//1
f 4//1 15//1 6//1
f 16//2 17//2 18//2
f 19//2 20//2 21//2
f 16//2 18//2 21//2
f 21//2 18//2 22//2
f 21//2 22//2 19//2
f 20//2 23//2 21//2
f 21//2 23//2 24//2
f 21//2 24//2 25//2
f 25//2 26//2 21//2
f 21//2 26//2 27//2
f 21//2 27//2 28//2
f 28//2 27//2 29//2
f 28//2 29//2 30//2
f 31//3 16//3 21//3
f 32//4 1//4 3//4
f 33//5 34//5 35//5
f 36//6 37//6 38//6
f 39//7 40//7 41//7
f 42//8 43//8 41//8
f 41//9 43//9 44//9
f 41//10 44//10 39//10
f 39//11 44//11 45//11
f 39//12 45//12 46//12
f 47//13 48//13 45//13
f 45//14 48//14 49//14
f 45//15 49//15 46//15
f 50//16 51//16 52//16
f 52//17 51//17 53//17
f 52//18 53//18 54//18
f 52//19 55//19 50//19
f 50//20 55//20 56//20
f 50//21 56//21 57//21
f 47//22 58//22 48//22
f 48//23 58//23 52//23
f 48//24 52//24 59//24
f 59//25 52//25 54//25
f 57//26 60//26 50//26
f 50//27 60//27 61//27
f 50//28 61//28 62//28
f 62//29 61//29 63//29
f 63//30 61//30 64//30
f 63//31 64//31 65//31
f 33//32 35//32 65//32
f 65//33 35//33 66//33
f 65//34 66//34 63//34
f 67//35 68//35 69//35
f 67//36 69//36 70//36
f 70//37 69//37 34//37
f 34//38 69//38 71//38
f 34//39 71//39 72//39
f 72//40 73//40 34//40
f 34//41 73//41 74//41
f 34//42 74//42 35//42
f 32//43 3//43 75//43
f 76//44 75//44 18//44
f 17//45 77//45 18//45
f 18//46 77//46 78//46
f 18//47 78//47 76//47
f 76//48 78//48 79//48
f 76//49 79//49 80//49
f 81//50 82//50 79//50
f 79//51 82//51 83//51
f 79//52 83//52 80//52
f 68//53 84//53 69//53
f 69//54 84//54 82//54
f 69//55 82//55 85//55
f 85//56 82//56 81//56
f 31//57 21//57 86//57
f 87//58 88//58 89//58
f 87//59 89//59 90//59
f 90//60 89//60 91//60
f 91//61 89//61 92//61
f 91//62 92//62 93//62
f 93//63 94//63 91//63
f 91//64 94//64 95//64
f 91//65 95//65 96//65
f 2//66 97//66 4//66
f 4//67 97//67 98//67
f 4//68 98//68 99//68
f 99//69 98//69 100//69
f 99//70 100//70 101//70
f 101//71 100//71 89//71
f 101//72 89//72 102//72
f 102//73 89//73 88//73
f 96//74 103//74 91//74
f 91//75 103//75 104//75
f 91//76 104//76 105//76
f 106//77 107//77 105//77
f 105//78 107//78 108//78
f 105//79 108//79 91//79
f 109//80 110//80 111//80
f 111//81 112//81 109//81
f 109//82 112//82 113//82
f 109//83 113//83 114//83
f 114//84 113//84 115//84
f 106//85 105//85 116//85
f 116//86 105//86 117//86
f 116//87 117//87 113//87
f 113//88 117//88 118//88
f 113//89 118//89 115//89
f 119//90 120//90 121//90
f 119//91 121//91 122//91
f 122//92 121//92 109//92
f 109//93 121//93 123//93
f 109//94 123//94 124//94
f 124//95 125//95 109//95
f 109//96 125//96 126//96
f 109//97 126//97 110//97
f 127//98 128//98 129//98
f 129//99 128//99 130//99
f 129//100 130//100 131//100
f 120//101 132//101 121//101
f 121//102 132//102 133//102
f 121//103 133//103 134//103
f 134//104 133//104 127//104
f 134//105 127//105 135//105
f 135//106 127//106 136//106
f 135//107 136//107 137//107
f 137//108 136//108 138//108
f 75//109 3//109 18//109
f 18//110 3//110 5//110
f 18//110 5//110 22//110
f 22//111 5//111 6//111
f 22//111 6//111 19//111
f 19//112 6//112 15//112
f 19//112 15//112 20//112
f 20//113 15//113 14//113
f 20//113 14//113 23//113
f 23//114 14//114 12//114
f 23//114 12//114 24//114
f 24//115 12//115 11//115
f 24//115 11//115 25//115
f 25//116 11//116 10//116
f 25//116 10//116 26//116
f 26//117 10//117 9//117
f 26//117 9//117 27//117
f 27//118 9//118 8//118
f 27//118 8//118 29//118
f 29//119 8//119 7//119
f 29//119 7//119 30//119
f 30//120 7//120 13//120
f 30//120 13//120 28//120
f 28//121 13//121 4//121
f 28//121 4//121 21//121
f 21//122 4//122 99//122
f 21//123 99//123 86//123
f 127//124 129//124 136//124
f 136//125 129//125 139//125
f 136//125 139//125 140//125
f 140//126 139//126 141//126
f 140//126 141//126 142//126
f 142//127 141//127 143//127
f 142//127 143//127 144//127
f 144//128 143//128 145//128
f 144//128 145//128 146//128
f 146//129 145//129 147//129
f 146//129 147//129 148//129
f 148//130 147//130 149//130
f 148//130 149//130 150//130
f 150//131 149//131 151//131
f 150//131 151//131 152//131
f 152//132 151//132 153//132
f 152//132 153//132 154//132
f 154//133 153//133 155//133
f 154//133 155//133 156//133
f 156//134 155//134 157//134
f 156//134 157//134 158//134
f 158//135 157//135 159//135
f 158//135 159//135 160//135
f 160//136 159//136 41//136
f 160//136 41//136 38//136
f 38//137 41//137 40//137
f 38//138 40//138 36//138
f 131//1 42//1 41//1
f 157//1 155//1 129//1
f 131//1 41//1 129//1
f 129//1 41//1 159//1
f 129//1 159//1 157//1
f 155//1 153//1 129//1
f 129//1 153//1 151//1
f 129//1 151//1 149//1
f 145//1 143//1 141//1
f 149//1 147//1 129//1
f 129//1 147//1 145//1
f 129//1 145//1 139//1
f 139//1 145//1 141//1
f 37//2 138//2 38//2
f 38//2 138//2 136//2
f 148//2 150//2 136//2
f 142//2 144//2 146//2
f 148//2 136//2 146//2
f 146//2 136//2 140//2
f 146//2 140//2 142//2
f 150//2 152//2 136//2
f 136//2 152//2 154//2
f 136//2 154//2 156//2
f 156//2 158//2 136//2
f 136//2 158//2 160//2
f 136//2 160//2 38//2
f 39//139 46//139 123//139
f 101//140 102//140 79//140
f 79//141 102//141 81//141
f 17//142 16//142 77//142
f 77//143 16//143 31//143
f 77//144 31//144 78//144
f 78//145 31//145 86//145
f 78//146 86//146 79//146
f 79//147 86//147 99//147
f 79//148 99//148 101//148
f 69//149 85//149 87//149
f 81//150 102//150 85//150
f 85//151 102//151 88//151
f 85//152 88//152 87//152
f 91//153 73//153 90//153
f 90//154 73//154 72//154
f 90//155 72//155 87//155
f 87//156 72//156 71//156
f 87//157 71//157 69//157
f 91//158 108//158 73//158
f 73//159 108//159 107//159
f 73//160 107//160 74//160
f 74//161 107//161 106//161
f 74//162 106//162 35//162
f 113//163 62//163 161//163
f 161//164 62//164 63//164
f 161//165 63//165 106//165
f 106//166 63//166 66//166
f 106//167 66//167 35//167
f 111//168 53//168 112//168
f 112//169 53//169 51//169
f 112//170 51//170 113//170
f 113//171 51//171 50//171
f 113//172 50//172 62//172
f 111//173 110//173 53//173
f 53//174 110//174 126//174
f 53//175 126//175 54//175
f 54//176 126//176 125//176
f 54//177 125//177 59//177
f 123//178 46//178 124//178
f 124//179 46//179 49//179
f 124//180 49//180 125//180
f 125//181 49//181 48//181
f 125//182 48//182 59//182
f 138//183 37//183 137//183
f 137//184 37//184 36//184
f 137//185 36//185 135//185
f 135//186 36//186 40//186
f 135//187 40//187 134//187
f 134//188 40//188 39//188
f 134//189 39//189 121//189
f 121//190 39//190 123//190
f 133//191 132//191 45//191
f 120//192 119//192 58//192
f 2//193 1//193 97//193
f 97//194 1//194 32//194
f 97//195 32//195 98//195
f 98//196 32//196 75//196
f 98//197 75//197 100//197
f 100//198 75//198 76//198
f 82//199 94//199 83//199
f 83//200 94//200 93//200
f 83//201 93//201 80//201
f 80//202 93//202 92//202
f 80//203 92//203 76//203
f 76//204 92//204 89//204
f 76//205 89//205 100//205
f 103//206 96//206 67//206
f 67//207 96//207 95//207
f 67//208 95//208 68//208
f 68//209 95//209 94//209
f 68//210 94//210 84//210
f 84//211 94//211 82//211
f 103//212 67//212 104//212
f 104//213 67//213 70//213
f 104//214 70//214 105//214
f 64//215 118//215 65//215
f 65//216 118//216 162//216
f 65//217 162//217 33//217
f 33//218 162//218 105//218
f 33//219 105//219 34//219
f 34//220 105//220 70//220
f 64//221 61//221 118//221
f 118//222 61//222 60//222
f 118//223 60//223 115//223
f 115//224 60//224 57//224
f 115//225 57//225 114//225
f 114//226 57//226 109//226
f 58//227 119//227 52//227
f 109//228 57//228 122//228
f 122//229 57//229 56//229
f 122//230 56//230 119//230
f 119//231 56//231 55//231
f 119//232 55//232 52//232
f 120//233 58//233 132//233
f 132//234 58//234 47//234
f 132//235 47//235 45//235
f 42//236 131//236 43//236
f 43//237 131//237 130//237
f 43//238 130//238 44//238
f 44//239 130//239 128//239
f 44//240 128//240 45//240
f 45//241 128//241 127//241
f 45//242 127//242 133//242
# Vertices: 162, normals: 242, texture coordinates: 0, faces: 316

