# File generated by ImageToStl.com - Free Image and 3D model conversion tools

o obj1
v 0 -0.0399218 -0.0025
v 0 0.0399218 -0.0025
v 0 0.03899712 -0.00890084
v 0 0.03338293 -0.02203588
v 0 0.0289118 -0.02764251
v 0 -0.03899712 -0.00890084
v 0 0.03678111 -0.015721
v 0 -0.00358557 -0.03983897
v 0 0.00358557 -0.03983897
v 0 0.01064147 -0.03855851
v 0 -0.01064147 -0.03855851
v 0 -0.01735535 -0.03603876
v 0 -0.02351141 -0.03236068
v 0 0.02351141 -0.03236068
v 0 0.01735535 -0.03603876
v 0 -0.0289118 -0.02764251
v 0 -0.03338293 -0.02203588
v 0 -0.03678111 -0.015721
v 0.08 -0.03591309 0.0025
v 0.08 0.03591309 0.0025
v 0.08 0.03567419 0.0048324
v 0.08 -0.03567419 0.0048324
v 0.08 0.03423803 0.01112461
v 0.08 0.03170144 0.01705927
v 0.08 0.02814593 0.02244563
v 0.08 0.02368579 0.02711057
v 0.08 0.01846437 0.03090416
v 0.08 -0.02368579 0.02711057
v 0.08 -0.02814593 0.02244563
v 0.08 0.00642805 0.03542146
v 0.08 0 0.036
v 0.08 -0.01846437 0.03090416
v 0.08 -0.00642805 0.03542146
v 0.08 -0.01264949 0.03370446
v 0.08 0.01264949 0.03370446
v 0.08 -0.03170144 0.01705927
v 0.08 -0.03423803 0.01112461
v 0 0.0399218 0.0025
v 0 -0.0399218 0.0025
v 0 0.03963799 0.00536933
v 0 -0.03963799 0.00536933
v 0 -0.03804226 0.01236068
v 0 -0.03522382 0.01895475
v 0 -0.03127326 0.02493959
v 0 -0.02631755 0.03012286
v 0 -0.02051597 0.03433795
v 0 -0.01405499 0.03744939
v 0 -0.00714228 0.03935719
v 0 0.00714228 0.03935719
v 0 0.03127326 0.02493959
v 0 0.03522382 0.01895475
v 0 0.01405499 0.03744939
v 0 0.02051597 0.03433795
v 0 0.02631755 0.03012286
v 0 0 0.04
v 0 0.03804226 0.01236068
v 0.08 0.03591309 -0.0025
v 0.08 -0.03591309 -0.0025
v 0.08 0.03509741 -0.00801075
v 0.08 -0.03509741 -0.00801075
v 0.08 -0.033103 -0.0141489
v 0.08 0.03004464 -0.01983229
v 0.08 0.033103 -0.0141489
v 0.08 0.00322702 -0.03585507
v 0.08 0.00957733 -0.03470266
v 0.08 0.01561981 -0.03243488
v 0.08 0.02116027 -0.02912461
v 0.08 -0.00957733 -0.03470266
v 0.08 -0.00322702 -0.03585507
v 0.08 -0.03004464 -0.01983229
v 0.08 -0.02602061 -0.02487826
v 0.08 -0.02116027 -0.02912461
v 0.08 0.02602061 -0.02487826
v 0.08 -0.01561981 -0.03243488
v 0.00125 -0.03987877 0.00216506
v 0.00064623 -0.03989466 0.00241503
v 0.00176804 -0.03987244 0.0017675
v 0.07758529 -0.03611493 0.00064745
v 0.00216506 -0.03987216 0.00125
v 0.00241465 -0.03987401 0.00064767
v 0.0775 -0.036125 0
v 0.0025 -0.039875 0
v 0.07758544 -0.03611492 -0.00064799
v 0.00241478 -0.03987401 -0.0006472
v 0.00216506 -0.03987216 -0.00125
v 0.07783493 -0.03608661 0.00125
v 0.07823236 -0.03604505 0.0017679
v 0.07875 -0.03599745 0.00216506
v 0.0793518 -0.03595142 0.00241451
v 0.07875 -0.03599745 -0.00216506
v 0.07935337 -0.03595132 -0.00241493
v 0.00174455 -0.03987258 -0.00179068
v 0.00125 -0.03987877 -0.00216506
v 0.00064777 -0.03989461 -0.00241462
v 0.00064623 0.03989466 -0.00241503
v 0.07809539 0.03605888 -0.00161941
v 0.07875 0.03599745 -0.00216506
v 0.0793518 0.03595142 -0.00241451
v 0.00124993 0.03987877 -0.0021651
v 0.00174455 0.03987258 -0.00179068
v 0.00216506 0.03987216 -0.00125
v 0.00064777 0.03989461 0.00241462
v 0.07783493 0.03608661 0.00125
v 0.07758544 0.03611492 0.00064799
v 0.07823206 0.03604508 0.0017676
v 0.07935337 0.03595132 0.00241493
v 0.07875 0.03599745 0.00216506
v 0.00241478 0.03987401 0.0006472
v 0.00216506 0.03987216 0.00125
v 0.00176782 0.03987244 0.00176772
v 0.00125 0.03987877 0.00216506
v 0.0025 0.039875 0
v 0.0775 0.036125 0
v 0.00241465 0.03987401 -0.00064767
v 0.07758529 0.03611493 -0.00064745
v 0.07783506 0.0360866 -0.00125021
v 0.07809539 -0.03605888 -0.00161941
v 0.07783493 -0.03608661 -0.00125
v 0.08 0 0.036
v 0 0 0.04
v 0.0025 0.039875 0
v 0.0025 -0.039875 0
v 0.0775 -0.036125 0
v 0.0775 0.036125 0
vn -1 -0 0
vn -1 -0 0
vn -1 -0 0
vn -1 -0 0
vn -1 -0 0
vn -1 -0 0
vn -1 -0 0
vn -1 -0 0
vn -1 -0 0
vn -1 -0 0
vn -1 -0 0
vn -1 -0 0
vn -1 -0 0
vn -1 -0 0
vn -1 -0 0
vn 1 0 0
vn -1 -0 0
vn -1 -0 0
vn -1 -0 0
vn -1 -0 0
vn -1 -0 0
vn -1 -0 0
vn -1 -0 0
vn -1 -0 0
vn -1 -0 0
vn -1 -0 0
vn -1 -0 0
vn -1 -0 0
vn -1 -0 0
vn -1 -0 0
vn -1 -0 0
vn -1 -0 0
vn 0.06798 -0.99255 0.1011
vn 0.05465 -0.99366 0.09828
vn 0.05017 -0.99751 0.04949
vn 0.05002 -0.99803 0.03783
vn 0.04993 -0.99847 0.02376
vn 0.04994 -0.99871 0.00895
vn 0.04994 -0.99872 0.00811
vn 0.04994 -0.99871 -0.00896
vn 0.04994 -0.99872 -0.00811
vn 0.04993 -0.99847 -0.02375
vn 0.0509 -0.99422 0.09457
vn 0.04701 -0.99852 0.02745
vn 0.04783 -0.99791 0.04338
vn -0.00159 -0.99265 0.12105
vn 0.03238 -0.99392 0.10528
vn 0.04534 -0.99377 0.10179
vn 0.01378 -0.9887 -0.14928
vn 0.03918 -0.98846 -0.14631
vn 0.12726 -0.98017 -0.15191
vn 0.086 -0.98569 -0.14498
vn 0.06028 -0.98793 -0.14272
vn 0.06025 0.98793 -0.14272
vn 0.04316 0.99723 -0.0605
vn 0.03915 0.98846 -0.14631
vn 0.01374 0.9887 -0.14929
vn 0.08595 0.9857 -0.14497
vn 0.12727 0.98017 -0.15191
vn 0.04974 0.98972 -0.13407
vn 0.04994 0.99803 -0.03805
vn 0.05466 0.99366 0.09828
vn 0.04701 0.99852 0.02746
vn 0.04783 0.99791 0.04337
vn 0.04535 0.99377 0.10179
vn 0.0324 0.99392 0.10527
vn 0.04993 0.99847 0.02375
vn 0.05002 0.99803 0.03784
vn 0.05062 0.99469 0.0896
vn 0.09862 0.98872 0.11277
vn 0.068 0.99255 0.10111
vn 0.04994 0.99872 0.00811
vn 0.04994 0.99871 0.00896
vn 0.04994 0.99872 -0.00811
vn 0.04994 0.99871 -0.00895
vn 0.04993 0.99847 -0.02376
vn 0.04995 0.99841 -0.02624
vn 0.04993 0.99796 -0.03971
vn 0.04977 0.98867 -0.14158
vn 0.04974 0.94988 -0.30863
vn 0.04974 0.94988 -0.30863
vn 0.04974 0.87951 -0.47328
vn 0.04974 0.87951 -0.47328
vn 0.04974 0.78086 -0.62272
vn 0.04974 0.78086 -0.62272
vn 0.04974 0.65712 -0.75214
vn 0.04974 0.65712 -0.75214
vn 0.04974 0.51226 -0.85739
vn 0.04974 0.51226 -0.85739
vn 0.04974 0.35094 -0.93508
vn 0.04974 0.35094 -0.93508
vn 0.04974 0.17834 -0.98271
vn 0.04974 0.17834 -0.98271
vn 0.04974 -0 -0.99876
vn 0.04974 -0.17834 -0.98271
vn 0.04974 -0.17834 -0.98271
vn 0.04974 -0.35094 -0.93508
vn 0.04974 -0.35094 -0.93508
vn 0.04974 -0.51226 -0.85739
vn 0.04974 -0.51226 -0.85739
vn 0.04974 -0.65712 -0.75214
vn 0.04974 -0.65712 -0.75214
vn 0.04974 -0.78086 -0.62272
vn 0.04974 -0.78086 -0.62272
vn 0.04974 -0.87951 -0.47328
vn 0.04974 -0.87951 -0.47328
vn 0.04974 -0.94988 -0.30863
vn 0.04974 -0.94988 -0.30863
vn 0.04977 -0.98867 -0.14158
vn 0.04916 -0.98977 -0.13393
vn 0.04994 -0.99738 -0.05238
vn 0.04994 -0.99803 -0.03805
vn 0.04993 -0.99796 -0.03971
vn 0.04995 -0.99841 -0.02624
vn 0.04989 -0.99455 0.09158
vn 0.04974 -0.97372 0.22225
vn 0.04974 -0.97372 0.22225
vn 0.04974 -0.91839 0.39254
vn 0.04974 -0.91839 0.39254
vn 0.04974 -0.83354 0.55022
vn 0.04974 -0.7219 0.69021
vn 0.04974 -0.7219 0.69021
vn 0.04974 -0.58706 0.80802
vn 0.04974 -0.58706 0.80802
vn 0.04974 -0.43335 0.89985
vn 0.04974 -0.43335 0.89985
vn 0.04974 -0.26571 0.96277
vn 0.04974 -0.26571 0.96277
vn 0.04974 -0.08953 0.99474
vn 0.04974 -0.08953 0.99474
vn 0.04974 0.08953 0.99474
vn 0.04974 0.08953 0.99474
vn 0.04974 0.26571 0.96277
vn 0.04974 0.26571 0.96277
vn 0.04974 0.43335 0.89985
vn 0.04974 0.43335 0.89985
vn 0.04974 0.58706 0.80802
vn 0.04974 0.58706 0.80802
vn 0.04974 0.7219 0.69021
vn 0.04974 0.7219 0.69021
vn 0.04974 0.83354 0.55022
vn 0.04974 0.91839 0.39254
vn 0.04974 0.91839 0.39254
vn 0.04974 0.97372 0.22225
vn 0.04974 0.97372 0.22225
vn 0.0499 0.99402 0.09708
vn 0.0484 0.99723 0.05644
vn -0.13036 0 0.99147
vn -0.13067 0 0.99143
vn -0.38251 -0 0.92395
vn -0.38282 0 0.92382
vn -0.60356 -0 0.79732
vn -0.60357 0 0.79731
vn -0.78937 -0 0.61392
vn -0.92383 -0 0.3828
vn -0.92387 0 0.38271
vn -0.99143 -0 0.13065
vn -0.99144 -0 0.13056
vn -0.99144 -0 -0.13056
vn -0.99143 0 -0.13065
vn -0.92387 -0 -0.38271
vn -0.92383 -0 -0.3828
vn -0.79336 -0 -0.60875
vn -0.7934 -0 -0.6087
vn -0.60882 0 -0.79331
vn -0.13036 -0 -0.99147
vn -0.13067 -0 -0.99143
vn -0.38253 0 -0.92394
vn -0.38282 -0 -0.92382
vn -0.60877 -0 -0.79334
vn 0.3826 -0 -0.92391
vn 0.13044 -0 -0.99146
vn 0.13076 0 -0.99141
vn 0.3829 -0 -0.92379
vn 0.6088 -0 -0.79333
vn 0.60873 -0 -0.79337
vn 0.79338 0 -0.60872
vn 0.79333 0 -0.60879
vn 0.92385 0 -0.38275
vn 0.92381 0 -0.38286
vn 0.99143 -0 -0.13061
vn 0.99142 0 -0.13072
vn 0.99142 0 0.13072
vn 0.99143 0 0.13061
vn 0.92381 -0 0.38286
vn 0.92383 -0 0.3828
vn 0.81726 0 0.57627
vn 0.81728 0 0.57624
vn 0.64029 0 0.76813
vn 0.13044 0 0.99146
vn 0.3826 0 0.92391
vn 0.3829 0 0.92379
vn 0.13076 -0 0.99141
f 1//1 2//1 3//1
f 4//2 5//2 6//2
f 1//1 3//1 6//1
f 6//3 3//3 7//3
f 6//4 7//4 4//4
f 8//5 6//5 9//5
f 9//6 6//6 10//6
f 8//7 11//7 6//7
f 6//8 11//8 12//8
f 6//9 12//9 13//9
f 5//10 14//10 6//10
f 6//11 14//11 15//11
f 6//12 15//12 10//12
f 13//13 16//13 6//13
f 6//14 16//14 17//14
f 6//15 17//15 18//15
f 19//16 20//16 21//16
f 19//16 21//16 22//16
f 22//16 21//16 23//16
f 22//16 23//16 24//16
f 24//16 25//16 22//16
f 22//16 25//16 26//16
f 22//16 26//16 27//16
f 28//16 29//16 27//16
f 30//16 31//16 32//16
f 32//16 31//16 33//16
f 32//16 33//16 34//16
f 28//16 27//16 32//16
f 32//16 27//16 35//16
f 32//16 35//16 30//16
f 29//16 36//16 27//16
f 27//16 36//16 37//16
f 27//16 37//16 22//16
f 38//17 39//17 40//17
f 40//17 39//17 41//17
f 40//18 41//18 42//18
f 42//19 43//19 40//19
f 40//20 43//20 44//20
f 40//21 44//21 45//21
f 45//22 46//22 40//22
f 40//23 46//23 47//23
f 40//24 47//24 48//24
f 49//25 50//25 51//25
f 49//26 52//26 50//26
f 50//27 52//27 53//27
f 50//28 53//28 54//28
f 48//29 55//29 40//29
f 40//30 55//30 49//30
f 40//31 49//31 56//31
f 56//32 49//32 51//32
f 57//16 58//16 59//16
f 59//16 58//16 60//16
f 61//16 62//16 60//16
f 60//16 62//16 63//16
f 60//16 63//16 59//16
f 64//16 65//16 66//16
f 67//16 68//16 66//16
f 66//16 68//16 69//16
f 66//16 69//16 64//16
f 61//16 70//16 62//16
f 62//16 70//16 71//16
f 62//16 71//16 72//16
f 67//16 73//16 68//16
f 68//16 73//16 62//16
f 68//16 62//16 74//16
f 74//16 62//16 72//16
f 75//33 41//33 76//33
f 76//34 41//34 39//34
f 75//35 77//35 78//35
f 77//36 79//36 78//36
f 78//37 79//37 80//37
f 78//38 80//38 81//38
f 81//39 80//39 82//39
f 81//40 82//40 83//40
f 83//41 82//41 84//41
f 83//42 84//42 85//42
f 75//43 78//43 41//43
f 41//44 78//44 86//44
f 41//45 86//45 87//45
f 87//46 88//46 22//46
f 22//47 88//47 89//47
f 22//48 89//48 19//48
f 90//49 60//49 91//49
f 91//50 60//50 58//50
f 92//51 93//51 6//51
f 6//52 93//52 94//52
f 6//53 94//53 1//53
f 3//54 2//54 95//54
f 96//55 97//55 3//55
f 57//56 59//56 98//56
f 98//57 59//57 97//57
f 95//58 99//58 3//58
f 3//59 99//59 100//59
f 3//60 100//60 96//60
f 96//61 100//61 101//61
f 102//62 38//62 40//62
f 103//63 104//63 40//63
f 103//64 40//64 105//64
f 20//65 106//65 21//65
f 21//66 106//66 107//66
f 108//67 109//67 104//67
f 104//68 109//68 110//68
f 104//69 110//69 40//69
f 40//70 110//70 111//70
f 40//71 111//71 102//71
f 108//72 104//72 112//72
f 112//73 104//73 113//73
f 112//74 113//74 114//74
f 114//75 113//75 115//75
f 114//76 115//76 101//76
f 101//77 115//77 116//77
f 101//78 116//78 96//78
f 97//79 59//79 3//79
f 3//80 59//80 63//80
f 3//81 63//81 7//81
f 7//82 63//82 62//82
f 7//83 62//83 4//83
f 4//84 62//84 73//84
f 4//85 73//85 5//85
f 5//86 73//86 67//86
f 5//87 67//87 14//87
f 14//88 67//88 66//88
f 14//89 66//89 15//89
f 15//90 66//90 65//90
f 15//91 65//91 10//91
f 10//92 65//92 64//92
f 10//93 64//93 9//93
f 9//94 64//94 69//94
f 9//94 69//94 8//94
f 8//95 69//95 68//95
f 8//96 68//96 11//96
f 11//97 68//97 74//97
f 11//98 74//98 12//98
f 12//99 74//99 72//99
f 12//100 72//100 13//100
f 13//101 72//101 71//101
f 13//102 71//102 16//102
f 16//103 71//103 70//103
f 16//104 70//104 17//104
f 17//105 70//105 61//105
f 17//106 61//106 18//106
f 18//107 61//107 60//107
f 18//108 60//108 6//108
f 6//109 60//109 90//109
f 6//110 90//110 92//110
f 92//111 90//111 117//111
f 92//112 117//112 85//112
f 85//113 117//113 118//113
f 85//114 118//114 83//114
f 87//115 22//115 41//115
f 41//116 22//116 37//116
f 41//117 37//117 42//117
f 42//118 37//118 36//118
f 42//119 36//119 43//119
f 43//120 36//120 29//120
f 43//120 29//120 44//120
f 44//121 29//121 28//121
f 44//122 28//122 45//122
f 45//123 28//123 32//123
f 45//124 32//124 46//124
f 46//125 32//125 34//125
f 46//126 34//126 47//126
f 47//127 34//127 33//127
f 47//128 33//128 48//128
f 48//129 33//129 119//129
f 48//130 119//130 120//130
f 120//131 119//131 30//131
f 120//132 30//132 49//132
f 49//133 30//133 35//133
f 49//134 35//134 52//134
f 52//135 35//135 27//135
f 52//136 27//136 53//136
f 53//137 27//137 26//137
f 53//138 26//138 54//138
f 54//139 26//139 25//139
f 54//140 25//140 50//140
f 50//141 25//141 24//141
f 50//141 24//141 51//141
f 51//142 24//142 23//142
f 51//143 23//143 56//143
f 56//144 23//144 21//144
f 56//145 21//145 40//145
f 40//146 21//146 107//146
f 40//147 107//147 105//147
f 2//148 1//148 95//148
f 95//149 1//149 94//149
f 95//150 94//150 99//150
f 99//151 94//151 93//151
f 99//152 93//152 100//152
f 100//153 93//153 92//153
f 100//154 92//154 101//154
f 101//154 92//154 85//154
f 101//155 85//155 114//155
f 114//156 85//156 84//156
f 114//157 84//157 121//157
f 121//158 84//158 122//158
f 121//159 122//159 108//159
f 108//160 122//160 80//160
f 108//161 80//161 109//161
f 109//162 80//162 79//162
f 109//163 79//163 110//163
f 110//164 79//164 77//164
f 110//165 77//165 75//165
f 39//166 38//166 76//166
f 76//167 38//167 102//167
f 76//168 102//168 75//168
f 75//169 102//169 111//169
f 75//170 111//170 110//170
f 88//171 107//171 106//171
f 20//172 19//172 106//172
f 106//173 19//173 89//173
f 106//174 89//174 88//174
f 107//175 88//175 105//175
f 105//176 88//176 87//176
f 105//177 87//177 103//177
f 87//178 86//178 103//178
f 103//179 86//179 78//179
f 103//180 78//180 104//180
f 104//181 78//181 123//181
f 104//182 123//182 124//182
f 124//183 123//183 83//183
f 124//184 83//184 115//184
f 115//185 83//185 118//185
f 115//186 118//186 116//186
f 116//187 118//187 96//187
f 96//188 118//188 117//188
f 96//189 117//189 97//189
f 91//190 58//190 57//190
f 117//189 90//189 97//189
f 97//191 90//191 91//191
f 97//192 91//192 98//192
f 98//193 91//193 57//193
# Vertices: 124, normals: 193, texture coordinates: 0, faces: 232

