# File generated by ImageToStl.com - Free Image and 3D model conversion tools

o obj1
v 0.08 0.03509741 -0.00801075
v 0.08 0.03591309 -0.0025
v 0.08 -0.03509741 -0.00801075
v 0.08 -0.03591309 -0.0025
v 0.08 0.033103 -0.0141489
v 0.08 -0.033103 -0.0141489
v 0.08 -0.03004464 -0.01983229
v 0.08 -0.01561981 -0.03243488
v 0.08 -0.00957733 -0.03470266
v 0.08 -0.00322702 -0.03585507
v 0.08 -0.02116027 -0.02912461
v 0.08 0.00322702 -0.03585507
v 0.08 0.00957733 -0.03470266
v 0.08 0.01561981 -0.03243488
v 0.08 0.02116027 -0.02912461
v 0.08 0.02602061 -0.02487826
v 0.08 -0.02602061 -0.02487826
v 0.08 0.03004464 -0.01983229
v 0 0.033103 -0.0141489
v 0 -0.03509741 -0.00801075
v 0 0.03509741 -0.00801075
v 0 -0.03591309 -0.0025
v 0 0.03591309 -0.0025
v 0 0.03004464 -0.01983229
v 0 0.02602061 -0.02487826
v 0 0.02116027 -0.02912461
v 0 0.00322702 -0.03585507
v 0 -0.00322702 -0.03585507
v 0 -0.02116027 -0.02912461
v 0 -0.00957733 -0.03470266
v 0 -0.01561981 -0.03243488
v 0 0.00957733 -0.03470266
v 0 -0.02602061 -0.02487826
v 0 -0.03004464 -0.01983229
v 0 0.01561981 -0.03243488
v 0 -0.033103 -0.0141489
v 0.00064803 -0.03591894 -0.00241455
v 0.00064803 0.03591894 0.00241455
v 0 0.03591309 0.0025
v 0 0.03567419 0.0048324
v 0.00125 0.03593484 0.00216506
v 0.08 0.03591309 0.0025
v 0.07935352 0.03591891 0.00241497
v 0.08 0.03567419 0.0048324
v 0.07875 0.03593484 0.00216506
v 0.07823195 0.03595658 0.00176748
v 0.00241476 0.03599418 0.00064727
v 0.00190823 0.03596375 -0.00161513
v 0.00216506 0.03597829 -0.00125
v 0.07758524 0.03599418 -0.00064727
v 0.00241462 0.03599417 -0.00064776
v 0.0775 0.036 0
v 0.0025 0.036 0
v 0.07758538 0.03599417 0.00064776
v 0.07783493 0.03597829 0.00125
v 0.00216506 0.03597829 0.00125
v 0.0017678 0.03595657 0.00176773
v 0.00125 0.03593484 -0.00216506
v 0.00064648 0.03591891 -0.00241497
v 0.07783496 0.03597829 -0.00125005
v 0.07809177 0.03596375 -0.00161513
v 0.07935197 0.03591894 -0.00241455
v 0.07875 0.03593484 -0.00216506
v 0.07875 -0.03593484 -0.00216506
v 0.07935352 -0.03591891 -0.00241497
v 0 -0.03591309 0.0025
v 0.00064648 -0.03591891 0.00241497
v 0 -0.03567419 0.0048324
v 0.00125 -0.03593484 0.00216506
v 0.00176805 -0.03595658 0.00176748
v 0.07758524 -0.03599418 0.00064727
v 0.07809177 -0.03596375 -0.00161513
v 0.07783493 -0.03597829 -0.00125
v 0.00241476 -0.03599418 -0.00064727
v 0.07758538 -0.03599417 -0.00064776
v 0.0025 -0.036 0
v 0.0775 -0.036 0
v 0.00241462 -0.03599417 0.00064776
v 0.00216506 -0.03597829 0.00125
v 0.0782322 -0.03595657 0.00176773
v 0.07875 -0.03593484 0.00216506
v 0.08 -0.03567419 0.0048324
v 0.07935197 -0.03591894 0.00241455
v 0.08 -0.03591309 0.0025
v 0.07783493 -0.03597829 0.00125
v 0.00216503 -0.03597829 -0.00125005
v 0.00190823 -0.03596375 -0.00161513
v 0.00125 -0.03593484 -0.00216506
v 0.08 -0.03423803 0.01112461
v 0 -0.03423803 0.01112461
v 0.08 -0.03170144 0.01705927
v 0 -0.03170144 0.01705927
v 0.08 -0.02814593 0.02244563
v 0 -0.02814593 0.02244563
v 0.08 -0.02368579 0.02711057
v 0 -0.02368579 0.02711057
v 0.08 -0.01846437 0.03090416
v 0 -0.01846437 0.03090416
v 0.08 -0.01264949 0.03370446
v 0 -0.01264949 0.03370446
v 0.08 -0.00642805 0.03542146
v 0 -0.00642805 0.03542146
v 0.08 0 0.036
v 0 0 0.036
v 0.08 0.00642805 0.03542146
v 0 0.00642805 0.03542146
v 0.08 0.01264949 0.03370446
v 0 0.01264949 0.03370446
v 0.08 0.01846437 0.03090416
v 0 0.01846437 0.03090416
v 0.08 0.02368579 0.02711057
v 0 0.02368579 0.02711057
v 0.08 0.02814593 0.02244563
v 0 0.02814593 0.02244563
v 0.08 0.03170144 0.01705927
v 0 0.03170144 0.01705927
v 0.08 0.03423803 0.01112461
v 0 0.03423803 0.01112461
v 0.0025 -0.036 0
v 0.0025 0.036 0
v 0.0775 0.036 0
v 0.0775 -0.036 0
vn 1 0 0
vn -1 -0 -0
vn 0.01038 -0.98917 -0.14641
vn 0.00446 0.99479 0.10189
vn 0.01738 0.99429 0.1053
vn -0.00445 0.99479 0.10189
vn -0.01736 0.99429 0.10529
vn -0.00032 0.99848 0.05503
vn 0.00011 0.99921 -0.03986
vn 0 0.99965 -0.02636
vn -0 0.99996 -0.00899
vn -0 0.99996 -0.00899
vn -0 0.99996 0.00899
vn 0 0.99996 0.00899
vn -0 0.99965 0.02636
vn -0.00013 0.99912 0.04201
vn -0.00117 0.99521 0.0978
vn 0.00264 0.99962 0.02745
vn 0.00191 0.99906 0.04337
vn 0.0357 0.98816 -0.14919
vn 0.01036 0.98917 -0.14641
vn -6E-05 0.99965 -0.02638
vn -0 0.99921 -0.03979
vn -0 0.99862 -0.05251
vn -0.01038 0.98917 -0.14641
vn -0.03574 0.98816 -0.1492
vn -0.0357 -0.98816 -0.14919
vn -0.01036 -0.98917 -0.14641
vn 0.00445 -0.99479 0.10189
vn 0.01736 -0.99429 0.10529
vn 0.00032 -0.99848 0.05503
vn -0.00011 -0.99921 -0.03986
vn -0 -0.99965 -0.02636
vn 0 -0.99996 -0.00899
vn 0 -0.99996 -0.00899
vn 0 -0.99996 0.00899
vn -0 -0.99996 0.00899
vn 0 -0.99965 0.02636
vn 0.00013 -0.99912 0.04201
vn -0.05109 -0.99136 0.12082
vn -0.01738 -0.99429 0.1053
vn -0.00446 -0.99479 0.10189
vn 0.00117 -0.99521 0.0978
vn -0.00264 -0.99962 0.02745
vn -0.00191 -0.99906 0.04337
vn 6E-05 -0.99965 -0.02638
vn 0 -0.99921 -0.03979
vn 0 -0.99862 -0.05251
vn 0 -0.98989 -0.14181
vn -0 0.98989 -0.14181
vn -0 0.95106 -0.30902
vn -0 0.8806 -0.47387
vn -0 0.78183 -0.62349
vn -0 0.65794 -0.75307
vn -0 0.5129 -0.85845
vn -0 0.35137 -0.93623
vn -0 0.17856 -0.98393
vn 0 -0 -1
vn 0 -0.17856 -0.98393
vn 0 -0.35137 -0.93623
vn 0 -0.5129 -0.85845
vn 0 -0.65794 -0.75307
vn 0 -0.78183 -0.62349
vn 0 -0.8806 -0.47387
vn 0 -0.95106 -0.30902
vn 0.03574 -0.98816 -0.1492
vn 0 -0.99578 0.09175
vn 0 -0.97493 0.22252
vn 0 -0.91953 0.39302
vn 0 -0.83457 0.5509
vn 0 -0.72279 0.69106
vn 0 -0.58779 0.80902
vn 0 -0.43388 0.90097
vn 0 -0.26604 0.96396
vn 0 -0.08964 0.99597
vn -0 0.08964 0.99597
vn -0 0.26604 0.96396
vn -0 0.43388 0.90097
vn -0 0.58779 0.80902
vn -0 0.72279 0.69106
vn -0 0.83457 0.5509
vn -0 0.91953 0.39302
vn -0 0.97493 0.22252
vn -0 0.99578 0.09175
vn 0.05109 0.99136 0.12081
vn -0.38258 0 0.92392
vn -0.13041 0 0.99146
vn -0.13073 0 0.99142
vn -0.38287 -0 0.9238
vn -0.64115 0 0.76742
vn -0.81793 -0 0.57532
vn -0.81792 -0 0.57533
vn -0.92386 0 0.38274
vn -0.92382 0 0.38282
vn -0.99144 -0 0.13057
vn -0.99143 -0 0.13067
vn -0.99143 -0 -0.13067
vn -0.99144 0 -0.13057
vn -0.92382 -0 -0.38282
vn -0.92386 -0 -0.38273
vn -0.79336 -0 -0.60875
vn -0.7934 -0 -0.6087
vn -0.60877 0 -0.79335
vn -0.13041 -0 -0.99146
vn -0.60883 -0 -0.7933
vn -0.38258 -0 -0.92392
vn -0.38287 0 -0.9238
vn -0.13073 -0 -0.99142
vn 0.38257 0 0.92392
vn 0.13041 0 0.99146
vn 0.13073 -0 0.99142
vn 0.38287 0 0.9238
vn 0.64115 0 0.76741
vn 0.81792 0 0.57533
vn 0.81791 0 0.57534
vn 0.92386 -0 0.38274
vn 0.92382 -0 0.38282
vn 0.99144 0 0.13057
vn 0.99143 0 0.13067
vn 0.99143 0 -0.13067
vn 0.99144 -0 -0.13057
vn 0.92382 0 -0.38282
vn 0.92386 0 -0.38272
vn 0.79336 0 -0.60876
vn 0.7934 0 -0.6087
vn 0.60877 -0 -0.79335
vn 0.13041 -0 -0.99146
vn 0.60883 -0 -0.7933
vn 0.38257 -0 -0.92392
vn 0.38287 -0 -0.9238
vn 0.13073 0 -0.99142
f 1//1 2//1 3//1
f 3//1 2//1 4//1
f 1//1 3//1 5//1
f 5//1 3//1 6//1
f 5//1 6//1 7//1
f 8//1 9//1 10//1
f 8//1 10//1 11//1
f 11//1 10//1 12//1
f 11//1 12//1 13//1
f 13//1 14//1 11//1
f 11//1 14//1 15//1
f 11//1 15//1 16//1
f 7//1 17//1 5//1
f 5//1 17//1 11//1
f 5//1 11//1 18//1
f 18//1 11//1 16//1
f 19//2 20//2 21//2
f 21//2 20//2 22//2
f 21//2 22//2 23//2
f 19//2 24//2 20//2
f 20//2 24//2 25//2
f 20//2 25//2 26//2
f 27//2 28//2 29//2
f 29//2 28//2 30//2
f 29//2 30//2 31//2
f 27//2 29//2 32//2
f 32//2 29//2 33//2
f 32//2 33//2 34//2
f 26//2 35//2 20//2
f 20//2 35//2 32//2
f 20//2 32//2 36//2
f 36//2 32//2 34//2
f 37//3 22//3 20//3
f 38//4 39//4 40//4
f 38//5 40//5 41//5
f 42//6 43//6 44//6
f 44//7 43//7 45//7
f 45//8 46//8 47//8
f 48//9 49//9 50//9
f 50//10 49//10 51//10
f 50//11 51//11 52//11
f 52//12 51//12 53//12
f 52//13 53//13 54//13
f 54//14 53//14 47//14
f 54//15 47//15 55//15
f 55//16 47//16 46//16
f 45//17 47//17 44//17
f 44//18 47//18 56//18
f 44//19 56//19 57//19
f 58//20 21//20 59//20
f 59//21 21//21 23//21
f 50//22 60//22 48//22
f 48//23 60//23 61//23
f 48//24 61//24 58//24
f 2//25 1//25 62//25
f 62//26 1//26 63//26
f 64//27 3//27 65//27
f 65//28 3//28 4//28
f 66//29 67//29 68//29
f 68//30 67//30 69//30
f 69//31 70//31 71//31
f 72//32 73//32 74//32
f 74//33 73//33 75//33
f 74//34 75//34 76//34
f 76//35 75//35 77//35
f 76//36 77//36 78//36
f 78//37 77//37 71//37
f 78//38 71//38 79//38
f 79//39 71//39 70//39
f 80//40 81//40 82//40
f 82//41 81//41 83//41
f 82//42 83//42 84//42
f 69//43 71//43 68//43
f 68//44 71//44 85//44
f 68//45 85//45 80//45
f 74//46 86//46 72//46
f 72//47 86//47 87//47
f 72//48 87//48 64//48
f 64//48 87//48 88//48
f 64//49 88//49 3//49
f 61//24 63//24 58//24
f 58//50 63//50 1//50
f 58//50 1//50 21//50
f 21//51 1//51 5//51
f 21//51 5//51 19//51
f 19//52 5//52 18//52
f 19//52 18//52 24//52
f 24//53 18//53 16//53
f 24//53 16//53 25//53
f 25//54 16//54 15//54
f 25//54 15//54 26//54
f 26//55 15//55 14//55
f 26//55 14//55 35//55
f 35//56 14//56 13//56
f 35//56 13//56 32//56
f 32//57 13//57 12//57
f 32//57 12//57 27//57
f 27//58 12//58 10//58
f 27//58 10//58 28//58
f 28//59 10//59 9//59
f 28//59 9//59 30//59
f 30//60 9//60 8//60
f 30//60 8//60 31//60
f 31//61 8//61 11//61
f 31//61 11//61 29//61
f 29//62 11//62 17//62
f 29//62 17//62 33//62
f 33//63 17//63 7//63
f 33//63 7//63 34//63
f 34//64 7//64 6//64
f 34//64 6//64 36//64
f 36//65 6//65 3//65
f 36//65 3//65 20//65
f 20//49 3//49 88//49
f 20//66 88//66 37//66
f 80//67 82//67 68//67
f 68//68 82//68 89//68
f 68//68 89//68 90//68
f 90//69 89//69 91//69
f 90//69 91//69 92//69
f 92//70 91//70 93//70
f 92//70 93//70 94//70
f 94//71 93//71 95//71
f 94//71 95//71 96//71
f 96//72 95//72 97//72
f 96//72 97//72 98//72
f 98//73 97//73 99//73
f 98//73 99//73 100//73
f 100//74 99//74 101//74
f 100//74 101//74 102//74
f 102//75 101//75 103//75
f 102//75 103//75 104//75
f 104//76 103//76 105//76
f 104//76 105//76 106//76
f 106//77 105//77 107//77
f 106//77 107//77 108//77
f 108//78 107//78 109//78
f 108//78 109//78 110//78
f 110//79 109//79 111//79
f 110//79 111//79 112//79
f 112//80 111//80 113//80
f 112//80 113//80 114//80
f 114//81 113//81 115//81
f 114//81 115//81 116//81
f 116//82 115//82 117//82
f 116//82 117//82 118//82
f 118//83 117//83 44//83
f 118//83 44//83 40//83
f 40//84 44//84 57//84
f 40//85 57//85 41//85
f 117//1 82//1 44//1
f 44//1 82//1 84//1
f 44//1 84//1 42//1
f 109//1 107//1 93//1
f 117//1 115//1 82//1
f 82//1 115//1 113//1
f 82//1 113//1 89//1
f 89//1 113//1 91//1
f 91//1 113//1 93//1
f 93//1 113//1 111//1
f 93//1 111//1 109//1
f 97//1 103//1 99//1
f 99//1 103//1 101//1
f 107//1 105//1 93//1
f 93//1 105//1 103//1
f 93//1 103//1 95//1
f 95//1 103//1 97//1
f 39//2 66//2 40//2
f 40//2 66//2 68//2
f 40//2 68//2 118//2
f 118//2 68//2 116//2
f 116//2 68//2 114//2
f 114//2 68//2 90//2
f 114//2 90//2 92//2
f 92//2 94//2 114//2
f 114//2 94//2 96//2
f 114//2 96//2 98//2
f 98//2 100//2 114//2
f 114//2 100//2 102//2
f 114//2 102//2 104//2
f 104//2 106//2 114//2
f 114//2 106//2 108//2
f 114//2 108//2 112//2
f 112//2 108//2 110//2
f 88//86 58//86 59//86
f 23//87 22//87 59//87
f 59//88 22//88 37//88
f 59//89 37//89 88//89
f 58//90 88//90 48//90
f 48//90 88//90 87//90
f 48//91 87//91 49//91
f 87//92 86//92 49//92
f 49//93 86//93 74//93
f 49//94 74//94 51//94
f 51//95 74//95 119//95
f 51//96 119//96 120//96
f 120//97 119//97 78//97
f 120//98 78//98 47//98
f 47//99 78//99 79//99
f 47//100 79//100 56//100
f 56//101 79//101 57//101
f 57//102 79//102 70//102
f 57//103 70//103 41//103
f 67//104 66//104 39//104
f 70//105 69//105 41//105
f 41//106 69//106 67//106
f 41//107 67//107 38//107
f 38//108 67//108 39//108
f 63//109 64//109 65//109
f 4//110 2//110 65//110
f 65//111 2//111 62//111
f 65//112 62//112 63//112
f 64//113 63//113 72//113
f 72//113 63//113 61//113
f 72//114 61//114 73//114
f 61//115 60//115 73//115
f 73//116 60//116 50//116
f 73//117 50//117 75//117
f 75//118 50//118 121//118
f 75//119 121//119 122//119
f 122//120 121//120 54//120
f 122//121 54//121 71//121
f 71//122 54//122 55//122
f 71//123 55//123 85//123
f 85//124 55//124 80//124
f 80//125 55//125 46//125
f 80//126 46//126 81//126
f 43//127 42//127 84//127
f 46//128 45//128 81//128
f 81//129 45//129 43//129
f 81//130 43//130 83//130
f 83//131 43//131 84//131
# Vertices: 122, normals: 131, texture coordinates: 0, faces: 232

