# File generated by ImageToStl.com - Free Image and 3D model conversion tools

o obj1
v -0 0.033103 -0.0141489
v -0 -0.03509741 -0.00801075
v -0 0.03509741 -0.00801075
v -0 -0.03591309 -0.0025
v -0 0.03591309 -0.0025
v -0 0.03004464 -0.01983229
v -0 0.02602061 -0.02487826
v -0 0.02116027 -0.02912461
v -0 0.01561981 -0.03243488
v -0 0.00957733 -0.03470266
v -0 0.00322702 -0.03585507
v -0 -0.00322702 -0.03585507
v -0 -0.00957733 -0.03470266
v -0 -0.033103 -0.0141489
v -0 -0.01561981 -0.03243488
v -0 -0.02116027 -0.02912461
v -0 -0.02602061 -0.02487826
v -0 -0.03004464 -0.01983229
v 0.08 -0.03290517 0.0025
v 0.08 0.03290517 0.0025
v 0.08 0.03270134 0.0044297
v 0.08 -0.01159537 0.03089575
v 0.08 0.03138487 0.01019756
v 0.08 0.01159537 0.03089575
v 0.08 0.00589238 0.03246967
v 0.08 -0.02580044 0.02057516
v 0.08 -0.02905965 0.01563767
v 0.08 0.02905965 0.01563767
v 0.08 0.02580044 0.02057516
v 0.08 0.02171198 0.02485136
v 0.08 -0.01692568 0.02832881
v 0.08 -0.02171198 0.02485136
v 0.08 -0.03138487 0.01019756
v 0.08 -0.03270134 0.0044297
v 0.08 0 0.033
v 0.08 -0.00589238 0.03246967
v 0.08 0.01692568 0.02832881
v -0 0.03591309 0.0025
v -0 -0.03591309 0.0025
v -0 -0.03567419 0.0048324
v -0 0.03170144 0.01705927
v -0 -0.03423803 0.01112461
v -0 0.03423803 0.01112461
v -0 0.03567419 0.0048324
v -0 -0.03170144 0.01705927
v -0 -0.02814593 0.02244563
v -0 -0.02368579 0.02711057
v -0 -0.01846437 0.03090416
v -0 -0.01264949 0.03370446
v -0 -0.00642805 0.03542146
v -0 0 0.036
v -0 0.00642805 0.03542146
v -0 0.01264949 0.03370446
v -0 0.01846437 0.03090416
v -0 0.02368579 0.02711057
v -0 0.02814593 0.02244563
v 0.08 -0.0029581 -0.03286715
v 0.08 0.0029581 -0.03286715
v 0.08 0.00877922 -0.03181078
v 0.08 0.01939691 -0.02669756
v 0.08 0.02385223 -0.02280507
v 0.08 -0.03217262 -0.00734319
v 0.08 0.02754092 -0.0181796
v 0.08 -0.03034442 -0.01296983
v 0.08 -0.02754092 -0.0181796
v 0.08 -0.02385223 -0.02280507
v 0.08 -0.01939691 -0.02669756
v 0.08 0.01431816 -0.02973197
v 0.08 0.03290517 -0.0025
v 0.08 -0.03290517 -0.0025
v 0.08 0.03217262 -0.00734319
v 0.08 0.03034442 -0.01296983
v 0.08 -0.01431816 -0.02973197
v 0.08 -0.00877922 -0.03181078
v 0.07935179 0.03293592 -0.0024145
v 0.07935179 -0.03293592 0.0024145
v 0.00216506 -0.03589705 -0.00125
v 0.00191095 -0.03589216 -0.00161192
v 0.07758543 -0.0330842 -0.00064795
v 0.0006463 -0.03589461 0.00241502
v 0.00125 -0.03588788 0.00216506
v 0.07758528 -0.03308422 0.00064741
v 0.00176806 -0.0358902 0.00176748
v 0.00216506 -0.03589705 0.00125
v 0.00241465 -0.03590361 0.00064768
v 0.0775 -0.03309375 0
v 0.0025 -0.03590625 0
v 0.00241477 -0.03590361 -0.0006472
v 0.07875 -0.03297588 0.00216506
v 0.07783493 -0.03305757 0.00125
v 0.07823233 -0.033019 0.00176786
v 0.07875 -0.03297588 -0.00216506
v 0.07935337 -0.03293584 -0.00241493
v 0.07798804 -0.03304214 -0.00148392
v 0.07783493 -0.03305757 -0.00125
v 0.00064784 -0.03589458 -0.0024146
v 0.00125 -0.03588788 -0.00216506
v 0.00125 0.03588788 -0.00216506
v 0.0006463 0.03589461 -0.00241502
v 0.00064784 0.03589458 0.0024146
v 0.07935337 0.03293584 0.00241493
v 0.07875 0.03297588 0.00216506
v 0.07823203 0.03301902 0.00176756
v 0.07783493 0.03305757 0.00125
v 0.07758543 0.0330842 0.00064795
v 0.00125 0.03588788 0.00216506
v 0.00176783 0.0358902 0.00176771
v 0.00216506 0.03589705 0.00125
v 0.00191095 0.03589216 -0.00161192
v 0.00216506 0.03589705 -0.00125
v 0.07758528 0.03308422 -0.00064741
v 0.00241465 0.03590361 -0.00064768
v 0.0775 0.03309375 0
v 0.0025 0.03590625 0
v 0.00241477 0.03590361 0.0006472
v 0.077835 0.03305756 -0.00125011
v 0.07798804 0.03304214 -0.00148392
v 0.07875 0.03297588 -0.00216506
v 0.08 0 0.033
v -0 0 0.036
v 0.0025 -0.03590625 0
v 0.0025 0.03590625 0
v 0.0775 -0.03309375 0
v 0.0775 0.03309375 0
vn -1 -0 0
vn -1 -0 0
vn -1 -0 0
vn -1 -0 0
vn -1 -0 0
vn -1 -0 0
vn -1 -0 0
vn -1 -0 0
vn -1 -0 0
vn -1 -0 0
vn -1 -0 0
vn -1 -0 0
vn -1 -0 0
vn -1 -0 0
vn 1 0 0
vn -1 -0 0
vn -1 -0 0
vn -1 -0 0
vn -1 -0 0
vn -1 -0 0
vn -1 -0 0
vn -1 -0 0
vn -1 -0 0
vn -1 -0 0
vn -1 -0 0
vn -1 -0 0
vn 0.02718 0.98839 -0.1495
vn 0.03332 -0.99392 0.10498
vn 0.03756 -0.9985 -0.03987
vn 0.0418 -0.99393 0.1018
vn 0.05461 -0.99296 0.10514
vn 0.03847 -0.99447 0.0977
vn 0.03774 -0.99777 0.05501
vn 0.03757 -0.99841 0.04204
vn 0.03747 -0.99895 0.0264
vn 0.03748 -0.99925 0.00978
vn 0.03747 -0.99926 0.00901
vn 0.03747 -0.99925 -0.00978
vn 0.03748 -0.99926 -0.00901
vn 0.03747 -0.99895 -0.02639
vn 0.0208 -0.99382 0.109
vn 0.03495 -0.99895 0.0297
vn 0.03572 -0.99826 0.04694
vn 0.03625 -0.99748 0.06104
vn 0.00234 -0.98826 -0.15274
vn 0.02721 -0.98839 -0.1495
vn 0.03747 -0.99777 -0.05515
vn 0.03747 -0.99844 -0.0413
vn 0.03743 -0.99889 -0.02868
vn 0.04751 -0.98811 -0.14626
vn 0.07269 -0.98618 -0.1489
vn 0.07265 0.98618 -0.14889
vn 0.04748 0.98811 -0.14626
vn 0.04181 0.99393 0.1018
vn 0.03333 0.99392 0.10498
vn 0.03625 0.99748 0.06103
vn 0.03572 0.99826 0.04694
vn 0.03495 0.99895 0.02971
vn 0.05463 0.99295 0.10515
vn 0.088 0.98881 0.12046
vn 0.03819 0.99501 0.09216
vn 0.03757 0.99841 0.04205
vn 0.03756 0.9985 -0.03987
vn 0.03747 0.99895 -0.0264
vn 0.03748 0.99925 -0.00978
vn 0.03747 0.99926 -0.00901
vn 0.03747 0.99925 0.00978
vn 0.03748 0.99926 0.00901
vn 0.03747 0.99895 0.02639
vn 0.03743 0.99889 -0.02867
vn 0.03747 0.99844 -0.0413
vn 0.03747 0.99792 -0.0525
vn 0.03749 0.99778 -0.05513
vn 0.03717 0.98921 -0.14171
vn 0.0375 -0.99792 -0.05253
vn 0.03717 -0.98921 -0.14171
vn 0.03736 -0.98882 -0.14437
vn 0.03732 -0.95039 -0.3088
vn 0.03732 -0.95039 -0.3088
vn 0.03732 -0.87998 -0.47354
vn 0.03732 -0.87998 -0.47354
vn 0.03732 -0.78129 -0.62306
vn 0.03732 -0.78129 -0.62306
vn 0.03732 -0.65748 -0.75255
vn 0.03732 -0.65748 -0.75255
vn 0.03732 -0.51254 -0.85785
vn 0.03732 -0.51254 -0.85785
vn 0.03732 -0.35113 -0.93558
vn 0.03732 -0.35113 -0.93558
vn 0.03732 -0.17843 -0.98324
vn 0.03732 -0.17843 -0.98324
vn 0.03732 -0 -0.9993
vn 0.03732 0.17843 -0.98324
vn 0.03732 0.17843 -0.98324
vn 0.03732 0.35113 -0.93558
vn 0.03732 0.35113 -0.93558
vn 0.03732 0.51254 -0.85785
vn 0.03732 0.51254 -0.85785
vn 0.03732 0.65748 -0.75255
vn 0.03732 0.65748 -0.75255
vn 0.03732 0.78129 -0.62306
vn 0.03732 0.78129 -0.62306
vn 0.03732 0.87998 -0.47354
vn 0.03732 0.87998 -0.47354
vn 0.03732 0.95039 -0.3088
vn 0.03732 0.95039 -0.3088
vn 0.03736 0.98882 -0.14437
vn 0.0023 0.98826 -0.15275
vn 0.03745 -0.9943 0.09986
vn 0.03732 -0.97425 0.22237
vn 0.03732 -0.97425 0.22237
vn 0.03732 -0.91889 0.39275
vn 0.03732 -0.91889 0.39275
vn 0.03732 -0.83399 0.55051
vn 0.03732 -0.83399 0.55051
vn 0.03732 -0.72229 0.69058
vn 0.03732 -0.72229 0.69058
vn 0.03732 -0.58738 0.80845
vn 0.03732 -0.58738 0.80845
vn 0.03732 -0.43358 0.90034
vn 0.03732 -0.43358 0.90034
vn 0.03732 -0.26585 0.96329
vn 0.03732 -0.26585 0.96329
vn 0.03732 -0.08958 0.99528
vn 0.03732 -0.08958 0.99528
vn 0.03732 0.08958 0.99528
vn 0.03732 0.08958 0.99528
vn 0.03732 0.26585 0.96329
vn 0.03732 0.26585 0.96329
vn 0.03732 0.43358 0.90034
vn 0.03732 0.43358 0.90034
vn 0.03732 0.58738 0.80845
vn 0.03732 0.58738 0.80845
vn 0.03732 0.72229 0.69058
vn 0.03732 0.72229 0.69058
vn 0.03732 0.83399 0.55051
vn 0.03732 0.83399 0.55051
vn 0.03732 0.91889 0.39275
vn 0.03732 0.91889 0.39275
vn 0.03732 0.97425 0.22237
vn 0.03732 0.97425 0.22237
vn 0.03746 0.99391 0.10366
vn 0.03657 0.99678 0.07143
vn -0.13037 0 0.99147
vn -0.13069 0 0.99142
vn -0.38254 -0 0.92394
vn -0.38284 0 0.92382
vn -0.6418 0 0.76688
vn -0.81841 0 0.57464
vn -0.81841 -0 0.57464
vn -0.92387 0 0.38271
vn -0.92383 0 0.3828
vn -0.99144 -0 0.13056
vn -0.99143 -0 0.13066
vn -0.99143 -0 -0.13066
vn -0.99144 0 -0.13056
vn -0.92383 -0 -0.3828
vn -0.13037 -0 -0.99147
vn -0.13069 -0 -0.99142
vn -0.38254 0 -0.92394
vn -0.38284 -0 -0.92382
vn -0.60883 -0 -0.7933
vn -0.60877 0 -0.79334
vn -0.7934 -0 -0.6087
vn -0.79336 -0 -0.60875
vn -0.92387 -0 -0.38271
vn 0.3826 -0 -0.92391
vn 0.13044 -0 -0.99146
vn 0.13076 0 -0.99141
vn 0.38291 -0 -0.92379
vn 0.60881 -0 -0.79332
vn 0.60874 -0 -0.79337
vn 0.79339 0 -0.60872
vn 0.79333 -0 -0.60879
vn 0.92385 -0 -0.38275
vn 0.92381 0 -0.38285
vn 0.99144 -0 -0.1306
vn 0.99142 0 -0.13071
vn 0.99142 0 0.13071
vn 0.99144 0 0.1306
vn 0.92381 -0 0.38285
vn 0.92384 -0 0.38278
vn 0.8367 0 0.54766
vn 0.83671 0 0.54765
vn 0.66646 0 0.74554
vn 0.13044 0 0.99146
vn 0.3826 0 0.92391
vn 0.38291 0 0.92379
vn 0.13076 -0 0.99141
f 1//1 2//1 3//1
f 3//2 2//2 4//2
f 3//2 4//2 5//2
f 1//3 6//3 2//3
f 2//4 6//4 7//4
f 2//5 7//5 8//5
f 8//6 9//6 2//6
f 2//7 9//7 10//7
f 2//8 10//8 11//8
f 11//2 12//2 2//2
f 2//9 12//9 13//9
f 2//10 13//10 14//10
f 13//11 15//11 16//11
f 16//12 17//12 13//12
f 13//13 17//13 18//13
f 13//14 18//14 14//14
f 19//15 20//15 21//15
f 22//15 21//15 23//15
f 24//15 25//15 23//15
f 21//15 26//15 27//15
f 28//15 29//15 30//15
f 22//15 31//15 21//15
f 21//15 31//15 32//15
f 21//15 32//15 26//15
f 27//15 33//15 21//15
f 21//15 33//15 34//15
f 21//15 34//15 19//15
f 25//15 35//15 23//15
f 23//15 35//15 36//15
f 23//15 36//15 22//15
f 28//15 30//15 23//15
f 23//15 30//15 37//15
f 23//15 37//15 24//15
f 38//16 39//16 40//16
f 41//17 40//17 42//17
f 41//4 43//4 40//4
f 40//2 43//2 44//2
f 40//16 44//16 38//16
f 42//18 45//18 41//18
f 41//2 45//2 46//2
f 41//2 46//2 47//2
f 47//19 48//19 41//19
f 41//3 48//3 49//3
f 41//20 49//20 50//20
f 50//21 51//21 41//21
f 41//22 51//22 52//22
f 41//23 52//23 53//23
f 53//24 54//24 41//24
f 41//25 54//25 55//25
f 41//26 55//26 56//26
f 57//15 58//15 59//15
f 60//15 61//15 62//15
f 62//15 61//15 63//15
f 64//15 65//15 59//15
f 59//15 65//15 66//15
f 59//15 66//15 67//15
f 64//15 59//15 62//15
f 62//15 59//15 68//15
f 62//15 68//15 60//15
f 69//15 70//15 71//15
f 71//15 70//15 62//15
f 71//15 62//15 72//15
f 72//15 62//15 63//15
f 67//15 73//15 59//15
f 59//15 73//15 74//15
f 59//15 74//15 57//15
f 75//27 69//27 71//27
f 76//28 19//28 34//28
f 77//29 78//29 79//29
f 39//30 80//30 40//30
f 40//31 80//31 81//31
f 40//32 81//32 82//32
f 82//33 81//33 83//33
f 83//34 84//34 82//34
f 82//35 84//35 85//35
f 82//36 85//36 86//36
f 86//37 85//37 87//37
f 86//38 87//38 79//38
f 79//39 87//39 88//39
f 79//40 88//40 77//40
f 76//41 34//41 89//41
f 82//42 90//42 40//42
f 40//43 90//43 91//43
f 40//44 91//44 89//44
f 92//45 62//45 93//45
f 93//46 62//46 70//46
f 92//47 94//47 78//47
f 78//48 94//48 95//48
f 78//49 95//49 79//49
f 4//50 2//50 96//50
f 96//51 2//51 97//51
f 98//52 3//52 99//52
f 99//53 3//53 5//53
f 100//54 38//54 44//54
f 21//55 20//55 101//55
f 102//56 103//56 44//56
f 44//57 103//57 104//57
f 44//58 104//58 105//58
f 100//59 44//59 106//59
f 106//60 44//60 107//60
f 107//61 44//61 105//61
f 107//62 105//62 108//62
f 109//63 110//63 111//63
f 111//64 110//64 112//64
f 111//65 112//65 113//65
f 113//66 112//66 114//66
f 113//67 114//67 105//67
f 105//68 114//68 115//68
f 105//69 115//69 108//69
f 111//70 116//70 109//70
f 109//71 116//71 117//71
f 109//72 117//72 98//72
f 98//73 117//73 118//73
f 98//74 118//74 3//74
f 78//75 97//75 92//75
f 92//76 97//76 2//76
f 92//77 2//77 62//77
f 62//78 2//78 14//78
f 62//79 14//79 64//79
f 64//80 14//80 18//80
f 64//81 18//81 65//81
f 65//82 18//82 17//82
f 65//83 17//83 66//83
f 66//84 17//84 16//84
f 66//85 16//85 67//85
f 67//86 16//86 15//86
f 67//87 15//87 73//87
f 73//88 15//88 13//88
f 73//89 13//89 74//89
f 74//90 13//90 12//90
f 74//91 12//91 57//91
f 57//92 12//92 11//92
f 57//92 11//92 58//92
f 58//93 11//93 10//93
f 58//94 10//94 59//94
f 59//95 10//95 9//95
f 59//96 9//96 68//96
f 68//97 9//97 8//97
f 68//98 8//98 60//98
f 60//99 8//99 7//99
f 60//100 7//100 61//100
f 61//101 7//101 6//101
f 61//102 6//102 63//102
f 63//103 6//103 1//103
f 63//104 1//104 72//104
f 72//105 1//105 3//105
f 72//106 3//106 71//106
f 71//107 3//107 118//107
f 71//108 118//108 75//108
f 89//109 34//109 40//109
f 40//110 34//110 33//110
f 40//111 33//111 42//111
f 42//112 33//112 27//112
f 42//113 27//113 45//113
f 45//114 27//114 26//114
f 45//115 26//115 46//115
f 46//116 26//116 32//116
f 46//117 32//117 47//117
f 47//118 32//118 31//118
f 47//119 31//119 48//119
f 48//120 31//120 22//120
f 48//121 22//121 49//121
f 49//122 22//122 36//122
f 49//123 36//123 50//123
f 50//124 36//124 119//124
f 50//125 119//125 120//125
f 120//126 119//126 25//126
f 120//127 25//127 52//127
f 52//128 25//128 24//128
f 52//129 24//129 53//129
f 53//130 24//130 37//130
f 53//131 37//131 54//131
f 54//132 37//132 30//132
f 54//133 30//133 55//133
f 55//134 30//134 29//134
f 55//135 29//135 56//135
f 56//136 29//136 28//136
f 56//137 28//137 41//137
f 41//138 28//138 23//138
f 41//139 23//139 43//139
f 43//140 23//140 21//140
f 43//141 21//141 44//141
f 44//142 21//142 101//142
f 44//143 101//143 102//143
f 5//144 4//144 99//144
f 99//145 4//145 96//145
f 99//146 96//146 98//146
f 98//147 96//147 97//147
f 98//148 97//148 109//148
f 97//148 78//148 109//148
f 109//149 78//149 77//149
f 109//150 77//150 110//150
f 110//151 77//151 88//151
f 110//152 88//152 112//152
f 112//153 88//153 121//153
f 112//154 121//154 122//154
f 122//155 121//155 85//155
f 122//156 85//156 115//156
f 115//157 85//157 84//157
f 39//158 38//158 80//158
f 80//159 38//159 100//159
f 80//160 100//160 81//160
f 81//161 100//161 106//161
f 81//162 106//162 83//162
f 83//163 106//163 107//163
f 83//164 107//164 84//164
f 84//165 107//165 108//165
f 84//166 108//166 115//166
f 89//167 102//167 101//167
f 20//168 19//168 101//168
f 101//169 19//169 76//169
f 101//170 76//170 89//170
f 102//171 89//171 103//171
f 103//172 89//172 91//172
f 103//173 91//173 104//173
f 91//174 90//174 104//174
f 104//175 90//175 82//175
f 104//176 82//176 105//176
f 105//177 82//177 123//177
f 105//178 123//178 124//178
f 124//179 123//179 79//179
f 124//180 79//180 111//180
f 111//181 79//181 95//181
f 111//182 95//182 116//182
f 116//183 95//183 117//183
f 117//184 95//184 94//184
f 117//185 94//185 118//185
f 93//186 70//186 69//186
f 94//185 92//185 118//185
f 118//187 92//187 93//187
f 118//188 93//188 75//188
f 75//189 93//189 69//189
# Vertices: 124, normals: 189, texture coordinates: 0, faces: 232

