# File generated by ImageToStl.com - Free Image and 3D model conversion tools

o obj1
v 0.00232107 0.00092877 -0.00177127
v 0.00219028 0.00120527 -0.00159603
v 0.01 0.00120527 -0.00159603
v 0.002436 -0.00056204 0.0019194
v 0.00233565 -0.00089148 0.00179033
v 0.01 -0.00089148 0.00179033
v 0.00154618 -0.00196452 0.00037505
v 0.01 -0.002 -0
v 0.01 -0.00186494 0.00072248
v 0.0021603 -0.00125821 0.00155464
v 0.0020163 -0.00147802 0.00134739
v 0.01 -0.00147802 0.00134739
v 0.00183931 -0.0016932 0.00106445
v 0.00166493 -0.00186494 0.00072248
v 0.00228768 -0.00100824 0.00172727
v 0.01 0.00054733 0.00192365
v 0.00249311 0.00018552 0.00199138
v 0.01 -0.00018454 0.00199147
v 0.00249318 -0.00018454 0.00199147
v 0.00249143 -0.00020682 0.00198928
v 0.00219028 0.00120527 0.00159603
v 0.00232161 0.00092742 0.00177197
v 0.01 0.00120527 0.00159603
v 0.0024235 0.00061371 0.00190351
v 0.00243919 0.00054804 0.00192345
v 0.00209292 0.00136737 0.00145955
v 0.01 0.00170043 0.00105286
v 0.00196362 0.00154732 0.0012672
v 0.01 0.00196595 0.0003675
v 0.00166833 0.0018619 0.00073028
v 0.00183263 0.00170043 0.00105286
v 0.01 0.002 0
v 0.00153553 0.00197285 0.00032842
v 0.00154463 0.00196574 0.00036861
v 0.01 0.00196595 -0.0003675
v 0.00152879 0.00197808 -0.00029528
v 0.0015 0.002 -6.8E-07
v 0.00196302 0.00154809 -0.00126627
v 0.00183263 0.00170043 -0.00105286
v 0.01 0.00170043 -0.00105286
v 0.00166796 0.00186223 -0.00072944
v 0.00154436 0.00196595 -0.0003675
v 0.00208888 0.00137353 -0.00145375
v 0.01 0.00054733 -0.00192365
v 0.00243935 0.00054733 -0.00192365
v 0.00242301 0.00061566 -0.00190288
v 0.00233565 -0.00089148 -0.00179033
v 0.00243587 -0.00056263 -0.00191923
v 0.01 -0.00089148 -0.00179033
v 0.00249146 -0.00020645 -0.00198932
v 0.01 -0.00018454 -0.00199147
v 0.00249318 -0.00018454 -0.00199147
v 0.00249308 0.0001859 -0.00199134
v 0.00228943 -0.00100424 -0.0017296
v 0.01 -0.00147802 -0.00134739
v 0.00216034 -0.00125815 -0.00155469
v 0.01 -0.00186494 -0.00072248
v 0.00183931 -0.0016932 -0.00106445
v 0.0020163 -0.00147802 -0.00134739
v 0.0015 -0.002 -0
v 0.00154626 -0.00196445 -0.00037541
v 0.00166493 -0.00186494 -0.00072248
v 0.01 0 -0
v 0.01 0.002 -0
v -0.00219028 0.00120527 -0.00159603
v -0.00209292 0.00136737 -0.00145955
v -0.00209292 0.00136737 -0.01
v -0.0020163 -0.00147802 0.00134739
v -0.00183931 -0.0016932 0.00106445
v -0.00183931 -0.0016932 0.01
v 0.00209292 0.00136737 0.01
v 0.00183931 -0.0016932 -0.01
v 0.00118987 -0.00219868 -0.01
v 0.00183931 -0.0016932 0.01
v 0.00118987 -0.00219868 0.01
v 0.00249146 -0.00020645 -0.01
v 0.00228943 -0.00100424 -0.01
v 0.0024235 0.00061371 -0.01
v 0.00209292 0.00136737 -0.01
v 0.00081175 0.00236454 -0.01
v 0.00153553 0.00197285 -0.01
v 0.00153553 0.00197285 0.01
v 0.00081175 0.00236454 0.01
v 0.0024235 0.00061371 0.01
v 0.00249146 -0.00020645 0.01
v 0.00228943 -0.00100424 0.01
v -0.00154626 -0.00196445 0.00037541
v -0.0015 -0.002 -0
v -0.00118987 -0.00219868 0.01
v -0.00166493 -0.00186494 0.00072248
v -0.00183931 -0.0016932 -0.00106445
v -0.00183931 -0.0016932 -0.01
v -0.00166493 -0.00186494 -0.00072248
v -0.00118987 -0.00219868 -0.01
v -0.00154618 -0.00196452 -0.00037505
v -0.00249146 -0.00020645 0.01
v -0.00249146 -0.00020645 0.00198932
v -0.00228943 -0.00100424 0.01
v -0.00243587 -0.00056263 0.00191923
v -0.00233565 -0.00089148 0.00179033
v -0.00228943 -0.00100424 0.0017296
v -0.00216034 -0.00125815 0.00155469
v -0.00242301 0.00061566 0.00190288
v -0.00243935 0.00054733 0.00192365
v -0.0024235 0.00061371 0.01
v -0.00249308 0.0001859 0.00199134
v -0.00249318 -0.00018454 0.00199147
v -0.00232107 0.00092877 0.00177127
v -0.00209292 0.00136737 0.01
v -0.00219028 0.00120527 0.00159603
v -0.00154436 0.00196595 0.0003675
v -0.00166796 0.00186223 0.00072944
v -0.00153553 0.00197285 0.01
v -0.00183263 0.00170043 0.00105286
v -0.00196302 0.00154809 0.00126627
v -0.00208888 0.00137353 0.00145375
v -0.00152879 0.00197808 0.00029528
v -0.00081175 0.00236454 0.01
v -0.0015 0.002 6.8E-07
v -0.00183263 0.00170043 -0.00105286
v -0.00166833 0.0018619 -0.00073028
v -0.00153553 0.00197285 -0.01
v -0.00196362 0.00154732 -0.0012672
v -0.00081175 0.00236454 -0.01
v -0.00153553 0.00197285 -0.00032842
v -0.00154463 0.00196574 -0.00036861
v -0.00249318 -0.00018454 -0.00199147
v -0.00249311 0.00018552 -0.00199138
v -0.0024235 0.00061371 -0.01
v -0.00243919 0.00054804 -0.00192345
v -0.0024235 0.00061371 -0.00190351
v -0.00232161 0.00092742 -0.00177197
v -0.00249143 -0.00020682 -0.00198928
v -0.00249146 -0.00020645 -0.01
v -0.002436 -0.00056204 -0.0019194
v -0.00228943 -0.00100424 -0.01
v -0.00233565 -0.00089148 -0.00179033
v -0.0020163 -0.00147802 -0.00134739
v -0.0021603 -0.00125821 -0.00155464
v -0.00228768 -0.00100824 -0.00172727
v -0.00041149 -0.0024659 -0.01
v -0.00041149 -0.0024659 0.01
v 0 -0.0025 0.01
v 0 -0.0025 -0.01
v 0.00041149 -0.0024659 0.01
v 0.00041149 -0.0024659 -0.01
v 0 0.0025 0.01
v 0 0.0025 -0.01
v 0 -0.0025 0.01
v 0 0 0.01
v 0 -0.0025 -0.01
v 0 0 -0.01
v -0.01 0.00170043 0.00105286
v -0.01 0.00196595 0.0003675
v -0.01 0 -0
v -0.01 0.002 0
v -0.01 0.00196595 -0.0003675
v -0.01 -0.00018454 0.00199147
v -0.01 0.00054733 0.00192365
v -0.01 0.00120527 0.00159603
v -0.01 -0.00186494 0.00072248
v -0.01 -0.00147802 0.00134739
v -0.01 -0.00089148 0.00179033
v -0.01 -0.00147802 -0.00134739
v -0.01 -0.00186494 -0.00072248
v -0.01 -0.002 -0
v -0.01 0.00054733 -0.00192365
v -0.01 -0.00018454 -0.00199147
v -0.01 -0.00089148 -0.00179033
v -0.01 0.00170043 -0.00105286
v -0.01 0.00120527 -0.00159603
v -0.01 0.002 -0
vn 0 0.53531 -0.84466
vn 0 -0.36481 0.93108
vn 0.00403 -0.98297 0.18375
vn 0 -0.68602 0.72759
vn 0 -0.79595 0.60536
vn 0.00417 -0.85021 0.52643
vn 0 -0.89364 0.44879
vn 0 -0.9613 0.27551
vn 0 -0.60263 0.79802
vn 0.014 -0.47959 0.87738
vn 0.00573 -0.57022 0.82147
vn 0.00454 0.09227 0.99572
vn 0 0.00025 1
vn 0 -0.27366 0.96183
vn 0.01732 -0.09917 0.99492
vn 0.00828 -0.19424 0.98092
vn 0 0.53498 0.84486
vn 0.00705 0.38862 0.92137
vn 0.00153 0.44574 0.89516
vn 0 0.29048 0.95688
vn -1E-05 0.18417 0.98289
vn 0 0.64406 0.76497
vn 0.00352 0.739 0.67369
vn 0.00424 0.73167 0.68164
vn 0.00409 0.93246 0.36124
vn 0 0.89423 0.44761
vn 0 0.81371 0.58128
vn 0.00039 0.99573 0.09227
vn -0 0.9847 0.17427
vn 1E-05 0.96117 0.27594
vn 0.00064 0.99573 -0.09227
vn 1E-05 0.99724 -0.07419
vn -1E-05 0.99661 0.08221
vn 0 0.81388 -0.58103
vn 0 0.89433 -0.44741
vn 0.00409 0.93246 -0.36124
vn 0 0.96131 -0.27546
vn 0 0.98617 -0.16572
vn 0 0.73901 -0.6737
vn 0.01167 0.64973 -0.76008
vn 0.00415 0.73329 -0.6799
vn 0 0.44574 -0.89516
vn 0.01581 0.29421 -0.95561
vn 0.007 0.38943 -0.92103
vn 0 -0.36495 -0.93103
vn 0.00827 -0.1943 -0.98091
vn 0.00052 -0.27366 -0.96183
vn 0 -0.09775 -0.99521
vn -0 0.09227 -0.99573
vn 0.009 0.00034 -0.99996
vn 0 0.18409 -0.98291
vn 0 -0.47417 -0.88043
vn 0.00253 -0.60263 -0.79801
vn 0.00577 -0.56927 -0.82213
vn 0.00417 -0.85021 -0.52643
vn -0 -0.79595 -0.60536
vn -0 -0.686 -0.7276
vn 0 -0.99555 0.09418
vn -0 -0.99555 -0.09427
vn 0.00403 -0.98297 -0.18375
vn -0 -0.96127 -0.2756
vn -0 -0.89364 -0.44879
vn 1 0 0
vn -0.85725 0.5149 0
vn -0.77232 -0.63523 0
vn 0.85725 0.5149 0
vn 0.77232 -0.63523 0
vn 0.59625 -0.8028 -0.00254
vn 0.61421 -0.78914 0
vn 0.69216 -0.72168 -0.00948
vn 0.63446 -0.77294 -0.00468
vn 0.70169 -0.71248 0
vn 0.61421 -0.78914 0.00306
vn 0.63444 -0.77295 0.00468
vn 0.9694 -0.24549 0
vn 0.98771 -0.15601 -0.00937
vn 0.95642 -0.292 -0.00137
vn 0.92529 -0.37926 0
vn 0.83717 -0.54695 0
vn 0.88852 -0.45873 -0.01014
vn 0.83501 -0.55023 -0.0034
vn 0.97257 0.23262 0
vn 0.98911 0.14717 -0.00073
vn 0.99658 0.08258 -0.00425
vn 1 0.00027 -0.00022
vn 0.99694 -0.07819 0
vn 0.95088 0.30956 -2E-05
vn 0.91577 0.40169 -0.00398
vn 0.90342 0.42874 -0.0022
vn 0.47595 0.87947 -0.00014
vn 0.61464 0.78881 0
vn 0.64273 0.76609 -4E-05
vn 0.6994 0.71473 -0.00146
vn 0.75613 0.6544 -0.00518
vn 0.73572 0.67728 -0.00307
vn 0.81111 0.58489 -4E-05
vn 0.85651 0.51614 3E-05
vn 0.69947 0.71466 0.00147
vn 0.73572 0.67728 0
vn 0.80658 0.59102 0.01074
vn 0.75625 0.65426 0.00519
vn 0.55821 0.82966 0.00817
vn 0.47595 0.87947 0
vn 0.61604 0.78772 0
vn 0.64286 0.76599 4E-05
vn 0.99996 0.0002 0.00868
vn 0.9891 0.14724 0.00072
vn 0.97263 0.23237 0
vn 0.91577 0.4017 0
vn 0.94985 0.31256 0.00969
vn 0.90355 0.42849 0.0022
vn 0.99667 -0.07989 0.01663
vn 0.99658 0.08258 -1E-05
vn 0.98804 -0.15417 0
vn 0.96939 -0.24548 0.00415
vn 0.95645 -0.29189 0.00138
vn 0.835 -0.55024 0.0034
vn 0.83716 -0.54694 0.00365
vn 0.89099 -0.45402 3E-05
vn 0.92496 -0.38006 -1E-05
vn -0.59625 -0.8028 0.00254
vn -0.61421 -0.78914 -0
vn -0.69216 -0.72168 0.00948
vn -0.63446 -0.77294 0.00468
vn -0.70169 -0.71248 -0
vn -0.61421 -0.78914 -0.00306
vn -0.63444 -0.77295 -0.00468
vn -0.59622 -0.80281 -0.00254
vn -0.9694 -0.24549 -0
vn -0.98771 -0.15601 0.00937
vn -0.95642 -0.292 0.00137
vn -0.92529 -0.37926 -0
vn -0.83717 -0.54695 -0
vn -0.88852 -0.45873 0.01014
vn -0.83501 -0.55023 0.0034
vn -0.97257 0.23262 -0
vn -0.98911 0.14717 0.00073
vn -0.99658 0.08258 0.00425
vn -1 0.00027 0.00022
vn -0.99694 -0.07819 -0
vn -0.95088 0.30956 2E-05
vn -0.91577 0.40169 0.00398
vn -0.90342 0.42874 0.0022
vn -0.64273 0.76609 4E-05
vn -0.6994 0.71473 0.00146
vn -0.75613 0.6544 0.00518
vn -0.73572 0.67728 0.00307
vn -0.81111 0.58489 4E-05
vn -0.85651 0.51614 -3E-05
vn -0.61464 0.78881 -0
vn -0.47595 0.87947 0.00014
vn -0.55407 0.83243 0.00779
vn -0.69947 0.71466 -0.00147
vn -0.73572 0.67728 0
vn -0.80658 0.59102 -0.01074
vn -0.75625 0.65426 -0.00519
vn -0.55821 0.82966 -0.00817
vn -0.47595 0.87947 0
vn -0.61604 0.78772 0
vn -0.64286 0.76599 -4E-05
vn -0.99996 0.0002 -0.00868
vn -0.9891 0.14724 -0.00072
vn -0.97263 0.23237 0
vn -0.91577 0.4017 0
vn -0.94985 0.31256 -0.00969
vn -0.90355 0.42849 -0.0022
vn -0.99667 -0.07989 -0.01663
vn -0.99658 0.08258 1E-05
vn -0.98804 -0.15417 -0
vn -0.96939 -0.24548 -0.00415
vn -0.95645 -0.29189 -0.00138
vn -0.835 -0.55024 -0.0034
vn -0.83716 -0.54694 -0.00365
vn -0.89099 -0.45402 -3E-05
vn -0.92496 -0.38006 1E-05
vn -0.53944 -0.84202 0
vn -0.3247 -0.94582 -0
vn -0.08258 -0.99658 -0
vn -0.08258 -0.99658 0
vn 0.08258 -0.99658 -0
vn 0.08258 -0.99658 0
vn 0.3247 -0.94582 0
vn 0.53944 -0.84202 0
vn 0.59622 -0.80281 0.00254
vn -0.46806 0.8837 0
vn -0.16459 0.98636 0
vn 0.16459 0.98636 0
vn 0.46806 0.8837 0
vn 0.55407 0.83243 -0.00779
vn 0 0 1
vn 0 0 -1
vn -1 0 0
vn 0 0.53531 0.84466
vn 0 -0.36481 -0.93108
vn -0.00403 -0.98297 -0.18375
vn 0 -0.68602 -0.72759
vn -0.00417 -0.85021 -0.52643
vn 0 -0.9613 -0.27551
vn 0 -0.60263 -0.79802
vn -0.014 -0.47959 -0.87738
vn -0.00573 -0.57022 -0.82147
vn -0.00454 0.09227 -0.99572
vn 0 0.00025 -1
vn 0 -0.27366 -0.96183
vn -0.01732 -0.09917 -0.99492
vn -0.00828 -0.19424 -0.98092
vn 0 0.53498 -0.84486
vn -0.00705 0.38862 -0.92137
vn -0.00153 0.44574 -0.89516
vn -0 0.29048 -0.95688
vn 1E-05 0.18417 -0.98289
vn 0 0.64406 -0.76497
vn -0.00352 0.739 -0.67369
vn -0.00424 0.73167 -0.68164
vn -0.00409 0.93246 -0.36124
vn 0 0.89423 -0.44761
vn 0 0.81371 -0.58128
vn -0.00039 0.99573 -0.09227
vn 0 0.9847 -0.17427
vn -1E-05 0.96117 -0.27594
vn -0.00064 0.99573 0.09227
vn -1E-05 0.99724 0.07419
vn 1E-05 0.99661 -0.08221
vn 0 0.81388 0.58103
vn 0 0.89433 0.44741
vn -0.00409 0.93246 0.36124
vn 0 0.96131 0.27546
vn 0 0.98617 0.16572
vn 0 0.73901 0.6737
vn -0.01167 0.64973 0.76008
vn -0.00415 0.73329 0.6799
vn 0 0.44574 0.89516
vn -0.01581 0.29421 0.95561
vn -0.007 0.38943 0.92103
vn 0 -0.36495 0.93103
vn -0.00827 -0.1943 0.98091
vn -0.00052 -0.27366 0.96183
vn -0 -0.09775 0.99521
vn 0 0.09227 0.99573
vn -0.009 0.00034 0.99996
vn 0 0.18409 0.98291
vn 0 -0.47417 0.88043
vn -0.00253 -0.60263 0.79801
vn -0.00577 -0.56927 0.82213
vn -0.00417 -0.85021 0.52643
vn 0 -0.686 0.7276
vn 0 -0.99555 -0.09418
vn 0 -0.99555 0.09427
vn -0.00403 -0.98297 0.18375
vn 0 -0.96127 0.2756
f 1//1 2//1 3//1
f 4//2 5//2 6//2
f 7//3 8//3 9//3
f 10//4 11//4 12//4
f 12//5 11//5 13//5
f 12//6 13//6 9//6
f 9//7 13//7 14//7
f 9//8 14//8 7//8
f 6//9 5//9 12//9
f 12//10 5//10 15//10
f 12//11 15//11 10//11
f 16//12 17//12 18//12
f 18//13 17//13 19//13
f 18//14 19//14 6//14
f 6//15 19//15 20//15
f 6//16 20//16 4//16
f 21//17 22//17 23//17
f 23//18 22//18 24//18
f 23//19 24//19 16//19
f 16//20 24//20 25//20
f 16//21 25//21 17//21
f 21//22 23//22 26//22
f 26//23 23//23 27//23
f 26//24 27//24 28//24
f 29//25 30//25 27//25
f 27//26 30//26 31//26
f 27//27 31//27 28//27
f 32//28 33//28 29//28
f 29//29 33//29 34//29
f 29//30 34//30 30//30
f 35//31 36//31 32//31
f 32//32 36//32 37//32
f 32//33 37//33 33//33
f 38//34 39//34 40//34
f 40//35 39//35 41//35
f 40//36 41//36 35//36
f 35//37 41//37 42//37
f 35//38 42//38 36//38
f 3//39 2//39 40//39
f 40//40 2//40 43//40
f 40//41 43//41 38//41
f 44//42 45//42 3//42
f 3//43 45//43 46//43
f 3//44 46//44 1//44
f 47//45 48//45 49//45
f 49//46 48//46 50//46
f 49//47 50//47 51//47
f 51//48 50//48 52//48
f 51//49 52//49 44//49
f 44//50 52//50 53//50
f 44//51 53//51 45//51
f 47//52 49//52 54//52
f 54//53 49//53 55//53
f 54//54 55//54 56//54
f 57//55 58//55 55//55
f 55//56 58//56 59//56
f 55//57 59//57 56//57
f 7//58 60//58 8//58
f 8//59 60//59 61//59
f 8//60 61//60 57//60
f 57//61 61//61 62//61
f 57//62 62//62 58//62
f 40//63 35//63 63//63
f 63//63 35//63 64//63
f 63//63 64//63 29//63
f 51//63 44//63 63//63
f 63//63 44//63 3//63
f 63//63 3//63 40//63
f 57//63 55//63 63//63
f 63//63 55//63 49//63
f 63//63 49//63 51//63
f 12//63 9//63 63//63
f 63//63 9//63 8//63
f 63//63 8//63 57//63
f 16//63 18//63 63//63
f 63//63 18//63 6//63
f 63//63 6//63 12//63
f 29//63 27//63 63//63
f 63//63 27//63 23//63
f 63//63 23//63 16//63
f 65//64 66//64 67//64
f 68//65 69//65 70//65
f 21//66 26//66 71//66
f 59//67 58//67 72//67
f 61//68 60//68 73//68
f 72//69 58//69 73//69
f 73//70 58//70 62//70
f 73//71 62//71 61//71
f 13//72 74//72 14//72
f 14//73 74//73 75//73
f 14//74 75//74 7//74
f 76//75 50//75 77//75
f 77//76 50//76 48//76
f 48//77 47//77 77//77
f 77//78 47//78 54//78
f 77//79 54//79 72//79
f 72//80 54//80 56//80
f 72//81 56//81 59//81
f 46//82 45//82 78//82
f 78//83 45//83 53//83
f 78//84 53//84 76//84
f 76//85 53//85 52//85
f 76//86 52//86 50//86
f 46//87 78//87 1//87
f 1//88 78//88 79//88
f 1//89 79//89 2//89
f 80//90 36//90 81//90
f 81//91 36//91 42//91
f 81//92 42//92 41//92
f 41//93 39//93 81//93
f 81//94 39//94 38//94
f 81//95 38//95 79//95
f 79//96 38//96 43//96
f 79//97 43//97 2//97
f 31//98 30//98 82//98
f 71//99 26//99 82//99
f 82//100 26//100 28//100
f 82//101 28//101 31//101
f 37//102 83//102 33//102
f 33//103 83//103 82//103
f 33//104 82//104 34//104
f 34//105 82//105 30//105
f 19//106 17//106 84//106
f 17//107 25//107 84//107
f 84//108 25//108 24//108
f 84//109 24//109 71//109
f 71//110 24//110 22//110
f 71//111 22//111 21//111
f 19//112 84//112 20//112
f 20//113 84//113 85//113
f 20//114 85//114 4//114
f 4//115 85//115 86//115
f 4//116 86//116 5//116
f 13//67 11//67 74//67
f 74//117 11//117 10//117
f 74//118 10//118 86//118
f 86//119 10//119 15//119
f 86//120 15//120 5//120
f 87//121 88//121 89//121
f 70//122 69//122 89//122
f 89//123 69//123 90//123
f 89//124 90//124 87//124
f 91//125 92//125 93//125
f 93//126 92//126 94//126
f 93//127 94//127 95//127
f 95//128 94//128 88//128
f 96//129 97//129 98//129
f 98//130 97//130 99//130
f 99//131 100//131 98//131
f 98//132 100//132 101//132
f 98//133 101//133 70//133
f 70//134 101//134 102//134
f 70//135 102//135 68//135
f 103//136 104//136 105//136
f 105//137 104//137 106//137
f 105//138 106//138 96//138
f 96//139 106//139 107//139
f 96//140 107//140 97//140
f 103//141 105//141 108//141
f 108//142 105//142 109//142
f 108//143 109//143 110//143
f 111//144 112//144 113//144
f 112//145 114//145 113//145
f 113//146 114//146 115//146
f 113//147 115//147 109//147
f 109//148 115//148 116//148
f 109//149 116//149 110//149
f 111//150 113//150 117//150
f 117//151 113//151 118//151
f 117//152 118//152 119//152
f 120//153 121//153 122//153
f 67//154 66//154 122//154
f 122//155 66//155 123//155
f 122//156 123//156 120//156
f 119//157 124//157 125//157
f 125//158 124//158 122//158
f 125//159 122//159 126//159
f 126//160 122//160 121//160
f 127//161 128//161 129//161
f 128//162 130//162 129//162
f 129//163 130//163 131//163
f 129//164 131//164 67//164
f 67//165 131//165 132//165
f 67//166 132//166 65//166
f 127//167 129//167 133//167
f 133//168 129//168 134//168
f 133//169 134//169 135//169
f 135//170 134//170 136//170
f 135//171 136//171 137//171
f 91//65 138//65 92//65
f 92//172 138//172 139//172
f 92//173 139//173 136//173
f 136//174 139//174 140//174
f 136//175 140//175 137//175
f 88//176 94//176 89//176
f 89//177 94//177 141//177
f 89//177 141//177 142//177
f 142//178 141//178 143//178
f 143//179 141//179 144//179
f 143//180 144//180 145//180
f 144//181 146//181 145//181
f 145//182 146//182 73//182
f 145//182 73//182 75//182
f 75//183 73//183 60//183
f 75//184 60//184 7//184
f 119//185 118//185 124//185
f 124//186 118//186 147//186
f 124//186 147//186 148//186
f 148//187 147//187 83//187
f 148//187 83//187 80//187
f 80//188 83//188 37//188
f 80//189 37//189 36//189
f 149//190 145//190 150//190
f 149//190 150//190 142//190
f 98//190 70//190 150//190
f 150//190 70//190 89//190
f 150//190 89//190 142//190
f 109//190 105//190 150//190
f 150//190 105//190 96//190
f 150//190 96//190 98//190
f 147//190 118//190 150//190
f 150//190 118//190 113//190
f 150//190 113//190 109//190
f 71//190 82//190 150//190
f 150//190 82//190 83//190
f 150//190 83//190 147//190
f 86//190 85//190 150//190
f 150//190 85//190 84//190
f 150//190 84//190 71//190
f 145//190 75//190 150//190
f 150//190 75//190 74//190
f 150//190 74//190 86//190
f 151//191 141//191 152//191
f 151//191 152//191 146//191
f 77//191 72//191 152//191
f 152//191 72//191 73//191
f 152//191 73//191 146//191
f 79//191 78//191 152//191
f 152//191 78//191 76//191
f 152//191 76//191 77//191
f 148//191 80//191 152//191
f 152//191 80//191 81//191
f 152//191 81//191 79//191
f 67//191 122//191 152//191
f 152//191 122//191 124//191
f 152//191 124//191 148//191
f 136//191 134//191 152//191
f 152//191 134//191 129//191
f 152//191 129//191 67//191
f 141//191 94//191 152//191
f 152//191 94//191 92//191
f 152//191 92//191 136//191
f 153//192 154//192 155//192
f 155//192 154//192 156//192
f 155//192 156//192 157//192
f 158//192 159//192 155//192
f 155//192 159//192 160//192
f 155//192 160//192 153//192
f 161//192 162//192 155//192
f 155//192 162//192 163//192
f 155//192 163//192 158//192
f 164//192 165//192 155//192
f 155//192 165//192 166//192
f 155//192 166//192 161//192
f 167//192 168//192 155//192
f 155//192 168//192 169//192
f 155//192 169//192 164//192
f 157//192 170//192 155//192
f 155//192 170//192 171//192
f 155//192 171//192 167//192
f 108//193 110//193 160//193
f 135//194 137//194 169//194
f 95//195 166//195 165//195
f 139//196 138//196 164//196
f 164//56 138//56 91//56
f 164//197 91//197 165//197
f 165//62 91//62 93//62
f 165//198 93//198 95//198
f 169//199 137//199 164//199
f 164//200 137//200 140//200
f 164//201 140//201 139//201
f 167//202 128//202 168//202
f 168//203 128//203 127//203
f 168//204 127//204 169//204
f 169//205 127//205 133//205
f 169//206 133//206 135//206
f 65//207 132//207 171//207
f 171//208 132//208 131//208
f 171//209 131//209 167//209
f 167//210 131//210 130//210
f 167//211 130//211 128//211
f 65//212 171//212 66//212
f 66//213 171//213 170//213
f 66//214 170//214 123//214
f 157//215 121//215 170//215
f 170//216 121//216 120//216
f 170//217 120//217 123//217
f 172//218 125//218 157//218
f 157//219 125//219 126//219
f 157//220 126//220 121//220
f 154//221 117//221 172//221
f 172//222 117//222 119//222
f 172//223 119//223 125//223
f 115//224 114//224 153//224
f 153//225 114//225 112//225
f 153//226 112//226 154//226
f 154//227 112//227 111//227
f 154//228 111//228 117//228
f 160//229 110//229 153//229
f 153//230 110//230 116//230
f 153//231 116//231 115//231
f 159//232 104//232 160//232
f 160//233 104//233 103//233
f 160//234 103//234 108//234
f 100//235 99//235 163//235
f 163//236 99//236 97//236
f 163//237 97//237 158//237
f 158//238 97//238 107//238
f 158//239 107//239 159//239
f 159//240 107//240 106//240
f 159//241 106//241 104//241
f 100//242 163//242 101//242
f 101//243 163//243 162//243
f 101//244 162//244 102//244
f 161//245 69//245 162//245
f 162//5 69//5 68//5
f 162//246 68//246 102//246
f 95//247 88//247 166//247
f 166//248 88//248 87//248
f 166//249 87//249 161//249
f 161//250 87//250 90//250
f 161//7 90//7 69//7
# Vertices: 172, normals: 250, texture coordinates: 0, faces: 332

