# File generated by ImageToStl.com - Free Image and 3D model conversion tools

o obj1
v 0.078 0.03217262 -0.00734319
v 0.078 0.03290517 -0.0025
v 0.078 -0.03217262 -0.00734319
v 0.078 -0.03290517 -0.0025
v 0.078 -0.02385223 -0.02280507
v 0.078 -0.01939691 -0.02669756
v 0.078 0.01431816 -0.02973197
v 0.078 0.02385223 -0.02280507
v 0.078 0.02754092 -0.0181796
v 0.078 -0.02754092 -0.0181796
v 0.078 -0.03034442 -0.01296983
v 0.078 0.03034442 -0.01296983
v 0.078 0.01939691 -0.02669756
v 0.078 -0.01431816 -0.02973197
v 0.078 -0.00877922 -0.03181078
v 0.078 0.00877922 -0.03181078
v 0.078 -0.0029581 -0.03286715
v 0.078 0.0029581 -0.03286715
v 0 -0.03290517 -0.0025
v 0 0.03290517 -0.0025
v 0 -0.03217262 -0.00734319
v 0 0.03217262 -0.00734319
v 0 0.03034442 -0.01296983
v 0 0.02754092 -0.0181796
v 0 0.02385223 -0.02280507
v 0 0.01939691 -0.02669756
v 0 0.01431816 -0.02973197
v 0 -0.03034442 -0.01296983
v 0 -0.02754092 -0.0181796
v 0 0.00877922 -0.03181078
v 0 0.0029581 -0.03286715
v 0 -0.00877922 -0.03181078
v 0 -0.01431816 -0.02973197
v 0 -0.01939691 -0.02669756
v 0 -0.0029581 -0.03286715
v 0 -0.02385223 -0.02280507
v 0.00064806 -0.03291155 -0.00241454
v 0.00064806 0.03291155 0.00241454
v 0 0.03290517 0.0025
v 0 0.03270134 0.0044297
v 0.078 0.03270134 0.0044297
v 0.078 0.03290517 0.0025
v 0.0773535 0.03291152 0.00241496
v 0.00241475 0.03299365 0.00064728
v 0.07675 0.0329289 0.00216506
v 0.07623195 0.03295263 0.00176748
v 0.00201445 0.03296677 -0.00148054
v 0.00216506 0.03297632 -0.00125
v 0.07558525 0.03299365 -0.00064728
v 0.00241462 0.03299364 -0.00064778
v 0.0755 0.033 0
v 0.0025 0.033 0
v 0.07558538 0.03299364 0.00064778
v 0.07583494 0.03297632 0.00125
v 0.00216506 0.03297632 0.00125
v 0.00176779 0.03295262 0.00176774
v 0.00125 0.0329289 0.00216506
v 0.00125 0.0329289 -0.00216506
v 0.0006465 0.03291152 -0.00241496
v 0.07583496 0.03297631 -0.00125004
v 0.07598555 0.03296677 -0.00148054
v 0.07735194 0.03291155 -0.00241454
v 0.07675 0.0329289 -0.00216506
v 0.07675 -0.0329289 -0.00216506
v 0.0773535 -0.03291152 -0.00241496
v 0.07735194 -0.03291155 0.00241454
v 0.078 -0.03290517 0.0025
v 0.078 -0.03270134 0.0044297
v 0 -0.03270134 0.0044297
v 0 -0.03290517 0.0025
v 0.0006465 -0.03291152 0.00241496
v 0.00125 -0.0329289 0.00216506
v 0.07558525 -0.03299365 0.00064728
v 0.00176805 -0.03295263 0.00176748
v 0.07598555 -0.03296677 -0.00148054
v 0.07583494 -0.03297632 -0.00125
v 0.00241475 -0.03299365 -0.00064728
v 0.07558538 -0.03299364 -0.00064778
v 0.0025 -0.033 0
v 0.0755 -0.033 0
v 0.00241462 -0.03299364 0.00064778
v 0.00216506 -0.03297632 0.00125
v 0.07583494 -0.03297632 0.00125
v 0.07623221 -0.03295262 0.00176774
v 0.07675 -0.0329289 0.00216506
v 0.00216504 -0.03297631 -0.00125004
v 0.00201445 -0.03296677 -0.00148054
v 0.00125 -0.0329289 -0.00216506
v 0.078 -0.03138487 0.01019756
v 0 -0.03138487 0.01019756
v 0.078 -0.02905965 0.01563767
v 0 -0.02905965 0.01563767
v 0.078 -0.02580044 0.02057516
v 0 -0.02580044 0.02057516
v 0.078 -0.02171198 0.02485136
v 0 -0.02171198 0.02485136
v 0.078 -0.01692568 0.02832881
v 0 -0.01692568 0.02832881
v 0.078 -0.01159537 0.03089575
v 0 -0.01159537 0.03089575
v 0.078 -0.00589238 0.03246967
v 0 -0.00589238 0.03246967
v 0.078 0 0.033
v 0 0 0.033
v 0.078 0.00589238 0.03246967
v 0 0.00589238 0.03246967
v 0.078 0.01159537 0.03089575
v 0 0.01159537 0.03089575
v 0.078 0.01692568 0.02832881
v 0 0.01692568 0.02832881
v 0.078 0.02171198 0.02485136
v 0 0.02171198 0.02485136
v 0.078 0.02580044 0.02057516
v 0 0.02580044 0.02057516
v 0.078 0.02905965 0.01563767
v 0 0.02905965 0.01563767
v 0.078 0.03138487 0.01019756
v 0 0.03138487 0.01019756
v 0.0025 -0.033 0
v 0.0025 0.033 0
v 0.0755 0.033 0
v 0.0755 -0.033 0
vn 1 0 0
vn -1 -0 -0
vn 0.00998 -0.9887 -0.14954
vn 0.00406 0.99446 0.10504
vn -0.00405 0.99446 0.10504
vn -0.00036 0.9982 0.06005
vn 0.0001 0.99914 -0.04145
vn 0 0.99959 -0.02875
vn -0 0.99995 -0.00981
vn -0 0.99995 -0.00982
vn -0 0.99995 0.00982
vn 0 0.99995 0.00981
vn -0 0.99959 0.02875
vn -0.00014 0.99895 0.04583
vn 0.00028 0.99958 0.02886
vn 7E-05 0.99895 0.04578
vn -0.00018 0.99559 0.09386
vn 0.05376 0.99016 0.12917
vn 0.01652 0.99391 0.10899
vn 0.03476 0.98767 -0.15264
vn 0.00996 0.9887 -0.14954
vn -4E-05 0.99959 -0.02877
vn -0 0.99914 -0.04137
vn -0 0.99847 -0.05524
vn -0.00998 0.9887 -0.14954
vn -0.0348 0.98767 -0.15265
vn -0.03476 -0.98767 -0.15264
vn -0.00996 -0.9887 -0.14954
vn -0.00406 -0.99446 0.10504
vn 0.00405 -0.99446 0.10504
vn 0.00085 -0.99745 0.07143
vn 0.00036 -0.9982 0.06005
vn -0.0001 -0.99914 -0.04145
vn -0 -0.99959 -0.02875
vn 0 -0.99995 -0.00981
vn 0 -0.99995 -0.00982
vn 0 -0.99995 0.00982
vn -0 -0.99995 0.00981
vn 0 -0.99959 0.02875
vn 0.00014 -0.99895 0.04583
vn -0.00028 -0.99958 0.02886
vn -7E-05 -0.99895 0.04578
vn 0.00018 -0.99559 0.09386
vn -0.05376 -0.99016 0.12917
vn -0.01652 -0.99391 0.10899
vn 4E-05 -0.99959 -0.02877
vn 0 -0.99914 -0.04137
vn 0 -0.99847 -0.05524
vn 0 -0.9895 -0.14452
vn -0 0.9895 -0.14452
vn -0 0.95106 -0.30902
vn -0 0.8806 -0.47387
vn -0 0.78183 -0.62349
vn -0 0.65794 -0.75307
vn -0 0.5129 -0.85845
vn -0 0.35138 -0.93623
vn -0 0.17856 -0.98393
vn 0 -0 -1
vn 0 -0.17856 -0.98393
vn 0 -0.35138 -0.93623
vn 0 -0.5129 -0.85845
vn 0 -0.65794 -0.75307
vn 0 -0.78183 -0.62349
vn 0 -0.8806 -0.47387
vn 0 -0.95106 -0.30902
vn 0.0348 -0.98767 -0.15265
vn 0 -0.9946 0.10376
vn 0 -0.97493 0.22252
vn 0 -0.91953 0.39303
vn 0 -0.83457 0.5509
vn 0 -0.72279 0.69106
vn 0 -0.58779 0.80902
vn 0 -0.43388 0.90097
vn 0 -0.26604 0.96396
vn -0 -0.08964 0.99597
vn -0 0.08964 0.99597
vn -0 0.26604 0.96396
vn -0 0.43388 0.90097
vn -0 0.58779 0.80902
vn -0 0.72279 0.69106
vn -0 0.83457 0.5509
vn -0 0.91953 0.39303
vn -0 0.97493 0.22252
vn -0 0.9946 0.10376
vn -0.00085 0.99745 0.07143
vn -0.38258 0 0.92392
vn -0.13041 0 0.99146
vn -0.13073 0 0.99142
vn -0.38288 -0 0.9238
vn -0.66709 0 0.74498
vn -0.83717 0 0.54694
vn -0.83717 -0 0.54695
vn -0.92386 0 0.38274
vn -0.92382 0 0.38282
vn -0.99144 -0 0.13057
vn -0.99143 -0 0.13068
vn -0.99143 -0 -0.13068
vn -0.99144 0 -0.13057
vn -0.92382 -0 -0.38282
vn -0.92386 -0 -0.38273
vn -0.79336 -0 -0.60876
vn -0.7934 -0 -0.6087
vn -0.60877 0 -0.79335
vn -0.13041 -0 -0.99146
vn -0.60883 -0 -0.7933
vn -0.38258 -0 -0.92392
vn -0.38288 0 -0.9238
vn -0.13073 -0 -0.99142
vn 0.38258 0 0.92392
vn 0.13041 0 0.99146
vn 0.13073 -0 0.99142
vn 0.38288 0 0.9238
vn 0.66709 0 0.74498
vn 0.83718 0 0.54693
vn 0.83717 0 0.54694
vn 0.92386 -0 0.38274
vn 0.92382 -0 0.38283
vn 0.99144 0 0.13058
vn 0.99142 0 0.13068
vn 0.99142 0 -0.13068
vn 0.99144 -0 -0.13058
vn 0.92382 0 -0.38283
vn 0.92386 -0 -0.38273
vn 0.79336 -0 -0.60876
vn 0.7934 0 -0.6087
vn 0.60877 -0 -0.79335
vn 0.13041 -0 -0.99146
vn 0.60882 -0 -0.7933
vn 0.38258 -0 -0.92392
vn 0.38288 -0 -0.9238
vn 0.13073 0 -0.99142
f 1//1 2//1 3//1
f 3//1 2//1 4//1
f 5//1 6//1 7//1
f 8//1 9//1 10//1
f 3//1 11//1 1//1
f 1//1 11//1 10//1
f 1//1 10//1 12//1
f 12//1 10//1 9//1
f 5//1 7//1 10//1
f 10//1 7//1 13//1
f 10//1 13//1 8//1
f 6//1 14//1 7//1
f 7//1 14//1 15//1
f 7//1 15//1 16//1
f 16//1 15//1 17//1
f 16//1 17//1 18//1
f 19//2 20//2 21//2
f 21//2 20//2 22//2
f 22//2 23//2 21//2
f 21//2 23//2 24//2
f 21//2 24//2 25//2
f 25//2 26//2 21//2
f 21//2 26//2 27//2
f 21//2 27//2 28//2
f 28//2 27//2 29//2
f 29//2 27//2 30//2
f 29//2 30//2 31//2
f 32//2 33//2 34//2
f 31//2 35//2 29//2
f 29//2 35//2 32//2
f 29//2 32//2 36//2
f 36//2 32//2 34//2
f 37//3 19//3 21//3
f 38//4 39//4 40//4
f 41//5 42//5 43//5
f 44//6 45//6 46//6
f 47//7 48//7 49//7
f 49//8 48//8 50//8
f 49//9 50//9 51//9
f 51//10 50//10 52//10
f 51//11 52//11 53//11
f 53//12 52//12 44//12
f 53//13 44//13 54//13
f 54//14 44//14 46//14
f 44//15 55//15 45//15
f 45//16 55//16 56//16
f 45//17 56//17 40//17
f 40//18 56//18 57//18
f 40//19 57//19 38//19
f 58//20 22//20 59//20
f 59//21 22//21 20//21
f 49//22 60//22 47//22
f 47//23 60//23 61//23
f 47//24 61//24 58//24
f 2//25 1//25 62//25
f 62//26 1//26 63//26
f 64//27 3//27 65//27
f 65//28 3//28 4//28
f 66//29 67//29 68//29
f 69//30 70//30 71//30
f 71//31 72//31 68//31
f 73//32 72//32 74//32
f 75//33 76//33 77//33
f 77//34 76//34 78//34
f 77//35 78//35 79//35
f 79//36 78//36 80//36
f 79//37 80//37 81//37
f 81//38 80//38 73//38
f 81//39 73//39 82//39
f 82//40 73//40 74//40
f 73//41 83//41 72//41
f 72//42 83//42 84//42
f 72//43 84//43 68//43
f 68//44 84//44 85//44
f 68//45 85//45 66//45
f 77//46 86//46 75//46
f 75//47 86//47 87//47
f 75//48 87//48 64//48
f 64//48 87//48 88//48
f 64//49 88//49 3//49
f 61//24 63//24 58//24
f 58//50 63//50 1//50
f 58//50 1//50 22//50
f 22//51 1//51 12//51
f 22//51 12//51 23//51
f 23//52 12//52 9//52
f 23//52 9//52 24//52
f 24//53 9//53 8//53
f 24//53 8//53 25//53
f 25//54 8//54 13//54
f 25//54 13//54 26//54
f 26//55 13//55 7//55
f 26//55 7//55 27//55
f 27//56 7//56 16//56
f 27//56 16//56 30//56
f 30//57 16//57 18//57
f 30//57 18//57 31//57
f 31//58 18//58 17//58
f 31//58 17//58 35//58
f 35//59 17//59 15//59
f 35//59 15//59 32//59
f 32//60 15//60 14//60
f 32//60 14//60 33//60
f 33//61 14//61 6//61
f 33//61 6//61 34//61
f 34//62 6//62 5//62
f 34//62 5//62 36//62
f 36//63 5//63 10//63
f 36//63 10//63 29//63
f 29//64 10//64 11//64
f 29//64 11//64 28//64
f 28//65 11//65 3//65
f 28//65 3//65 21//65
f 21//49 3//49 88//49
f 21//66 88//66 37//66
f 71//67 68//67 69//67
f 69//68 68//68 89//68
f 69//68 89//68 90//68
f 90//69 89//69 91//69
f 90//69 91//69 92//69
f 92//70 91//70 93//70
f 92//70 93//70 94//70
f 94//71 93//71 95//71
f 94//71 95//71 96//71
f 96//72 95//72 97//72
f 96//72 97//72 98//72
f 98//73 97//73 99//73
f 98//73 99//73 100//73
f 100//74 99//74 101//74
f 100//74 101//74 102//74
f 102//75 101//75 103//75
f 102//75 103//75 104//75
f 104//76 103//76 105//76
f 104//76 105//76 106//76
f 106//77 105//77 107//77
f 106//77 107//77 108//77
f 108//78 107//78 109//78
f 108//78 109//78 110//78
f 110//79 109//79 111//79
f 110//79 111//79 112//79
f 112//80 111//80 113//80
f 112//80 113//80 114//80
f 114//81 113//81 115//81
f 114//81 115//81 116//81
f 116//82 115//82 117//82
f 116//82 117//82 118//82
f 118//83 117//83 41//83
f 118//83 41//83 40//83
f 40//84 41//84 43//84
f 40//85 43//85 45//85
f 67//1 42//1 41//1
f 101//1 99//1 68//1
f 101//1 68//1 103//1
f 67//1 41//1 68//1
f 68//1 41//1 117//1
f 68//1 117//1 115//1
f 115//1 113//1 68//1
f 68//1 113//1 111//1
f 68//1 111//1 109//1
f 93//1 99//1 95//1
f 95//1 99//1 97//1
f 109//1 107//1 68//1
f 68//1 107//1 105//1
f 68//1 105//1 103//1
f 93//1 91//1 99//1
f 99//1 91//1 89//1
f 99//1 89//1 68//1
f 40//2 39//2 69//2
f 69//2 39//2 70//2
f 106//2 69//2 90//2
f 112//2 114//2 69//2
f 114//2 116//2 69//2
f 69//2 116//2 118//2
f 69//2 118//2 40//2
f 102//2 94//2 100//2
f 100//2 94//2 96//2
f 100//2 96//2 98//2
f 106//2 108//2 69//2
f 69//2 108//2 110//2
f 69//2 110//2 112//2
f 90//2 92//2 106//2
f 106//2 92//2 94//2
f 106//2 94//2 104//2
f 104//2 94//2 102//2
f 88//86 58//86 59//86
f 20//87 19//87 59//87
f 59//88 19//88 37//88
f 59//89 37//89 88//89
f 58//90 88//90 47//90
f 47//90 88//90 87//90
f 47//91 87//91 48//91
f 87//92 86//92 48//92
f 48//93 86//93 77//93
f 48//94 77//94 50//94
f 50//95 77//95 119//95
f 50//96 119//96 120//96
f 120//97 119//97 81//97
f 120//98 81//98 44//98
f 44//99 81//99 82//99
f 44//100 82//100 55//100
f 55//101 82//101 56//101
f 56//102 82//102 74//102
f 56//103 74//103 57//103
f 71//104 70//104 39//104
f 74//105 72//105 57//105
f 57//106 72//106 71//106
f 57//107 71//107 38//107
f 38//108 71//108 39//108
f 63//109 64//109 65//109
f 4//110 2//110 65//110
f 65//111 2//111 62//111
f 65//112 62//112 63//112
f 64//113 63//113 75//113
f 75//113 63//113 61//113
f 75//114 61//114 76//114
f 61//115 60//115 76//115
f 76//116 60//116 49//116
f 76//117 49//117 78//117
f 78//118 49//118 121//118
f 78//119 121//119 122//119
f 122//120 121//120 53//120
f 122//121 53//121 73//121
f 73//122 53//122 54//122
f 73//123 54//123 83//123
f 83//124 54//124 84//124
f 84//125 54//125 46//125
f 84//126 46//126 85//126
f 43//127 42//127 67//127
f 46//128 45//128 85//128
f 85//129 45//129 43//129
f 85//130 43//130 66//130
f 66//131 43//131 67//131
# Vertices: 122, normals: 131, texture coordinates: 0, faces: 232

