# File generated by ImageToStl.com - Free Image and 3D model conversion tools

o obj1
v 0 -0.03290517 -0.0025
v 0 0.03290517 -0.0025
v 0 -0.03217262 -0.00734319
v 0 0.03217262 -0.00734319
v 0 0.02385223 -0.02280507
v 0 0.01939691 -0.02669756
v 0 0.03034442 -0.01296983
v 0 0.02754092 -0.0181796
v 0 0.0029581 -0.03286715
v 0 -0.0029581 -0.03286715
v 0 0.00877922 -0.03181078
v 0 -0.00877922 -0.03181078
v 0 -0.01431816 -0.02973197
v 0 0.01431816 -0.02973197
v 0 -0.03034442 -0.01296983
v 0 -0.02754092 -0.0181796
v 0 -0.01939691 -0.02669756
v 0 -0.02385223 -0.02280507
v 0.078 -0.02972849 0.004027
v 0.078 -0.02989565 0.0025
v 0.078 0.02972849 0.004027
v 0.078 0.02989565 0.0025
v 0.078 0.02853169 0.00927051
v 0.078 0.02641787 0.01421606
v 0.078 0.02345494 0.01870469
v 0.078 -0.01973816 0.02259214
v 0.078 -0.02345494 0.01870469
v 0.078 0.01538698 0.02575346
v 0.078 -0.02641787 0.01421606
v 0.078 0.01973816 0.02259214
v 0.078 -0.02853169 0.00927051
v 0.078 0.01054124 0.02808705
v 0.078 0.00535671 0.02951789
v 0.078 -0.01054124 0.02808705
v 0.078 0 0.03
v 0.078 -0.00535671 0.02951789
v 0.078 -0.01538698 0.02575346
v 0 0.03138487 0.01019756
v 0 0.03270134 0.0044297
v 0 -0.03270134 0.0044297
v 0 0.03290517 0.0025
v 0 -0.03290517 0.0025
v 0 0.00589238 0.03246967
v 0 -0.03138487 0.01019756
v 0 0.01159537 0.03089575
v 0 0.01692568 0.02832881
v 0 0.02171198 0.02485136
v 0 -0.00589238 0.03246967
v 0 -0.02580044 0.02057516
v 0 -0.01159537 0.03089575
v 0 -0.02171198 0.02485136
v 0 -0.01692568 0.02832881
v 0 -0.02905965 0.01563767
v 0 0 0.033
v 0 0.02580044 0.02057516
v 0 0.02905965 0.01563767
v 0.078 0.02989565 -0.0025
v 0.078 -0.02989565 -0.0025
v 0.078 0.02924784 -0.00667563
v 0.078 -0.02924784 -0.00667563
v 0.078 -0.02758583 -0.01179075
v 0.078 -0.0250372 -0.01652691
v 0.078 0.02758583 -0.01179075
v 0.078 -0.02168385 -0.02073188
v 0.078 -0.01763356 -0.02427051
v 0.078 0.00798111 -0.02891889
v 0.078 -0.01301651 -0.02702907
v 0.078 -0.00798111 -0.02891889
v 0.078 -0.00268918 -0.02987923
v 0.078 0.00268918 -0.02987923
v 0.078 0.01301651 -0.02702907
v 0.078 0.01763356 -0.02427051
v 0.078 0.02168385 -0.02073188
v 0.078 0.0250372 -0.01652691
v 0.07590145 -0.03005001 -0.0013587
v 0.07583494 -0.03005729 -0.00125
v 0.002017 -0.03288927 -0.00147706
v 0.07558544 -0.03008589 -0.00064799
v 0.00216506 -0.03289299 -0.00125
v 0.00241477 -0.03290076 -0.00064721
v 0.00064629 -0.03288659 0.00241502
v 0.00125 -0.03288072 0.00216506
v 0.0025 -0.03290385 0
v 0.0755 -0.03009615 0
v 0.00241464 -0.03290075 0.00064768
v 0.0755853 -0.03008591 0.00064744
v 0.00216506 -0.03289299 0.00125
v 0.07583494 -0.03005729 0.00125
v 0.00176806 -0.03288453 0.00176747
v 0.07623235 -0.03001597 0.00176788
v 0.07675 -0.02996998 0.00216506
v 0.07735174 -0.02992769 0.00241449
v 0.07735333 -0.0299276 -0.00241491
v 0.07675 -0.02996998 -0.00216506
v 0.0762733 -0.03001201 -0.0018079
v 0.00125 -0.03288072 -0.00216506
v 0.00064785 -0.03288656 -0.0024146
v 0.00125 0.03288072 -0.00216506
v 0.00064629 0.03288659 -0.00241502
v 0.07627443 0.0300119 -0.00180898
v 0.07675 0.02996998 -0.00216506
v 0.07735174 0.02992769 -0.00241449
v 0.00064785 0.03288656 0.0024146
v 0.00125 0.03288072 0.00216506
v 0.07735333 0.0299276 0.00241491
v 0.07675 0.02996998 0.00216506
v 0.07623205 0.030016 0.00176757
v 0.07583494 0.03005729 0.00125
v 0.07558544 0.03008589 0.00064799
v 0.00176782 0.03288453 0.00176771
v 0.00216506 0.03289299 0.00125
v 0.002017 0.03288927 -0.00147706
v 0.00216506 0.03289299 -0.00125
v 0.0755853 0.03008591 -0.00064744
v 0.00241464 0.03290075 -0.00064768
v 0.0755 0.03009615 0
v 0.0025 0.03290385 0
v 0.00241477 0.03290076 0.00064721
v 0.07583497 0.03005729 -0.00125005
v 0.07589557 0.03005065 -0.00134958
v 0.078 0 0.03
v 0 0 0.033
v 0.0025 -0.03290385 0
v 0.0025 0.03290385 0
v 0.0755 -0.03009615 0
v 0.0755 0.03009615 0
vn -1 -0 -0
vn 1 0 0
vn 0.03843 -0.99832 -0.04332
vn 0.03841 -0.99876 -0.03153
vn 0.03851 -0.9984 -0.04144
vn 0.03843 -0.99885 -0.02879
vn 0.04236 -0.99358 0.10495
vn 0.03921 -0.99668 0.0713
vn 0.03844 -0.99921 -0.00983
vn 0.03843 -0.9992 -0.01076
vn 0.03843 -0.99921 0.00983
vn 0.03844 -0.9992 0.01075
vn 0.03843 -0.99885 0.0288
vn 0.0382 -0.99877 0.03161
vn 0.03873 -0.99744 0.06003
vn 0.03854 -0.9982 0.04587
vn 0.0384 -0.998 0.05017
vn 0.03844 -0.99712 0.06537
vn 0.03832 -0.99392 0.10318
vn 0.02272 -0.99327 0.11357
vn 0.03476 -0.99346 0.10875
vn 0.02863 -0.98777 -0.15325
vn 0.00439 -0.98761 -0.1569
vn 0.03843 -0.99788 -0.05261
vn 0.03841 -0.99773 -0.05523
vn 0.0385 -0.98876 -0.1445
vn 0.07269 -0.98565 -0.15233
vn 0.04805 -0.98761 -0.14938
vn 0.07265 0.98566 -0.15232
vn 0.04803 0.98761 -0.14938
vn -0.03942 0.9849 -0.16861
vn 0.00436 0.9876 -0.15691
vn 0.02861 0.98777 -0.15325
vn 0.04237 0.99358 0.10495
vn 0.05473 0.99255 0.10882
vn 0.03477 0.99346 0.10875
vn 0.03745 0.99707 0.06665
vn 0.03695 0.998 0.05127
vn 0.03619 0.99882 0.03245
vn 0.09151 0.98745 0.12872
vn 0.03915 0.99476 0.09445
vn 0.03854 0.9982 0.04588
vn 0.03851 0.9984 -0.04144
vn 0.03843 0.99885 -0.0288
vn 0.03844 0.9992 -0.01075
vn 0.03843 0.99921 -0.00983
vn 0.03843 0.9992 0.01076
vn 0.03844 0.99921 0.00983
vn 0.03843 0.99885 0.02879
vn 0.03841 0.99876 -0.03152
vn 0.03843 0.99833 -0.04317
vn 0.03843 0.99773 -0.05525
vn 0.03841 0.99788 -0.0525
vn 0.03849 0.98876 -0.1445
vn 0.0383 0.98917 -0.14172
vn 0.03828 0.95036 -0.30879
vn 0.03828 0.95036 -0.30879
vn 0.03828 0.87995 -0.47352
vn 0.03828 0.87995 -0.47352
vn 0.03828 0.78126 -0.62303
vn 0.03828 0.78126 -0.62303
vn 0.03828 0.65746 -0.75252
vn 0.03828 0.65746 -0.75252
vn 0.03828 0.51252 -0.85782
vn 0.03828 0.51252 -0.85782
vn 0.03828 0.35112 -0.93555
vn 0.03828 0.35112 -0.93555
vn 0.03828 0.17843 -0.98321
vn 0.03828 0.17843 -0.98321
vn 0.03828 -0 -0.99927
vn 0.03828 -0.17843 -0.98321
vn 0.03828 -0.17843 -0.98321
vn 0.03828 -0.35112 -0.93555
vn 0.03828 -0.35112 -0.93555
vn 0.03828 -0.51252 -0.85782
vn 0.03828 -0.51252 -0.85782
vn 0.03828 -0.65746 -0.75252
vn 0.03828 -0.65746 -0.75252
vn 0.03828 -0.78126 -0.62303
vn 0.03828 -0.78126 -0.62303
vn 0.03828 -0.87995 -0.47352
vn 0.03828 -0.87995 -0.47352
vn 0.03828 -0.95036 -0.30879
vn 0.03828 -0.95036 -0.30879
vn 0.03832 -0.9883 -0.14761
vn 0.0335 -0.9968 -0.07259
vn 0.03842 -0.99387 0.10371
vn 0.03828 -0.97421 0.22236
vn 0.03828 -0.97421 0.22236
vn 0.03828 -0.91885 0.39274
vn 0.03828 -0.91885 0.39274
vn 0.03828 -0.83396 0.55049
vn 0.03828 -0.83396 0.55049
vn 0.03828 -0.72227 0.69056
vn 0.03828 -0.72227 0.69056
vn 0.03828 -0.58735 0.80842
vn 0.03828 -0.58735 0.80842
vn 0.03828 -0.43357 0.90031
vn 0.03828 -0.43357 0.90031
vn 0.03828 -0.26584 0.96326
vn 0.03828 -0.26584 0.96326
vn 0.03828 -0.08957 0.99524
vn 0.03828 -0.08957 0.99524
vn 0.03828 0.08957 0.99524
vn 0.03828 0.08957 0.99524
vn 0.03828 0.26584 0.96326
vn 0.03828 0.26584 0.96326
vn 0.03828 0.43357 0.90031
vn 0.03828 0.43357 0.90031
vn 0.03828 0.58735 0.80842
vn 0.03828 0.58735 0.80842
vn 0.03828 0.72227 0.69056
vn 0.03828 0.72227 0.69056
vn 0.03828 0.83396 0.55049
vn 0.03828 0.83396 0.55049
vn 0.03828 0.91885 0.39274
vn 0.03828 0.91885 0.39274
vn 0.03828 0.97421 0.22236
vn 0.03828 0.97421 0.22236
vn 0.03842 0.99348 0.10729
vn 0.03775 0.99625 0.07782
vn -0.38284 0 0.92382
vn -0.38254 -0 0.92394
vn -0.13069 0 0.99142
vn -0.13037 0 0.99147
vn -0.66774 -0.00107 0.7444
vn -0.83767 0.00406 0.54616
vn -0.66773 0 0.7444
vn -0.83764 -0 0.54622
vn -0.92387 0 0.38271
vn -0.92383 0 0.3828
vn -0.99144 -0 0.13056
vn -0.99143 -0 0.13066
vn -0.99143 -0 -0.13066
vn -0.99144 0 -0.13056
vn -0.92383 -0 -0.3828
vn -0.13037 -0 -0.99147
vn -0.13069 -0 -0.99142
vn -0.38254 0 -0.92394
vn -0.38284 -0 -0.92382
vn -0.60883 -0 -0.7933
vn -0.60877 0 -0.79334
vn -0.7934 -0 -0.6087
vn -0.79336 -0 -0.60875
vn -0.92387 -0 -0.38271
vn 0.38261 -0 -0.92391
vn 0.13045 -0 -0.99145
vn 0.13078 0 -0.99141
vn 0.38292 -0 -0.92378
vn 0.60881 -0 -0.79332
vn 0.60874 -0 -0.79337
vn 0.79338 0 -0.60872
vn 0.79333 -0 -0.60879
vn 0.92385 -0 -0.38275
vn 0.92381 0 -0.38286
vn 0.99143 -0 -0.13061
vn 0.99142 0 -0.13072
vn 0.99142 0 0.13072
vn 0.99143 0 0.13061
vn 0.92381 -0 0.38286
vn 0.92385 -0 0.38276
vn 0.59936 0 0.80048
vn 0.85299 0 0.52193
vn 0.77032 -0.0003 0.63765
vn 0.85415 0.0014 0.52002
vn 0.77149 -0 0.63624
vn 0.13045 0 0.99145
vn 0.59961 0 0.80029
vn 0.38261 0 0.92391
vn 0.38292 0 0.92378
vn 0.13078 -0 0.99141
f 1//1 2//1 3//1
f 3//1 2//1 4//1
f 3//1 5//1 6//1
f 4//1 7//1 3//1
f 3//1 7//1 8//1
f 3//1 8//1 5//1
f 9//1 10//1 11//1
f 11//1 10//1 12//1
f 11//1 12//1 13//1
f 6//1 14//1 3//1
f 3//1 14//1 11//1
f 3//1 11//1 15//1
f 15//1 11//1 16//1
f 13//1 17//1 11//1
f 11//1 17//1 18//1
f 11//1 18//1 16//1
f 19//2 20//2 21//2
f 21//2 20//2 22//2
f 21//2 23//2 19//2
f 19//2 23//2 24//2
f 19//2 24//2 25//2
f 26//2 27//2 28//2
f 28//2 27//2 29//2
f 25//2 30//2 19//2
f 19//2 30//2 28//2
f 19//2 28//2 31//2
f 31//2 28//2 29//2
f 32//2 33//2 34//2
f 34//2 33//2 35//2
f 34//2 35//2 36//2
f 32//2 34//2 28//2
f 28//2 34//2 37//2
f 28//2 37//2 26//2
f 38//1 39//1 40//1
f 40//1 39//1 41//1
f 40//1 41//1 42//1
f 43//1 40//1 44//1
f 43//1 45//1 40//1
f 40//1 45//1 46//1
f 40//1 46//1 47//1
f 48//1 49//1 50//1
f 50//1 49//1 51//1
f 50//1 51//1 52//1
f 44//1 53//1 43//1
f 43//1 53//1 49//1
f 43//1 49//1 54//1
f 54//1 49//1 48//1
f 47//1 55//1 40//1
f 40//1 55//1 56//1
f 40//1 56//1 38//1
f 57//2 58//2 59//2
f 59//2 58//2 60//2
f 60//2 61//2 59//2
f 59//2 61//2 62//2
f 59//2 62//2 63//2
f 64//2 65//2 66//2
f 66//2 65//2 67//2
f 67//2 68//2 66//2
f 66//2 68//2 69//2
f 66//2 69//2 70//2
f 64//2 66//2 62//2
f 62//2 66//2 71//2
f 62//2 71//2 72//2
f 72//2 73//2 62//2
f 62//2 73//2 74//2
f 62//2 74//2 63//2
f 75//3 76//3 77//3
f 77//4 76//4 78//4
f 77//5 78//5 79//5
f 79//6 78//6 80//6
f 40//7 42//7 81//7
f 81//8 82//8 19//8
f 80//9 78//9 83//9
f 83//10 78//10 84//10
f 83//11 84//11 85//11
f 85//12 84//12 86//12
f 85//13 86//13 87//13
f 88//14 82//14 86//14
f 86//15 82//15 89//15
f 86//16 89//16 87//16
f 88//17 90//17 82//17
f 82//18 90//18 91//18
f 82//19 91//19 19//19
f 19//20 91//20 92//20
f 19//21 92//21 20//21
f 58//22 93//22 60//22
f 60//23 93//23 94//23
f 75//24 77//24 95//24
f 95//25 77//25 96//25
f 95//26 96//26 3//26
f 3//27 96//27 97//27
f 3//28 97//28 1//28
f 98//29 4//29 99//29
f 99//30 4//30 2//30
f 100//31 101//31 59//31
f 59//32 101//32 102//32
f 59//33 102//33 57//33
f 103//34 41//34 39//34
f 103//35 39//35 104//35
f 21//36 22//36 105//36
f 106//37 107//37 39//37
f 39//38 107//38 108//38
f 39//39 108//39 109//39
f 104//40 39//40 110//40
f 110//41 39//41 109//41
f 110//42 109//42 111//42
f 112//43 113//43 114//43
f 114//44 113//44 115//44
f 114//45 115//45 116//45
f 116//46 115//46 117//46
f 116//47 117//47 109//47
f 109//48 117//48 118//48
f 109//49 118//49 111//49
f 114//50 119//50 112//50
f 112//51 119//51 120//51
f 112//52 120//52 98//52
f 98//53 120//53 100//53
f 98//54 100//54 4//54
f 100//55 59//55 4//55
f 4//56 59//56 63//56
f 4//57 63//57 7//57
f 7//58 63//58 74//58
f 7//59 74//59 8//59
f 8//60 74//60 73//60
f 8//61 73//61 5//61
f 5//62 73//62 72//62
f 5//63 72//63 6//63
f 6//64 72//64 71//64
f 6//65 71//65 14//65
f 14//66 71//66 66//66
f 14//67 66//67 11//67
f 11//68 66//68 70//68
f 11//69 70//69 9//69
f 9//70 70//70 69//70
f 9//70 69//70 10//70
f 10//71 69//71 68//71
f 10//72 68//72 12//72
f 12//73 68//73 67//73
f 12//74 67//74 13//74
f 13//75 67//75 65//75
f 13//76 65//76 17//76
f 17//77 65//77 64//77
f 17//78 64//78 18//78
f 18//79 64//79 62//79
f 18//80 62//80 16//80
f 16//81 62//81 61//81
f 16//82 61//82 15//82
f 15//83 61//83 60//83
f 15//84 60//84 3//84
f 3//85 60//85 94//85
f 3//86 94//86 95//86
f 81//87 19//87 40//87
f 40//88 19//88 31//88
f 40//89 31//89 44//89
f 44//90 31//90 29//90
f 44//91 29//91 53//91
f 53//92 29//92 27//92
f 53//93 27//93 49//93
f 49//94 27//94 26//94
f 49//95 26//95 51//95
f 51//96 26//96 37//96
f 51//97 37//97 52//97
f 52//98 37//98 34//98
f 52//99 34//99 50//99
f 50//100 34//100 36//100
f 50//101 36//101 48//101
f 48//102 36//102 121//102
f 48//103 121//103 122//103
f 122//104 121//104 33//104
f 122//105 33//105 43//105
f 43//106 33//106 32//106
f 43//107 32//107 45//107
f 45//108 32//108 28//108
f 45//109 28//109 46//109
f 46//110 28//110 30//110
f 46//111 30//111 47//111
f 47//112 30//112 25//112
f 47//113 25//113 55//113
f 55//114 25//114 24//114
f 55//115 24//115 56//115
f 56//116 24//116 23//116
f 56//117 23//117 38//117
f 38//118 23//118 21//118
f 38//119 21//119 39//119
f 39//120 21//120 105//120
f 39//121 105//121 106//121
f 96//122 98//122 97//122
f 97//123 98//123 99//123
f 97//124 99//124 1//124
f 1//125 99//125 2//125
f 77//126 113//126 96//126
f 96//127 113//127 112//127
f 96//128 112//128 98//128
f 77//129 79//129 113//129
f 113//130 79//130 80//130
f 113//131 80//131 115//131
f 115//132 80//132 123//132
f 115//133 123//133 124//133
f 124//134 123//134 85//134
f 124//135 85//135 118//135
f 118//136 85//136 87//136
f 42//137 41//137 81//137
f 81//138 41//138 103//138
f 81//139 103//139 82//139
f 82//140 103//140 104//140
f 82//141 104//141 89//141
f 89//142 104//142 110//142
f 89//143 110//143 87//143
f 87//144 110//144 111//144
f 87//145 111//145 118//145
f 91//146 106//146 105//146
f 22//147 20//147 105//147
f 105//148 20//148 92//148
f 105//149 92//149 91//149
f 106//150 91//150 107//150
f 107//151 91//151 90//151
f 107//152 90//152 108//152
f 90//153 88//153 108//153
f 108//154 88//154 86//154
f 108//155 86//155 109//155
f 109//156 86//156 125//156
f 109//157 125//157 126//157
f 126//158 125//158 78//158
f 126//159 78//159 114//159
f 114//160 78//160 76//160
f 114//161 76//161 119//161
f 101//162 100//162 95//162
f 76//163 75//163 119//163
f 119//164 75//164 95//164
f 119//165 95//165 120//165
f 120//166 95//166 100//166
f 93//167 58//167 57//167
f 95//168 94//168 101//168
f 101//169 94//169 93//169
f 101//170 93//170 102//170
f 102//171 93//171 57//171
# Vertices: 126, normals: 171, texture coordinates: 0, faces: 236

