# File generated by ImageToStl.com - Free Image and 3D model conversion tools

o obj1
v 0.078 0.02989565 -0.0025
v 0.078 -0.02989565 -0.0025
v 0.078 -0.02924784 -0.00667563
v 0.078 0.02924784 -0.00667563
v 0.078 -0.02758583 -0.01179075
v 0.078 -0.0250372 -0.01652691
v 0.078 -0.02168385 -0.02073188
v 0.078 -0.01763356 -0.02427051
v 0.078 -0.01301651 -0.02702907
v 0.078 -0.00798111 -0.02891889
v 0.078 -0.00268918 -0.02987923
v 0.078 0.00268918 -0.02987923
v 0.078 0.02168385 -0.02073188
v 0.078 0.0250372 -0.01652691
v 0.078 0.01763356 -0.02427051
v 0.078 0.01301651 -0.02702907
v 0.078 0.00798111 -0.02891889
v 0.078 0.02758583 -0.01179075
v 0 -0.02924784 -0.00667563
v 0 -0.02989565 -0.0025
v 0 0.02924784 -0.00667563
v 0 0.02989565 -0.0025
v 0 0.02758583 -0.01179075
v 0 -0.0250372 -0.01652691
v 0 -0.02758583 -0.01179075
v 0 0.0250372 -0.01652691
v 0 0.02168385 -0.02073188
v 0 0.01763356 -0.02427051
v 0 0.01301651 -0.02702907
v 0 0.00798111 -0.02891889
v 0 0.00268918 -0.02987923
v 0 -0.00798111 -0.02891889
v 0 -0.01301651 -0.02702907
v 0 -0.01763356 -0.02427051
v 0 -0.00268918 -0.02987923
v 0 -0.02168385 -0.02073188
v 0.00064809 -0.02990268 -0.00241454
v 0.078 0.02972849 0.004027
v 0.078 0.02989565 0.0025
v 0.07735348 0.02990264 0.00241496
v 0.00210108 0.02996939 -0.0013548
v 0.00216506 0.02997395 -0.00125
v 0.07558525 0.02999302 -0.0006473
v 0.00241461 0.02999301 -0.0006478
v 0.0755 0.03 0
v 0.0025 0.03 0
v 0.07558539 0.02999301 0.0006478
v 0.00241475 0.02999302 0.0006473
v 0.07583494 0.02997395 0.00125
v 0.00216506 0.02997395 0.00125
v 0.07675 0.02992177 0.00216506
v 0.07623195 0.02994789 0.00176748
v 0.00176778 0.02994787 0.00176776
v 0.00125 0.02992177 0.00216506
v 0 0.02972849 0.004027
v 0.00064809 0.02990268 0.00241454
v 0 0.02989565 0.0025
v 0.07627276 0.02994551 -0.00180738
v 0.07675 0.02992177 -0.00216506
v 0.07735191 0.02990268 -0.00241454
v 0.07583494 0.02997395 -0.00125002
v 0.07589324 0.02996979 -0.00134594
v 0.00172831 0.02994557 -0.00180637
v 0.00125 0.02992177 -0.00216506
v 0.00064652 0.02990264 -0.00241496
v 0.00125 -0.02992177 -0.00216506
v 0 -0.02972849 0.004027
v 0 -0.02989565 0.0025
v 0.00064652 -0.02990264 0.00241496
v 0.00125 -0.02992177 0.00216506
v 0.078 -0.02972849 0.004027
v 0.07589892 -0.02996939 -0.0013548
v 0.07583494 -0.02997395 -0.00125
v 0.00241475 -0.02999302 -0.0006473
v 0.07558539 -0.02999301 -0.0006478
v 0.0025 -0.03 0
v 0.0755 -0.03 0
v 0.00241461 -0.02999301 0.0006478
v 0.07558525 -0.02999302 0.0006473
v 0.00216506 -0.02997395 0.00125
v 0.07583494 -0.02997395 0.00125
v 0.00176805 -0.02994789 0.00176748
v 0.07623222 -0.02994787 0.00176776
v 0.07675 -0.02992177 0.00216506
v 0.07735191 -0.02990268 0.00241454
v 0.078 -0.02989565 0.0025
v 0.07735348 -0.02990264 -0.00241496
v 0.07675 -0.02992177 -0.00216506
v 0.00172724 -0.02994551 -0.00180738
v 0.07627169 -0.02994557 -0.00180637
v 0.00210676 -0.02996979 -0.00134594
v 0.00216505 -0.02997395 -0.00125002
v 0.078 -0.02853169 0.00927051
v 0 -0.02853169 0.00927051
v 0.078 -0.02641787 0.01421606
v 0 -0.02641787 0.01421606
v 0.078 -0.02345494 0.01870469
v 0 -0.02345494 0.01870469
v 0.078 -0.01973816 0.02259214
v 0 -0.01973816 0.02259214
v 0.078 -0.01538698 0.02575346
v 0 -0.01538698 0.02575346
v 0.078 -0.01054124 0.02808705
v 0 -0.01054124 0.02808705
v 0.078 -0.00535671 0.02951789
v 0 -0.00535671 0.02951789
v 0.078 0 0.03
v 0 0 0.03
v 0.078 0.00535671 0.02951789
v 0 0.00535671 0.02951789
v 0.078 0.01054124 0.02808705
v 0 0.01054124 0.02808705
v 0.078 0.01538698 0.02575346
v 0 0.01538698 0.02575346
v 0.078 0.01973816 0.02259214
v 0 0.01973816 0.02259214
v 0.078 0.02345494 0.01870469
v 0 0.02345494 0.01870469
v 0.078 0.02641787 0.01421606
v 0 0.02641787 0.01421606
v 0.078 0.02853169 0.00927051
v 0 0.02853169 0.00927051
v 0.0025 -0.03 0
v 0.0025 0.03 0
v 0.0755 0.03 0
v 0.0755 -0.03 0
vn 1 0 0
vn -1 -0 -0
vn 0.00951 -0.98813 -0.1533
vn -0.00357 0.99406 0.10882
vn 0.0001 0.99905 -0.04348
vn 0 0.9995 -0.03163
vn -0 0.99994 -0.01079
vn -0 0.99994 -0.0108
vn -0 0.99994 0.0108
vn 0 0.99994 0.01079
vn -0 0.9995 0.03163
vn 0.00031 0.9995 0.03175
vn -0.00039 0.99782 0.06605
vn -0.00015 0.99873 0.05041
vn 8E-05 0.99873 0.05036
vn -0 0.99785 0.06554
vn -0 0.99466 0.10325
vn 0.01555 0.99341 0.11356
vn 0.00358 0.99406 0.10882
vn -0.07721 0.98272 -0.16823
vn -0.03368 0.98705 -0.15681
vn -0.00951 0.98813 -0.1533
vn -2E-05 0.9995 -0.03163
vn -0 0.99906 -0.04326
vn 0 0.99861 -0.05269
vn 0 0.99862 -0.05256
vn -0 0.99781 -0.06619
vn 0.00039 0.98901 -0.14788
vn 0.03364 0.98706 -0.1568
vn 0.00948 0.98813 -0.1533
vn 0.03368 -0.98705 -0.15681
vn 0.00357 -0.99406 0.10882
vn 0.00062 -0.99697 0.07783
vn -0.0001 -0.99905 -0.04348
vn -0 -0.9995 -0.03163
vn 0 -0.99994 -0.01079
vn 0 -0.99994 -0.0108
vn 0 -0.99994 0.0108
vn -0 -0.99994 0.01079
vn 0 -0.9995 0.03163
vn -0.00031 -0.9995 0.03175
vn 0.00039 -0.99782 0.06605
vn 0.00015 -0.99873 0.05041
vn -8E-05 -0.99873 0.05036
vn 0 -0.99785 0.06554
vn 0 -0.99466 0.10325
vn -0.01555 -0.99341 0.11356
vn -0.00358 -0.99406 0.10882
vn -0.00948 -0.98813 -0.1533
vn -0.03364 -0.98706 -0.1568
vn -0.00039 -0.98901 -0.14788
vn 0 -0.99781 -0.06619
vn -0 -0.99862 -0.05256
vn -0 -0.99861 -0.05269
vn 0 -0.99906 -0.04326
vn 2E-05 -0.9995 -0.03163
vn -0 0.98989 -0.14186
vn -0 0.95106 -0.30902
vn -0 0.8806 -0.47387
vn -0 0.78183 -0.62349
vn -0 0.65794 -0.75307
vn -0 0.5129 -0.85845
vn -0 0.35138 -0.93623
vn 0 0.17856 -0.98393
vn 0 -0 -1
vn 0 -0.17856 -0.98393
vn 0 -0.35138 -0.93623
vn 0 -0.5129 -0.85845
vn 0 -0.65794 -0.75307
vn 0 -0.78183 -0.62349
vn 0 -0.8806 -0.47387
vn 0 -0.95106 -0.30902
vn 0 -0.98989 -0.14186
vn 0.07721 -0.98272 -0.16823
vn 0 -0.99422 0.10741
vn 0 -0.97493 0.22252
vn 0 -0.91953 0.39302
vn 0 -0.83457 0.5509
vn 0 -0.7228 0.69106
vn 0 -0.58779 0.80902
vn 0 -0.43388 0.90097
vn -0 -0.26604 0.96396
vn -0 -0.08964 0.99597
vn -0 0.08964 0.99597
vn -0 0.26604 0.96396
vn -0 0.43388 0.90097
vn -0 0.58779 0.80902
vn -0 0.7228 0.69106
vn -0 0.83457 0.5509
vn -0 0.91953 0.39302
vn -0 0.97493 0.22252
vn -0 0.99422 0.10741
vn -0.00062 0.99697 0.07783
vn -0.8546 -0.00141 0.51928
vn -0.38258 0 0.92392
vn -0.13042 0 0.99146
vn -0.13074 0 0.99142
vn -0.38288 -0 0.9238
vn -0.77119 0.00029 0.6366
vn -0.59997 0 0.80003
vn -0.59973 -0 0.8002
vn -0.77233 0 0.63522
vn -0.85349 -0 0.52112
vn -0.92386 0 0.38274
vn -0.92382 0 0.38283
vn -0.99144 -0 0.13058
vn -0.99142 0 0.13068
vn -0.99142 -0 -0.13068
vn -0.99144 0 -0.13058
vn -0.92382 -0 -0.38283
vn -0.92386 -0 -0.38273
vn -0.79336 -0 -0.60876
vn -0.7934 -0 -0.6087
vn -0.60876 0 -0.79335
vn -0.13042 -0 -0.99146
vn -0.60883 -0 -0.7933
vn -0.38258 -0 -0.92392
vn -0.38288 0 -0.9238
vn -0.13074 -0 -0.99142
vn 0.8546 0.00141 0.51928
vn 0.38258 0 0.92392
vn 0.13042 0 0.99146
vn 0.13074 -0 0.99142
vn 0.38288 0 0.9238
vn 0.77119 -0.00029 0.6366
vn 0.59996 0 0.80003
vn 0.59973 0 0.8002
vn 0.77233 -0 0.63522
vn 0.85349 0 0.52111
vn 0.92386 0 0.38273
vn 0.92382 -0 0.38283
vn 0.99144 0 0.13058
vn 0.99142 0 0.13069
vn 0.99142 -0 -0.13069
vn 0.99144 -0 -0.13058
vn 0.92382 0 -0.38283
vn 0.92386 -0 -0.38273
vn 0.79335 -0 -0.60876
vn 0.7934 0 -0.6087
vn 0.60876 -0 -0.79335
vn 0.13042 -0 -0.99146
vn 0.60882 -0 -0.79331
vn 0.38258 -0 -0.92392
vn 0.38288 -0 -0.9238
vn 0.13074 0 -0.99142
f 1//1 2//1 3//1
f 1//1 3//1 4//1
f 4//1 3//1 5//1
f 4//1 5//1 6//1
f 6//1 7//1 4//1
f 4//1 7//1 8//1
f 4//1 8//1 9//1
f 9//1 10//1 4//1
f 4//1 10//1 11//1
f 4//1 11//1 12//1
f 13//1 14//1 15//1
f 15//1 14//1 16//1
f 12//1 17//1 4//1
f 4//1 17//1 16//1
f 4//1 16//1 18//1
f 18//1 16//1 14//1
f 19//2 20//2 21//2
f 21//2 20//2 22//2
f 23//2 24//2 21//2
f 21//2 24//2 25//2
f 21//2 25//2 19//2
f 23//2 26//2 24//2
f 24//2 26//2 27//2
f 24//2 27//2 28//2
f 28//2 29//2 24//2
f 24//2 29//2 30//2
f 24//2 30//2 31//2
f 32//2 33//2 34//2
f 31//2 35//2 24//2
f 24//2 35//2 32//2
f 24//2 32//2 36//2
f 36//2 32//2 34//2
f 37//3 20//3 19//3
f 38//4 39//4 40//4
f 41//5 42//5 43//5
f 43//6 42//6 44//6
f 43//7 44//7 45//7
f 45//8 44//8 46//8
f 45//9 46//9 47//9
f 47//10 46//10 48//10
f 47//11 48//11 49//11
f 50//12 51//12 48//12
f 48//13 51//13 52//13
f 48//14 52//14 49//14
f 50//15 53//15 51//15
f 51//16 53//16 54//16
f 51//17 54//17 55//17
f 55//18 54//18 56//18
f 55//19 56//19 57//19
f 58//20 59//20 4//20
f 4//21 59//21 60//21
f 4//22 60//22 1//22
f 43//23 61//23 41//23
f 41//24 61//24 62//24
f 41//25 62//25 63//25
f 63//26 62//26 58//26
f 63//27 58//27 64//27
f 64//28 58//28 21//28
f 64//29 21//29 65//29
f 65//30 21//30 22//30
f 37//31 19//31 66//31
f 67//32 68//32 69//32
f 69//33 70//33 71//33
f 72//34 73//34 74//34
f 74//35 73//35 75//35
f 74//36 75//36 76//36
f 76//37 75//37 77//37
f 76//38 77//38 78//38
f 78//39 77//39 79//39
f 78//40 79//40 80//40
f 81//41 70//41 79//41
f 79//42 70//42 82//42
f 79//43 82//43 80//43
f 81//44 83//44 70//44
f 70//45 83//45 84//45
f 70//46 84//46 71//46
f 71//47 84//47 85//47
f 71//48 85//48 86//48
f 2//49 87//49 3//49
f 3//50 87//50 88//50
f 3//51 88//51 89//51
f 89//52 88//52 90//52
f 89//53 90//53 91//53
f 91//54 90//54 72//54
f 91//55 72//55 92//55
f 92//56 72//56 74//56
f 58//57 4//57 21//57
f 21//58 4//58 18//58
f 21//58 18//58 23//58
f 23//59 18//59 14//59
f 23//59 14//59 26//59
f 26//60 14//60 13//60
f 26//60 13//60 27//60
f 27//61 13//61 15//61
f 27//61 15//61 28//61
f 28//62 15//62 16//62
f 28//62 16//62 29//62
f 29//63 16//63 17//63
f 29//63 17//63 30//63
f 30//64 17//64 12//64
f 30//64 12//64 31//64
f 31//65 12//65 11//65
f 31//65 11//65 35//65
f 35//66 11//66 10//66
f 35//66 10//66 32//66
f 32//67 10//67 9//67
f 32//67 9//67 33//67
f 33//68 9//68 8//68
f 33//68 8//68 34//68
f 34//69 8//69 7//69
f 34//69 7//69 36//69
f 36//70 7//70 6//70
f 36//70 6//70 24//70
f 24//71 6//71 5//71
f 24//71 5//71 25//71
f 25//72 5//72 3//72
f 25//72 3//72 19//72
f 19//73 3//73 89//73
f 19//74 89//74 66//74
f 69//75 71//75 67//75
f 67//76 71//76 93//76
f 67//76 93//76 94//76
f 94//77 93//77 95//77
f 94//77 95//77 96//77
f 96//78 95//78 97//78
f 96//78 97//78 98//78
f 98//79 97//79 99//79
f 98//79 99//79 100//79
f 100//80 99//80 101//80
f 100//80 101//80 102//80
f 102//81 101//81 103//81
f 102//81 103//81 104//81
f 104//82 103//82 105//82
f 104//82 105//82 106//82
f 106//83 105//83 107//83
f 106//83 107//83 108//83
f 108//84 107//84 109//84
f 108//84 109//84 110//84
f 110//85 109//85 111//85
f 110//85 111//85 112//85
f 112//86 111//86 113//86
f 112//86 113//86 114//86
f 114//87 113//87 115//87
f 114//87 115//87 116//87
f 116//88 115//88 117//88
f 116//88 117//88 118//88
f 118//89 117//89 119//89
f 118//89 119//89 120//89
f 120//90 119//90 121//90
f 120//90 121//90 122//90
f 122//91 121//91 38//91
f 122//91 38//91 55//91
f 55//92 38//92 40//92
f 55//93 40//93 51//93
f 86//1 39//1 38//1
f 86//1 38//1 71//1
f 71//1 38//1 121//1
f 71//1 121//1 119//1
f 119//1 117//1 71//1
f 71//1 117//1 115//1
f 71//1 115//1 113//1
f 113//1 111//1 71//1
f 71//1 111//1 109//1
f 71//1 109//1 107//1
f 71//1 101//1 99//1
f 99//1 97//1 71//1
f 71//1 97//1 95//1
f 71//1 95//1 93//1
f 107//1 105//1 71//1
f 71//1 105//1 103//1
f 71//1 103//1 101//1
f 122//2 55//2 67//2
f 67//2 55//2 57//2
f 67//2 57//2 68//2
f 94//2 96//2 118//2
f 118//2 96//2 98//2
f 94//2 118//2 67//2
f 67//2 118//2 120//2
f 67//2 120//2 122//2
f 98//2 100//2 118//2
f 118//2 100//2 102//2
f 118//2 102//2 104//2
f 106//2 114//2 104//2
f 104//2 114//2 116//2
f 104//2 116//2 118//2
f 106//2 108//2 114//2
f 114//2 108//2 110//2
f 114//2 110//2 112//2
f 91//94 92//94 63//94
f 66//95 64//95 65//95
f 22//96 20//96 65//96
f 65//97 20//97 37//97
f 65//98 37//98 66//98
f 63//99 92//99 41//99
f 64//100 66//100 63//100
f 63//101 66//101 89//101
f 63//102 89//102 91//102
f 41//103 92//103 42//103
f 42//104 92//104 74//104
f 42//105 74//105 44//105
f 44//106 74//106 123//106
f 44//107 123//107 124//107
f 124//108 123//108 78//108
f 124//109 78//109 48//109
f 48//110 78//110 80//110
f 48//111 80//111 50//111
f 50//112 80//112 53//112
f 53//113 80//113 82//113
f 53//114 82//114 54//114
f 69//115 68//115 57//115
f 82//116 70//116 54//116
f 54//117 70//117 69//117
f 54//118 69//118 56//118
f 56//119 69//119 57//119
f 62//120 61//120 90//120
f 59//121 88//121 87//121
f 2//122 1//122 87//122
f 87//123 1//123 60//123
f 87//124 60//124 59//124
f 90//125 61//125 72//125
f 88//126 59//126 90//126
f 90//127 59//127 58//127
f 90//128 58//128 62//128
f 72//129 61//129 73//129
f 73//130 61//130 43//130
f 73//131 43//131 75//131
f 75//132 43//132 125//132
f 75//133 125//133 126//133
f 126//134 125//134 47//134
f 126//135 47//135 79//135
f 79//136 47//136 49//136
f 79//137 49//137 81//137
f 81//138 49//138 83//138
f 83//139 49//139 52//139
f 83//140 52//140 84//140
f 40//141 39//141 86//141
f 52//142 51//142 84//142
f 84//143 51//143 40//143
f 84//144 40//144 85//144
f 85//145 40//145 86//145
# Vertices: 126, normals: 145, texture coordinates: 0, faces: 240

